<svg width="900" height="900" viewBox="0 0 900 900" fill="none" xmlns="http://www.w3.org/2000/svg">
<g clip-path="url(#clip0_116_18)">
<rect width="900" height="900" fill="white"/>
<path d="M426.325 0.205478C325.933 6.23383 234.864 42.3235 158.666 106.465C145.323 117.718 116.146 146.976 105.295 160.077C61.0069 213.368 29.9006 273.651 13.7446 337.713C3.45625 378.384 0 406.516 0 449.84C0 479.499 0.80378 491.797 4.34041 515.75C15.1111 588.653 44.449 659.305 88.7373 718.704C154.165 806.638 250.86 868.529 357.039 890.392C364.836 891.999 366.041 891.919 366.041 889.749C366.041 887.819 375.044 851.408 379.625 835.092C385.573 813.631 389.351 802.538 399.559 776.174C410.892 747.078 420.939 719.347 425.843 703.834C447.384 635.513 446.741 600.79 423.351 565.182C413.062 549.509 393.37 528.691 365.479 503.774C357.843 497.022 351.573 491.235 351.573 490.993C351.573 490.752 353.985 490.833 357.039 491.074C375.687 492.681 402.131 509.641 432.675 539.461C439.426 546.052 448.831 555.858 453.493 561.163C458.154 566.468 462.254 570.889 462.656 571.05C463.62 571.452 470.292 560.601 474.552 551.679C489.261 520.653 498.022 470.095 497.781 416.885C497.781 404.346 497.62 403.14 496.736 406.034C494.405 413.348 488.859 421.708 486.287 421.708C485.804 421.708 482.83 418.01 479.615 413.429C466.192 394.138 457.833 378.947 457.029 372.275C456.708 368.819 456.708 368.658 458.717 368.658C461.932 368.658 473.426 373.079 479.294 376.616C489.1 382.403 495.289 389.315 497.138 396.228C498.102 400.006 497.218 367.211 495.771 347.358C494.325 326.299 491.994 304.034 489.421 284.502C487.412 269.391 482.107 236.436 481.303 233.784C480.66 231.855 486.126 238.044 489.582 243.108C533.147 308.777 536.925 522.743 497.138 669.674C495.771 674.496 494.807 678.515 494.887 678.596C494.968 678.676 498.263 675.863 502.202 672.406C533.871 644.194 578.32 623.939 632.977 612.686C654.116 608.345 682.57 604.889 696.314 605.05L703.227 605.13L692.376 606.979C637.96 616.463 593.029 635.674 555.331 665.655C537.488 679.801 513.937 705.522 500.031 726.099C475.757 762.269 457.27 807.12 445.937 857.597C442.963 870.86 438.381 895.857 438.381 898.67C438.381 900.198 438.944 900.198 458.717 899.715C480.098 899.153 497.299 897.786 515.946 895.053C703.468 867.484 854.418 723.527 891.231 537.05C897.259 506.426 899.269 485.206 899.269 449.84C899.269 420.18 898.465 407.883 894.928 383.93C882.791 301.382 847.666 223.817 793.009 158.872C781.756 145.529 752.499 116.352 739.397 105.501C709.577 80.7442 682.168 62.8199 648.168 46.0209C599.298 21.8272 548.258 7.35912 492.235 1.73266C480.339 0.526989 437.497 -0.437546 426.325 0.205478ZM494.405 175.671C510.079 195.042 513.213 214.734 502.121 223.897C497.942 227.354 489.904 231.212 487.01 231.212H484.358L483.795 223.335C483.072 214.011 483.795 185.718 484.92 180.413C486.126 174.947 487.975 170.928 489.341 170.928C489.984 170.928 492.315 173.098 494.405 175.671ZM440.712 182.262C456.145 197.694 460.003 211.921 451.644 222.852C448.429 227.032 440.069 232.9 437.658 232.659C435.729 232.417 435.488 231.855 432.996 221.566C427.45 198.578 425.28 178.725 427.772 174.304C428.816 172.536 428.816 172.536 431.308 173.902C432.675 174.706 436.935 178.484 440.712 182.262ZM366.202 187.084C374.642 189.576 385.171 195.202 389.994 199.945C397.308 207.098 399.318 213.287 396.987 221.325C394.656 229.283 390.557 236.034 387.984 236.034C386.538 236.034 371.266 216.744 363.55 205.169C357.36 195.845 354.065 188.451 355.03 185.879C355.592 184.432 357.602 184.673 366.202 187.084ZM477.445 211.68C478.812 221.808 479.776 230.167 479.615 230.328C479.053 231.051 474.953 227.354 472.462 223.737C468.764 218.432 467.559 212.323 468.845 206.053C469.89 201.15 473.266 193.434 474.391 193.434C474.712 193.434 476.159 201.633 477.445 211.68ZM425.521 215.377C428.736 224.54 431.067 232.337 430.826 232.659C429.861 233.543 424.637 230.167 421.422 226.469C417.242 221.727 415.554 215.86 416.117 208.304C416.599 202.276 418.126 196.89 419.091 198.016C419.412 198.337 422.306 206.214 425.521 215.377ZM257.853 208.867C260.103 210.233 264.444 213.287 267.418 215.699C281.644 227.112 286.547 239.571 281.162 250.422C278.751 255.245 271.678 262.881 268.945 263.524C266.774 264.086 265.971 262.559 258.737 244.072C251.342 225.103 247.886 211.68 249.493 207.581C250.458 205.009 251.503 205.169 257.853 208.867ZM383.162 238.687C382.519 239.812 375.767 238.526 371.266 236.517C364.273 233.302 360.013 227.756 357.602 218.592C355.271 209.751 355.592 209.912 369.98 224.299C377.535 231.855 383.403 238.285 383.162 238.687ZM221.361 218.191C221.361 219.075 210.028 227.434 209.545 226.871C208.902 226.309 210.831 221.808 212.198 220.682C213.404 219.718 218.789 217.628 220.396 217.548C220.879 217.548 221.361 217.789 221.361 218.191ZM232.935 219.075C233.739 220.361 228.515 229.524 225.541 231.935C221.602 235.231 218.95 235.713 215.172 233.703C210.912 231.614 209.385 229.765 210.992 228.72C216.619 225.023 229.801 218.512 231.971 218.351C232.292 218.351 232.694 218.673 232.935 219.075ZM552.518 222.692C552.518 226.63 548.821 238.687 545.606 245.439C542.31 252.432 536.041 259.424 531.057 261.836C525.913 264.328 519.965 264.167 512.731 261.434C507.748 259.505 502.684 256.049 502.684 254.441C502.684 254.2 507.105 250.02 512.57 245.358C531.057 229.283 544.882 219.959 550.187 219.959C552.277 219.959 552.518 220.2 552.518 222.692ZM525.029 223.817C524.466 224.621 518.759 230.971 512.329 237.883C499.871 251.226 498.745 251.869 499.871 244.394C500.674 239.089 502.362 235.552 506.14 231.453C510.641 226.55 518.358 222.772 524.627 222.451C525.913 222.37 525.913 222.531 525.029 223.817ZM466.755 228.479C471.738 232.096 473.426 235.713 471.899 239.41C471.256 240.857 470.131 242.625 469.327 243.269C468.121 244.313 467.8 244.233 466.835 242.947C465.549 241.098 461.289 230.89 460.566 227.756C459.842 224.701 461.932 224.862 466.755 228.479ZM206.17 234.025C209.787 242.063 208.822 248.654 203.678 251.306C201.909 252.19 199.659 252.914 198.534 252.914C196.765 252.914 196.605 252.673 197.006 249.458C197.81 241.982 199.82 232.417 201.025 230.086C202.231 227.756 202.311 227.756 203.437 229.283C204.16 230.086 205.366 232.257 206.17 234.025ZM413.384 233.302C419.814 239.25 425.119 246.323 428.656 253.718C431.228 259.103 431.549 260.469 431.549 266.176C431.549 271.481 431.228 273.169 429.62 275.902C426.566 281.287 416.197 289.084 412.178 289.084C410.571 289.084 410.249 288.2 408.722 280.001C405.909 264.569 404.462 252.11 404.382 242.465C404.301 232.98 405.266 228.8 407.356 228.8C407.999 228.8 410.731 230.81 413.384 233.302ZM317.413 236.919C321.432 249.699 321.994 263.041 318.94 271.803C317.252 276.706 311.384 282.654 306.963 284.101C302.703 285.467 290.406 286.19 288.878 285.145C287.914 284.422 287.994 283.377 290.004 277.268C296.354 257.576 306.32 236.276 311.063 232.016C312.59 230.649 314.197 229.765 314.599 230.006C315.001 230.247 316.287 233.382 317.413 236.919ZM346.268 232.417C348.519 234.668 350.528 234.99 352.859 233.302C354.145 232.337 354.628 232.337 356.557 233.462C358.325 234.507 358.807 235.391 358.807 237.722C358.807 240.777 360.415 242.867 363.148 243.349C364.112 243.59 364.996 244.635 365.398 246.082C365.961 248.091 365.72 248.734 364.032 249.94C361.862 251.547 361.379 255.084 362.907 257.576C364.353 259.907 361.701 263.524 359.129 262.881C356.476 262.238 353.181 264.488 353.181 266.98C353.181 268.507 352.699 268.989 350.448 269.391C348.278 269.874 347.394 269.552 345.706 267.864C343.375 265.533 341.365 265.212 339.115 266.9C337.748 267.864 337.186 267.864 335.337 266.9C333.488 265.935 333.086 265.212 333.086 262.64C333.086 259.424 331.479 257.335 328.746 256.852C327.781 256.611 326.897 255.566 326.495 254.12C325.933 252.11 326.174 251.467 327.862 250.261C330.032 248.654 330.434 246.162 328.987 243.027C328.264 241.42 328.344 240.616 329.469 239.008C330.595 237.32 331.238 236.999 333.167 237.401C336.06 237.964 338.713 235.874 338.713 233.141C338.713 230.006 343.375 229.524 346.268 232.417ZM253.834 247.93C258.496 256.45 262.354 263.845 262.354 264.247C262.354 266.578 251.744 260.791 248.529 256.772C244.269 251.306 242.098 241.259 243.545 233.703C243.867 232.257 244.349 231.373 244.671 231.774C245.072 232.096 249.172 239.41 253.834 247.93ZM462.816 239.008C464.424 241.581 465.71 243.912 465.71 244.233C465.71 245.599 461.53 242.786 460.405 240.777C459.36 238.687 458.797 234.427 459.601 234.427C459.842 234.427 461.289 236.517 462.816 239.008ZM194.836 244.635V252.512L193.229 250.503C191.219 247.93 191.139 242.384 192.988 239.169C193.791 237.883 194.515 236.838 194.595 236.838C194.756 236.838 194.836 240.375 194.836 244.635ZM288.798 262.157C283.493 284.422 284.136 282.573 282.368 280.323C279.956 277.429 278.188 270.115 278.67 265.614C279.313 260.228 283.573 252.753 288.316 248.413C290.486 246.484 292.415 244.956 292.576 245.117C292.737 245.198 290.968 252.914 288.798 262.157ZM477.847 251.146C480.419 254.039 481.143 259.023 478.972 259.826C476.722 260.711 461.932 250.503 462.977 248.734C463.299 248.252 466.031 248.091 469.488 248.252C475.114 248.493 475.677 248.734 477.847 251.146ZM220.557 250.342C220.557 250.663 217.985 253.316 214.77 256.129L209.063 261.273L209.626 258.54C210.269 255.084 212.921 252.351 217.021 250.904C220.879 249.538 220.557 249.538 220.557 250.342ZM231.81 250.904C231.81 251.547 231.087 254.039 230.122 256.531C228.193 261.675 224.255 266.257 221.039 267.06C218.387 267.703 213.082 266.096 211.233 264.086C210.108 262.8 210.43 262.398 216.458 257.978C226.666 250.583 231.81 248.172 231.81 250.904ZM401.166 270.758C403.899 280.564 405.989 288.762 405.828 288.923C405.185 289.647 399.72 285.628 396.987 282.413C393.129 277.992 391.441 271.883 392.003 264.971C392.405 259.907 394.575 252.914 395.701 252.914C395.942 252.914 398.434 260.952 401.166 270.758ZM372.472 256.209C372.472 256.692 373.436 257.013 374.722 256.933C378.339 256.692 378.902 256.852 378.902 258.54C378.902 259.424 379.625 260.55 380.509 261.112C382.197 262.238 382.68 264.569 381.313 265.372C380.911 265.614 380.59 266.98 380.75 268.427C380.911 270.597 380.59 271.079 379.063 271.24C378.098 271.401 376.812 272.205 376.249 273.089C375.204 274.777 372.873 275.098 371.989 273.732C371.748 273.249 370.784 273.089 369.899 273.249C367.488 273.893 366.041 273.008 366.041 270.999C366.041 269.793 365.398 268.909 364.434 268.588C362.746 268.025 362.183 264.971 363.71 264.971C364.273 264.971 364.434 264.086 364.193 262.8C363.63 259.746 364.273 258.54 366.604 258.54C367.89 258.54 368.774 257.978 369.015 256.933C369.417 255.245 372.472 254.602 372.472 256.209ZM188.486 258.299C191.219 265.533 192.746 279.599 191.621 287.557C190.014 299.131 184.467 306.928 176.43 309.178C169.035 311.188 157.059 310.786 157.059 308.455C157.059 306.044 169.999 277.67 175.144 268.989C182.056 257.254 186.638 253.557 188.486 258.299ZM472.703 259.505L478.169 262.077L475.114 262.398C471.738 262.72 468.764 261.193 467.318 258.54C466.835 257.656 466.594 256.933 466.835 256.933C466.996 256.933 469.648 258.058 472.703 259.505ZM461.771 262.077C465.147 262.72 469.568 263.926 471.497 264.81C476.32 266.9 481.705 271.883 483.474 275.822C486.206 281.689 485.081 299.533 481.946 299.533C480.66 299.533 461.37 288.2 452.046 282.011C437.819 272.446 430.504 264.488 434.684 262.881C439.748 260.952 453.091 260.55 461.771 262.077ZM571.487 262.961C572.372 265.212 568.594 278.956 564.977 286.431C558.627 299.855 550.026 306.606 540.461 305.722C534.514 305.16 527.199 302.266 523.823 299.212L521.09 296.72L529.369 289.405C545.365 275.339 556.055 267.382 564.012 263.685C568.835 261.434 570.844 261.273 571.487 262.961ZM545.284 264.569C545.284 265.131 520.367 291.897 519.483 292.138C518.116 292.621 518.759 285.226 520.367 280.725C522.216 275.822 528.083 269.713 533.067 267.623C537.327 265.774 545.284 263.765 545.284 264.569ZM244.188 270.758C245.153 274.375 244.671 289.245 243.385 295.353C240.893 307.732 234.382 316.814 226.666 318.904C221.763 320.271 211.153 319.386 207.054 317.297L203.597 315.528L204.964 313.358C205.687 312.072 209.545 306.365 213.564 300.578C225.299 283.94 233.98 273.812 239.285 270.597C242.581 268.507 243.545 268.588 244.188 270.758ZM164.132 271.16C163.891 271.963 161.399 280.082 158.666 289.245C153.04 307.571 152.557 308.134 150.146 299.694C147.413 290.29 150.307 281.207 158.505 273.732C163.007 269.632 164.775 268.829 164.132 271.16ZM268.945 277.992C278.429 285.547 286.146 295.193 288.959 303.15C292.897 314.483 289.039 324.209 277.304 332.006C271.276 336.025 271.115 335.864 267.337 320.592C260.264 291.978 258.817 274.616 263.479 274.616C264.122 274.616 266.533 276.143 268.945 277.992ZM210.43 294.389C205.768 303.15 201.588 310.706 201.186 311.108C200.061 312.313 198.855 307.812 198.855 302.507C198.855 293.344 204.482 285.145 213.886 280.323C216.458 279.037 218.628 278.072 218.708 278.153C218.869 278.313 215.091 285.547 210.43 294.389ZM633.298 279.439C634.102 281.93 631.61 289.405 626.466 299.935C621.804 309.5 609.747 330.237 607.577 332.408C606.532 333.453 605.97 333.131 602.915 329.916C600.986 327.907 598.253 323.968 596.806 321.235C591.984 311.429 594.074 302.748 603.397 293.585C609.104 288.119 614.49 284.663 623.733 280.644C631.047 277.429 632.575 277.268 633.298 279.439ZM336.623 287.718C340.401 293.826 339.275 299.613 333.569 302.748C330.755 304.356 330.514 303.874 328.344 293.746C326.656 285.788 326.174 280.162 327.219 279.197C328.103 278.313 334.131 283.779 336.623 287.718ZM366.684 284.824C366.604 285.226 364.032 287.798 361.058 290.611C355.914 295.434 355.592 295.675 355.592 293.665C355.592 290.933 359.852 286.11 363.148 285.145C366.443 284.181 367.006 284.101 366.684 284.824ZM377.857 286.592C376.41 293.665 371.105 300.739 366.524 301.543C363.871 302.105 358.003 299.855 356.878 298.006C355.914 296.479 373.677 284.261 376.812 284.261C378.018 284.261 378.178 284.663 377.857 286.592ZM462.414 295.434C478.731 302.748 479.374 303.07 477.445 304.115C476.32 304.677 473.266 305.401 470.693 305.642C463.942 306.365 458.074 304.517 453.01 299.935C448.107 295.514 442.079 286.592 444.731 287.637C445.053 287.718 453.091 291.254 462.414 295.434ZM313.956 289.486C314.68 290.29 312.911 298.89 311.384 301.944C308.812 306.928 306.079 308.616 301.417 308.053C299.167 307.812 296.836 307.008 296.193 306.365C294.987 305.24 295.63 304.356 303.025 297.122C310.339 289.888 312.67 288.2 313.956 289.486ZM324.245 290.209C324.245 290.45 325.29 293.505 326.656 297.041C327.942 300.658 328.666 303.552 328.183 303.552C327.701 303.552 326.254 302.507 324.968 301.221C322.959 299.131 322.637 298.247 322.637 294.389C322.637 291.897 323.039 289.888 323.441 289.888C323.923 289.888 324.245 290.048 324.245 290.209ZM426.486 296.318C426.003 307.973 420.698 323.003 414.75 329.836C411.053 334.015 404.623 337.311 400.041 337.311C392.807 337.311 381.715 333.292 380.75 330.398C380.349 329.112 395.862 312.394 405.266 303.874C414.831 295.273 421.904 290.531 424.717 290.852C426.646 291.093 426.727 291.254 426.486 296.318ZM302.543 291.897C302.543 292.138 300.614 294.952 298.363 298.167L294.103 303.954L293.862 301.301C293.701 299.774 294.183 297.765 294.907 296.639C296.595 293.987 302.543 290.37 302.543 291.897ZM389.351 311.108C383.081 319.386 377.696 325.897 377.214 325.656C376.089 324.933 376.33 318.02 377.696 313.438C379.866 306.124 387.341 299.613 396.987 296.72C398.755 296.157 400.282 295.836 400.443 295.916C400.523 295.996 395.54 302.829 389.351 311.108ZM260.264 316.734C263.64 325.977 266.212 333.694 265.971 334.015C265.73 334.256 263.801 333.613 261.791 332.488C254.316 328.55 249.654 318.985 250.538 309.661C251.181 303.552 252.628 298.327 253.432 299.212C253.753 299.613 256.808 307.491 260.264 316.734ZM524.868 305.32C524.225 308.777 523.019 309.982 520.287 309.982C518.518 309.982 517.875 309.5 517.473 307.973C517.152 306.767 517.393 305.401 517.956 304.758C519.644 302.748 520.608 303.391 519.161 305.642C517.152 308.777 518.116 308.696 521.171 305.561C524.547 302.105 525.511 302.025 524.868 305.32ZM144.68 305.32C145.725 308.616 145.163 323.968 143.796 330.077C139.858 347.358 131.096 355.155 117.03 353.788C111.323 353.145 104.813 350.814 104.813 349.367C104.813 348.323 114.699 333.453 121.13 324.852C131.338 311.349 139.134 303.552 142.671 303.552C143.475 303.552 144.359 304.356 144.68 305.32ZM354.145 309.42C368.292 323.486 374.24 338.838 369.498 349.367C366.041 357.164 351.091 367.051 349.644 362.549C349.403 361.665 348.358 355.958 347.233 349.769C342.41 321.959 342.41 303.552 347.152 303.552C347.715 303.552 350.93 306.204 354.145 309.42ZM634.423 312.233C633.378 319.547 630.887 324.772 626.386 328.791C622.608 332.167 615.213 335.382 612.48 334.739C611.596 334.578 614.731 329.916 622.688 319.547C634.986 303.391 635.709 302.989 634.423 312.233ZM338.552 308.214C340.401 309.42 340.803 311.911 339.517 314.001C338.713 315.287 338.874 315.448 336.06 311.188C332.604 306.044 333.488 304.999 338.552 308.214ZM577.998 310.464C578.802 312.554 574.622 327.746 571.568 334.015C564.736 347.84 556.537 354.11 546.57 353.226C541.105 352.663 533.71 349.769 530.253 346.715L527.44 344.223L530.897 341.169C549.383 324.852 562.083 315.126 569.799 311.509C575.265 308.857 577.275 308.616 577.998 310.464ZM336.703 314.644C336.221 315.207 333.89 313.197 333.89 312.152C333.89 311.751 334.614 311.992 335.498 312.795C336.382 313.599 336.944 314.403 336.703 314.644ZM539.336 325.817C532.343 333.211 526.395 339.401 525.913 339.561C524.707 340.044 525.109 333.131 526.476 329.032C528.324 323.646 533.79 317.94 539.577 315.287C543.918 313.358 550.83 311.509 551.634 312.072C551.795 312.233 546.249 318.342 539.336 325.817ZM118.638 313.76C118.236 314.564 114.137 322.28 109.555 330.8C101.357 346.313 101.276 346.474 100.231 344.062C98.8649 340.767 98.9453 333.453 100.472 329.032C102.16 324.048 107.626 318.1 113.413 314.966C118.799 312.072 119.602 311.831 118.638 313.76ZM522.778 315.448C522.778 315.85 521.814 316.573 520.689 317.136C519.483 317.618 518.759 318.261 519.001 318.502C519.242 318.743 520.447 318.422 521.733 317.779C527.681 314.725 529.048 315.368 525.511 319.547C523.1 322.441 521.814 322.682 519.563 320.431C517.715 318.583 518.197 316.573 520.689 315.609C522.859 314.725 522.778 314.725 522.778 315.448ZM315.805 316.252C313.796 318.02 305.034 324.45 304.633 324.45C304.391 324.45 304.15 323.888 304.15 323.245C304.15 321.155 306.803 317.859 309.375 316.734C312.027 315.528 317.011 315.207 315.805 316.252ZM470.372 317.699C479.053 319.949 485.242 324.37 488.457 330.479C491.511 336.427 490.145 354.19 486.608 354.19C485.161 354.19 469.488 345.027 458.074 337.471C442.481 327.183 435.166 319.145 439.989 317.618C446.5 315.528 462.254 315.609 470.372 317.699ZM182.699 316.975C182.699 317.94 171.446 326.219 170.964 325.736C170.321 325.174 172.25 320.672 173.616 319.547C175.867 317.699 182.86 315.769 182.699 316.975ZM327.46 317.297C327.46 319.708 321.994 328.148 319.02 330.237C315.242 333.051 311.465 332.97 307.365 330.077C303.266 327.103 303.668 326.701 317.011 319.869C323.682 316.493 327.46 315.528 327.46 317.297ZM194.032 318.422C194.032 319.949 191.139 325.736 189.049 328.469C185.11 333.453 179.484 334.658 174.742 331.443C173.215 330.479 171.928 329.273 171.768 328.871C171.446 327.907 181.735 321.557 187.683 318.904C192.023 316.975 194.032 316.814 194.032 318.422ZM682.731 322.602C688.518 329.193 707.165 370.266 705.236 372.195C703.147 374.285 690.286 373.883 684.82 371.552C673.809 366.97 669.066 351.779 672.683 332.81C674.532 323.245 676.14 318.824 677.908 318.824C678.712 318.824 680.882 320.512 682.731 322.602ZM210.43 324.933C222.808 329.916 233.98 338.677 237.758 346.393C241.054 352.904 240.652 358.129 236.472 366.327C234.463 370.025 231.89 373.722 230.524 374.847L227.952 376.776L224.415 371.713C209.787 351.055 198.132 327.907 199.98 323.164C200.543 321.637 203.437 322.119 210.43 324.933ZM299.729 330.157C301.176 332.89 302.06 335.944 302.302 339.24C302.703 343.741 302.543 344.464 300.533 346.795C298.524 349.207 292.576 351.698 291.451 350.573C291.129 350.332 291.531 345.992 292.254 341.008C293.54 332.006 295.389 326.058 296.755 326.058C297.157 326.058 298.443 327.907 299.729 330.157ZM340.722 346.313C343.455 355.958 345.465 363.835 345.143 363.835C343.696 363.835 337.668 359.013 335.658 356.2C332.443 351.779 331.157 347.519 331.238 341.33C331.318 335.944 334.533 325.254 335.337 327.665C335.578 328.308 337.989 336.748 340.722 346.313ZM591.019 331.202C595.279 337.391 600.504 352.422 605.97 374.204C607.095 378.786 607.899 383.046 607.657 383.608C607.014 385.296 599.379 385.055 593.511 383.207C581.776 379.509 577.194 372.597 577.275 358.611C577.355 350.01 579.445 341.089 583.464 332.729C586.598 326.058 587.402 325.897 591.019 331.202ZM435.568 335.864C440.712 340.687 442.642 344.947 441.516 348.885C440.712 351.618 436.372 356.039 434.925 355.557C433.639 355.155 429.62 342.053 428.977 336.266C428.334 330.318 429.54 330.237 435.568 335.864ZM705.477 337.552C707.889 339.883 710.702 343.419 711.667 345.349C714.239 350.412 714.721 358.45 712.792 363.835C710.541 370.025 709.577 370.346 708.21 365.282C704.995 353.949 699.61 334.337 699.61 333.854C699.61 332.408 701.459 333.613 705.477 337.552ZM289.682 341.732C289.682 346.152 289.361 349.367 288.878 349.367C287.753 349.367 285.663 344.947 285.663 342.535C285.663 340.606 288.477 334.096 289.28 334.096C289.521 334.096 289.682 337.552 289.682 341.732ZM631.369 335.944C636.674 339.481 647.525 355.557 658.939 376.857L662.716 383.85L660.466 385.296C657.01 387.547 642.542 387.386 638.04 384.975C631.69 381.599 627.35 374.285 625.582 364.318C623.974 354.994 625.662 334.096 627.993 334.096C628.315 334.096 629.842 334.899 631.369 335.944ZM429.54 349.126C430.987 352.341 432.032 355.235 431.71 355.476C431.067 356.2 427.37 353.788 426.405 352.02C425.199 349.689 424.958 341.089 426.164 342.535C426.486 343.018 428.013 345.992 429.54 349.126ZM471.176 352.02C482.187 356.923 484.036 357.968 482.911 358.772C479.455 361.344 468.041 361.103 462.816 358.37C458.315 356.039 448.831 345.429 448.831 342.776C448.831 342.455 450.92 343.098 453.493 344.223C455.984 345.349 463.942 348.885 471.176 352.02ZM265.569 344.545C266.774 346.795 269.99 347.438 272.401 345.831C274.25 344.625 274.571 344.625 276.42 345.831C277.947 346.876 278.429 347.84 278.429 350.252C278.429 353.467 280.519 355.798 283.332 355.798C284.217 355.798 284.86 356.762 285.181 358.37C285.583 360.62 285.342 361.263 283.654 362.469C281.484 364.077 281.082 366.568 282.529 369.783C283.895 372.757 281.725 375.49 278.188 375.249C275.375 375.008 273.205 376.616 272.642 379.509C272.481 380.474 271.356 381.358 269.748 381.84C267.498 382.483 267.016 382.322 265.488 380.393C263.64 378.062 261.068 377.741 258.656 379.429C257.37 380.393 256.808 380.393 254.879 379.268C253.03 378.143 252.708 377.5 253.03 375.731C253.512 373.159 251.101 369.703 248.448 369.301C245.876 368.98 245.474 364.157 247.805 362.469C249.654 361.183 250.056 357.486 248.609 355.155C247.162 352.824 249.815 349.207 252.387 349.85C254.798 350.493 258.335 348.323 258.335 346.152C258.335 343.018 264.042 341.732 265.569 344.545ZM153.442 348.242C145.082 355.717 143.555 356.2 146.368 350.412C147.735 347.519 152.557 344.545 155.853 344.625C157.139 344.625 156.576 345.429 153.442 348.242ZM168.311 345.268C168.311 346.876 165.82 352.743 163.971 355.476C160.193 361.022 154.888 362.871 149.905 360.299C145.002 357.727 145.243 357.084 152.477 352.261C161.64 346.152 168.311 343.178 168.311 345.268ZM611.114 348.242C615.936 353.708 617.946 358.45 618.267 365.122C618.589 370.105 618.267 371.632 616.419 375.812C614.49 379.991 611.998 383.528 611.998 382.001C611.998 381.358 607.336 349.689 606.773 346.715C606.211 343.58 607.336 343.982 611.114 348.242ZM404.221 352.341C419.171 364.639 426.003 379.67 421.582 390.039C419.493 394.861 412.017 402.578 407.677 404.426C403.899 405.954 404.14 406.275 399.8 391.084C393.289 368.256 390.637 349.85 393.289 346.635C394.254 345.509 394.575 345.509 396.746 346.795C398.032 347.519 401.408 350.091 404.221 352.341ZM657.572 349.689C665.771 355.637 669.629 363.353 668.825 371.873C668.423 376.214 666.896 380.715 665.851 380.715C665.449 380.715 655.322 356.843 651.624 347.197C650.901 345.349 652.75 346.072 657.572 349.689ZM325.45 351.377C324.004 356.28 320.708 361.746 318.297 363.353C317.171 364.077 314.921 364.639 313.233 364.639C310.179 364.639 304.954 362.148 304.954 360.701C304.954 358.611 324.245 346.393 325.933 347.438C326.254 347.599 326.093 349.448 325.45 351.377ZM310.179 352.984C307.044 355.798 304.231 358.129 303.909 358.209C302.945 358.209 303.989 354.994 305.677 352.583C307.205 350.332 311.786 347.76 314.197 347.76C315.323 347.76 314.197 349.207 310.179 352.984ZM212.359 364.237C223.049 377.259 223.451 377.902 221.361 378.143C220.236 378.304 217.181 377.66 214.77 376.696C206.17 373.481 200.543 364.961 199.257 353.386C198.534 346.956 197.649 346.233 212.359 364.237ZM384.046 351.055C386.457 353.949 386.538 354.11 384.93 356.36C382.921 359.254 378.982 357.646 378.902 353.949C378.902 351.859 379.625 352.261 380.992 355.155C381.876 357.084 382.037 357.244 381.715 355.798C379.866 347.921 380.429 346.715 384.046 351.055ZM751.856 362.871C751.856 366.408 747.033 377.259 740.844 387.547C732.806 400.97 724.366 413.188 722.839 413.509C719.785 414.072 712.31 402.337 711.265 395.183C709.738 384.653 719.061 373.24 735.458 365.363C742.13 362.228 750.087 359.656 751.293 360.379C751.614 360.54 751.856 361.665 751.856 362.871ZM557.26 363.434C561.119 365.604 570.041 373.963 569.237 374.767C568.433 375.49 533.147 366.006 533.469 365.122C533.629 364.639 535.719 363.434 538.131 362.389C544.079 359.897 551.393 360.299 557.26 363.434ZM179.404 364.559C184.387 367.131 189.29 372.757 189.772 376.535C190.255 380.072 188.004 384.814 185.11 386.341C183.905 387.065 183.423 386.743 182.378 384.653C178.118 376.455 174.179 363.032 175.947 363.032C176.189 363.032 177.716 363.755 179.404 364.559ZM448.991 366.327C448.188 372.114 442.561 380.233 438.623 381.197C434.443 382.242 426.887 379.107 428.254 376.857C429.861 374.285 446.821 363.594 448.429 364.157C448.911 364.237 449.152 365.282 448.991 366.327ZM135.196 365.845C137.125 366.166 138.411 366.729 138.009 367.051C136.723 368.337 104.572 383.207 104.17 382.724C103.446 382.001 106.903 375.571 109.636 372.436C112.529 369.06 117.754 366.408 123.059 365.443C126.917 364.8 128.524 364.88 135.196 365.845ZM432.835 369.864C426.003 376.455 424.717 376.616 427.611 370.587C428.977 367.694 433.398 364.72 436.533 364.639C437.899 364.639 437.095 365.684 432.835 369.864ZM373.436 368.417C375.847 370.668 376.33 373.32 374.722 374.928C373.115 376.535 372.552 376.053 371.266 371.713C369.417 365.363 369.739 364.88 373.436 368.417ZM542.873 373.883C567.308 382.965 583.866 392.048 583.866 396.308C583.866 397.996 579.525 399.684 570.121 401.613C552.197 405.311 538.131 402.095 532.424 393.093C529.048 387.788 527.36 376.294 529.209 371.471C530.173 368.98 529.45 368.899 542.873 373.883ZM371.266 375.731C370.542 376.455 369.256 374.204 369.337 372.275C369.337 370.989 369.498 371.069 370.542 372.918C371.266 374.204 371.587 375.49 371.266 375.731ZM392.727 388.11C396.585 397.514 399.559 405.311 399.398 405.552C398.434 406.436 392.084 402.497 388.869 398.961C384.93 394.62 382.921 389.155 382.921 383.046C382.921 378.625 384.367 371.069 385.252 371.069C385.573 371.069 388.949 378.705 392.727 388.11ZM337.105 374.526C337.105 378.625 334.051 388.592 330.595 395.746C324.406 408.686 315.242 415.84 305.838 415.117C299.89 414.554 292.495 411.66 288.959 408.365L286.065 405.712L288.878 403.221C309.536 385.136 328.907 371.873 334.774 371.873C336.864 371.873 337.105 372.114 337.105 374.526ZM162.203 373.159C164.212 373.963 163.73 375.892 160.354 381.117C148.056 399.925 130.614 409.329 118.879 403.462C113.011 400.488 104.813 391.968 104.813 388.753C104.813 387.788 107.787 386.341 116.709 383.287C140.34 374.928 157.059 371.15 162.203 373.159ZM177.796 380.393C179.725 383.769 181.092 386.663 180.931 386.904C179.966 387.788 175.626 384.573 174.42 382.001C173.134 379.188 172.652 374.285 173.777 374.285C174.099 374.285 175.867 377.017 177.796 380.393ZM301.9 383.689C296.997 388.913 290.968 395.183 288.477 397.594L283.895 402.015L284.297 396.79C284.699 390.682 286.226 387.225 290.406 382.885C294.666 378.304 302.864 374.445 308.491 374.365C310.58 374.285 310.179 374.928 301.9 383.689ZM360.013 380.876C365.559 384.573 374.32 393.495 378.098 399.282C385.412 410.615 385.493 420.02 378.419 428.54C374.963 432.639 369.658 436.658 366.765 437.381C364.755 437.864 364.594 437.622 362.183 429.585C353.502 401.292 350.368 378.304 355.03 378.304C355.592 378.304 357.843 379.429 360.013 380.876ZM226.827 380.152C228.997 382.724 231.971 395.826 232.373 404.507C232.775 412.223 232.614 414.313 231.087 419.296C227.872 429.906 220.316 434.89 207.134 434.97C199.418 434.97 199.016 434.488 201.266 427.575C207.616 408.445 217.021 387.708 221.843 382.322C225.058 378.786 225.541 378.625 226.827 380.152ZM251.905 387.306C254.798 389.235 260.103 393.575 263.72 397.112C272.321 405.311 276.018 412.143 276.018 419.779C276.018 425.807 275.214 427.816 270.472 434.005C266.774 438.828 260.344 443.41 259.219 442.124C257.37 440.114 247.805 412.464 245.072 401.211C243.143 393.495 242.5 385.618 243.626 384.493C244.751 383.287 246.921 384.091 251.905 387.306ZM630.244 386.824C629.199 392.932 619.875 406.677 604.442 424.682C600.182 429.665 596.163 433.764 595.52 433.764C593.672 433.764 589.653 426.932 587.724 420.663C584.911 411.339 586.759 405.23 594.475 397.916C601.549 391.164 618.187 384.171 627.189 384.01L630.726 383.93L630.244 386.824ZM689.161 384.653C689.161 387.386 694.144 388.833 697.118 386.984C699.288 385.698 703.147 388.19 702.584 390.521C701.86 393.173 703.388 395.906 705.799 396.469C707.005 396.79 708.291 397.433 708.612 397.916C709.657 399.443 709.336 403.06 708.05 403.542C705.879 404.346 705.076 407.883 706.522 410.374C707.728 412.464 707.728 412.786 706.442 414.795C705.317 416.483 704.513 416.885 703.066 416.483C700.414 415.84 698.083 417.367 696.716 420.582C695.752 422.753 695.109 423.315 693.26 423.315C691.974 423.315 690.527 422.753 689.965 422.029C687.875 419.618 686.026 419.136 683.374 420.502C681.123 421.627 680.641 421.627 678.953 420.502C677.667 419.618 677.104 418.492 677.104 416.805C677.104 413.348 675.898 411.5 673.166 410.857C671.397 410.455 670.754 409.812 670.352 407.883C669.95 405.954 670.272 405.15 671.879 403.864C674.21 402.095 674.612 398.398 672.683 396.79C671.558 395.906 671.638 395.504 673.005 393.254C674.371 391.244 675.095 390.842 677.104 391.003C679.998 391.325 682.731 389.315 682.731 386.984C682.731 385.457 685.061 384.091 687.794 384.01C688.518 383.93 689.161 384.251 689.161 384.653ZM751.695 392.209C750.811 402.98 744.139 412.303 735.539 414.875C731.44 416.081 727.742 416.483 727.742 415.679C727.742 415.117 751.213 387.145 751.695 387.145C751.936 387.145 751.856 389.476 751.695 392.209ZM660.466 390.601C659.662 394.058 654.518 404.024 653.553 404.024C652.267 404.024 649.776 399.925 649.776 397.835C649.776 395.585 652.026 392.852 656.045 390.28C659.984 387.788 661.109 387.868 660.466 390.601ZM200.382 412.545C198.132 422.19 195.961 430.469 195.56 430.871C195.158 431.353 193.952 429.665 192.746 427.013C188.245 417.206 190.898 406.275 199.739 397.996C201.909 395.906 203.919 394.379 204.16 394.54C204.321 394.781 202.633 402.899 200.382 412.545ZM431.951 395.183C431.951 395.585 432.916 396.549 434.041 397.273C435.89 398.559 436.292 398.559 438.703 397.433C440.954 396.308 441.516 396.308 443.526 397.353C445.294 398.318 445.696 398.88 445.294 400.488C444.571 403.221 446.017 405.552 449.232 406.918C452.608 408.284 453.332 411.741 450.76 413.831C448.429 415.679 447.946 417.93 449.313 420.502C450.277 422.431 450.277 422.994 449.072 425.003C448.027 426.691 447.223 427.173 446.178 426.852C443.365 425.968 440.954 427.254 439.909 430.067C438.542 433.845 434.925 434.648 432.594 431.755C430.826 429.504 427.129 429.022 425.521 430.951C424.637 431.996 424.235 431.996 422.225 430.79C420.296 429.665 419.895 428.861 419.895 426.45C419.895 423.396 418.287 421.306 415.554 420.823C414.59 420.582 413.705 419.537 413.304 418.091C412.821 416.081 413.062 415.358 414.67 413.831C416.84 411.821 417.162 409.972 415.795 406.918C414.429 403.944 416.679 400.568 419.493 401.292C422.225 401.935 425.521 399.764 425.521 397.273C425.521 396.147 426.003 395.103 426.566 394.942C428.334 394.218 431.951 394.379 431.951 395.183ZM470.05 410.053C481.464 423.235 481.786 423.717 479.535 423.958C476.4 424.28 469.166 421.466 465.549 418.492C461.289 414.956 457.592 407.079 457.11 400.247C456.788 396.469 456.949 395.022 457.511 395.585C457.994 395.987 463.62 402.497 470.05 410.053ZM188.567 398.72C189.29 399.684 189.612 400.729 189.21 401.131C188.808 401.533 188.727 402.337 188.969 402.899C189.21 403.542 188.888 404.024 188.084 404.024C187.361 404.024 186.798 404.346 186.798 404.748C186.798 405.15 185.673 405.471 184.387 405.471C180.127 405.311 178.68 400.166 182.136 397.514C184.146 395.987 186.638 396.469 188.567 398.72ZM661.511 398.559C660.948 401.372 658.135 404.828 656.447 404.828C655.804 404.828 656.527 403.14 658.296 400.407C659.903 397.996 661.43 395.987 661.671 395.987C661.832 395.987 661.832 397.112 661.511 398.559ZM530.093 400.006C529.048 400.89 527.842 401.613 527.28 401.613C526.797 401.533 527.28 400.809 528.324 400.006C529.369 399.121 530.575 398.398 531.138 398.398C531.62 398.478 531.138 399.202 530.093 400.006ZM535.96 400.97C534.674 403.301 532.102 405.632 530.816 405.632C530.093 405.632 528.807 405.15 528.003 404.507C526.556 403.462 526.717 403.301 529.691 401.774C533.227 399.845 536.844 399.443 535.96 400.97ZM640.211 406.195C642.702 408.767 646.239 412.786 648.088 415.197L651.463 419.618L649.615 420.582C646.721 422.27 641.497 421.949 639.005 420.02C636.111 417.769 634.825 414.956 633.7 408.928C632.092 400.086 633.7 399.443 640.211 406.195ZM179.645 408.606C183.342 416.644 182.378 423.074 177.073 425.807C172.17 428.218 170.723 427.897 170.723 424.28C170.723 419.136 173.134 406.114 174.501 404.105C175.706 402.176 175.787 402.176 176.912 403.703C177.635 404.507 178.841 406.757 179.645 408.606ZM353.422 420.582C357.28 430.147 360.415 438.105 360.254 438.265C359.531 438.908 353.02 435.211 350.368 432.559C346.509 428.62 344.259 423.476 343.777 417.287C343.375 412.545 344.741 403.221 345.786 403.221C346.108 403.221 349.564 411.017 353.422 420.582ZM649.856 407.963C652.508 410.615 652.991 411.58 652.991 414.554C652.991 418.734 652.589 418.412 647.846 410.615C643.747 403.944 644.631 402.738 649.856 407.963ZM254.316 443.249C253.994 443.329 252.065 442.767 250.056 441.882C244.831 439.632 239.526 433.925 237.758 428.7C236.15 424.28 235.749 415.036 236.954 410.857C237.517 408.606 238.16 409.571 246.278 425.727C251.02 435.211 254.718 443.088 254.316 443.249ZM566.665 411.982C569.237 413.509 572.13 418.492 571.648 420.582C571.487 421.386 569.478 419.859 565.781 416.081C560.797 411.098 560.395 410.455 562.164 410.455C563.289 410.455 565.298 411.178 566.665 411.982ZM627.591 412.625C625.341 422.592 623.492 426.289 618.348 430.871C614.49 434.407 611.516 435.774 606.211 436.578C598.816 437.703 599.218 436.899 613.445 423.396C620.839 416.322 627.109 410.535 627.511 410.455C627.832 410.455 627.913 411.419 627.591 412.625ZM169.035 421.065C169.035 424.119 168.794 426.53 168.472 426.53C167.267 426.53 165.096 421.868 165.096 419.296C165.096 417.849 165.739 415.438 166.463 413.831L167.91 410.857L168.392 413.268C168.713 414.554 168.955 418.091 169.035 421.065ZM564.012 417.849C569.639 424.601 572.613 429.263 572.613 431.273C572.613 432.639 572.291 432.719 569.317 432.076C558.948 429.745 553.242 423.878 555.01 417.367C555.894 414.232 558.145 410.937 558.868 411.741C559.27 412.143 561.521 414.875 564.012 417.849ZM539.256 413.188L541.667 414.232L537.648 415.117C535.478 415.599 531.861 416.242 529.61 416.563L525.592 417.126L527.199 415.277C530.093 412.062 534.755 411.178 539.256 413.188ZM140.42 418.171C147.333 420.904 157.943 428.299 162.605 433.523C170.482 442.284 171.768 450.965 166.704 460.128C163.73 465.433 158.907 470.738 157.059 470.738C155.612 470.738 146.77 456.109 139.697 442.043C133.186 429.102 129.891 417.849 131.9 415.84C132.543 415.197 134.07 415.599 140.42 418.171ZM549.705 419.537C551.152 420.261 551.071 420.502 548.499 422.753C544.963 425.727 538.291 428.942 535.478 428.942C530.977 428.942 526.636 425.164 525.833 420.502C525.592 419.055 526.154 418.894 532.424 418.492C540.542 418.01 547.535 418.412 549.705 419.537ZM298.604 420.422C301.578 421.065 305.436 422.351 307.124 423.235C311.384 425.325 316.207 430.79 316.287 433.604C316.689 439.793 315.403 445.741 313.474 447.429C312.59 448.072 310.902 447.187 306.079 443.249C291.933 432.076 284.056 424.039 284.056 420.743C284.056 419.537 284.699 419.296 288.718 419.296C291.209 419.296 295.711 419.859 298.604 420.422ZM720.99 433.443C723.08 436.738 724.527 439.953 724.206 440.596C723.643 442.204 717.213 442.204 714.078 440.596C710.059 438.507 707.246 426.691 709.496 421.306C710.139 419.859 710.461 420.02 713.676 423.556C715.685 425.727 718.901 430.147 720.99 433.443ZM723.402 426.932C724.849 428.057 726.456 430.228 726.938 431.755C727.983 434.809 727.34 439.31 726.135 438.105C725.09 437.06 719.624 424.923 720.267 424.923C720.508 424.923 721.955 425.807 723.402 426.932ZM473.346 430.147C483.393 434.97 489.02 441.4 489.02 447.991C489.02 453.537 483.393 462.942 480.982 461.495C479.615 460.691 467.559 442.204 464.906 436.899C463.62 434.488 462.334 431.112 462.013 429.424L461.45 426.289L464.585 426.852C466.353 427.173 470.292 428.7 473.346 430.147ZM493.36 429.826C495.771 432.719 495.852 432.88 494.244 435.131C492.235 438.024 488.296 436.417 488.216 432.719C488.216 430.79 488.778 431.031 490.225 433.523C490.949 434.809 491.27 435.05 491.029 434.166C489.904 430.79 489.663 427.334 490.466 427.334C490.949 427.334 492.235 428.459 493.36 429.826ZM282.287 430.79C284.217 432.639 284.538 434.568 283.091 436.015C282.368 436.738 281.564 436.095 279.474 433.202C278.027 431.112 276.822 429.102 276.822 428.781C276.822 427.656 280.198 428.942 282.287 430.79ZM657.331 428.942C659.18 429.585 659.26 429.906 658.537 431.996C657.411 435.291 647.846 444.294 636.915 452.412C626.305 460.289 614.168 468.327 612.882 468.327C610.31 468.327 607.336 454.1 608.702 448.152C610.792 438.908 619.152 432.237 632.173 429.344C638.121 428.057 654.357 427.816 657.331 428.942ZM417.483 432.478C418.93 434.488 418.608 436.979 416.84 438.265C414.991 439.632 411.053 439.471 411.053 438.024C411.053 437.462 410.731 436.979 410.249 436.979C408.883 436.979 409.687 432.639 411.294 431.273C413.223 429.665 415.876 430.228 417.483 432.478ZM676.702 431.916C678.631 431.755 679.194 432.076 679.355 433.604C679.515 434.568 680.319 435.774 681.203 436.176C682.811 437.06 683.374 440.195 681.846 440.195C681.284 440.195 681.123 441.079 681.364 442.365C681.927 445.339 681.284 446.625 679.113 446.625C677.908 446.625 677.024 447.268 676.702 448.232C676.14 449.92 673.085 450.483 673.085 448.956C673.085 448.473 672.121 448.152 670.915 448.232C667.057 448.473 666.655 448.313 666.655 446.143C666.655 444.776 666.173 443.892 665.047 443.651C663.359 443.169 662.877 440.677 664.324 439.793C664.726 439.471 665.047 438.105 664.887 436.738C664.726 434.729 664.967 434.166 666.253 433.925C667.137 433.764 668.745 432.719 669.79 431.594C671.478 429.826 671.799 429.745 673.005 430.871C673.728 431.514 675.416 431.996 676.702 431.916ZM326.495 432.478C345.866 439.069 358.647 451.126 358.807 462.942C358.807 469.533 349.644 485.769 346.831 484.081C346.349 483.759 341.687 477.008 336.382 469.131C323.119 449.277 316.528 435.774 318.136 431.755C318.699 430.147 319.744 430.228 326.495 432.478ZM280.519 436.819C279.876 437.381 278.51 436.176 277.545 434.327C276.661 432.639 276.741 432.639 278.751 434.488C279.876 435.613 280.68 436.578 280.519 436.819ZM405.828 441.239C407.597 447.107 409.445 458.199 409.445 462.62C409.365 472.506 405.426 481.991 399.72 485.769C394.334 489.305 381.233 491.315 377.294 489.225C375.767 488.421 375.928 487.859 379.625 477.329C387.181 455.868 393.691 442.043 398.675 436.497L401.568 433.362L403.096 435.291C403.899 436.256 405.185 438.989 405.828 441.239ZM181.011 437.622C183.101 438.989 183.342 441.963 181.493 443.812C180.368 444.937 179.966 444.937 178.519 443.972C177.555 443.41 176.671 442.365 176.51 441.722C176.269 441.079 177.073 441.481 178.278 442.526C180.931 445.017 180.931 444.294 178.359 440.516C174.983 435.533 176.028 434.407 181.011 437.622ZM560.958 436.899C559.913 437.783 532.906 458.28 531.54 459.083C530.093 460.048 531.298 453.698 533.308 449.599C536.443 443.41 541.024 439.793 548.901 437.301C552.599 436.095 562.083 435.774 560.958 436.899ZM300.372 443.812C308.25 448.795 310.259 450.403 309.214 450.965C307.124 452.09 300.131 450.804 296.836 448.634C293.299 446.303 286.708 435.935 289.521 437.14C289.843 437.221 294.746 440.275 300.372 443.812ZM587.322 440.596C587.241 441.882 585.152 447.027 582.74 451.93C579.445 458.44 576.953 462.298 573.015 466.559C563.45 476.927 554.769 479.178 544.561 473.953C537.809 470.577 534.915 468.407 533.549 465.755L532.424 463.585L539.497 459.244C551.232 452.01 559.109 447.67 567.87 443.49C577.676 438.828 580.811 437.864 584.669 438.024C587.241 438.185 587.483 438.346 587.322 440.596ZM140.661 456.752C153.924 474.998 153.12 473.471 149.342 472.828C141.063 471.22 134.151 465.594 131.338 458.038C129.409 453.055 128.122 441.159 129.489 442.043C129.971 442.365 134.955 448.956 140.661 456.752ZM435.166 444.615C435.729 445.258 437.176 445.741 438.703 445.58C440.391 445.499 441.195 445.821 441.275 446.625C441.355 447.268 441.436 448.313 441.516 448.795C441.516 449.358 442.159 449.84 442.802 449.84C444.49 449.84 445.214 452.01 444.008 453.457C443.445 454.1 443.204 455.466 443.445 456.431C444.008 458.521 442.722 460.369 441.195 459.807C440.632 459.566 439.507 460.289 438.783 461.414C437.176 463.745 435.809 464.067 434.363 462.298C433.72 461.495 432.996 461.334 432.032 461.897C430.263 462.781 429.138 461.977 428.415 459.244C428.173 458.038 427.37 457.074 426.807 457.074C425.199 457.074 424.637 454.904 425.923 453.859C426.646 453.296 427.048 451.769 426.887 450.322C426.727 448.232 427.048 447.75 428.575 447.589C429.62 447.429 430.665 446.705 430.906 445.982C431.871 443.41 433.639 442.847 435.166 444.615ZM187.602 448.634C187.602 451.608 186.879 452.653 184.628 453.377C182.458 454.02 182.297 453.135 183.664 448.956C185.593 443.41 187.602 443.249 187.602 448.634ZM472.381 456.19C478.088 462.781 478.49 463.504 476.722 463.504C473.828 463.504 469.568 461.575 467.157 459.083C464.344 456.27 462.736 452.734 462.093 447.83L461.611 443.812L463.861 446.303C465.067 447.75 468.925 452.171 472.381 456.19ZM226.666 447.589C226.344 449.036 225.46 450.885 224.656 451.769C221.522 454.823 217.262 450.644 220.236 447.348C222.165 445.178 222.567 446.062 220.879 448.795C219.673 450.804 219.834 450.724 222.647 447.991C226.425 444.374 227.309 444.213 226.666 447.589ZM696.395 449.036C703.227 453.055 716.329 463.665 726.858 473.712L735.298 481.67L732.886 483.84C729.671 486.814 722.759 489.305 716.329 489.788C711.586 490.19 710.381 489.949 706.522 488.1C699.128 484.483 693.501 476.606 689.241 463.826C686.749 456.351 685.383 448.473 686.187 446.223C686.91 444.455 689.965 445.339 696.395 449.036ZM255.602 449.76C273.124 462.057 281.162 476.284 277.545 488.502C275.777 494.289 265.087 504.979 261.63 504.336C260.184 504.015 253.753 486.01 249.815 471.14C245.635 455.306 245.153 445.821 248.609 445.821C249.413 445.821 252.548 447.589 255.602 449.76ZM658.296 447.429C658.939 447.429 659.421 447.911 659.421 448.554C659.421 449.197 659.742 449.84 660.144 450.001C661.35 450.403 660.225 454.261 658.697 455.225C656.849 456.351 653.553 455.707 652.428 453.939C651.303 452.171 652.026 448.232 653.473 448.232C654.116 448.232 654.598 447.83 654.598 447.348C654.598 446.866 655.161 446.705 655.884 446.946C656.608 447.187 657.653 447.429 658.296 447.429ZM182.217 450.644C181.815 452.894 181.574 453.135 181.172 451.849C180.85 450.965 180.931 449.599 181.333 448.795C182.458 446.625 182.86 447.509 182.217 450.644ZM380.107 453.216C379.545 455.547 377.535 463.906 375.687 471.783C372.472 485.287 372.23 486.01 370.864 484.804C370.141 484.161 368.855 481.75 368.131 479.499C365.157 470.256 367.488 462.057 375.204 454.1C377.937 451.287 380.429 449.036 380.67 449.036C380.911 449.036 380.67 450.965 380.107 453.216ZM722.839 451.528C728.385 453.939 733.047 458.199 735.378 463.022C737.629 467.603 738.915 475.802 737.629 476.606C736.905 477.008 719.785 458.44 713.756 450.724L712.149 448.795L715.685 449.358C717.615 449.679 720.83 450.644 722.839 451.528ZM648.168 458.199C645.837 463.102 640.773 468.648 636.352 471.301C631.851 473.953 622.849 474.757 618.428 472.989L615.695 471.863L632.494 463.022C641.818 458.119 649.454 454.18 649.615 454.341C649.776 454.421 649.052 456.109 648.168 458.199ZM208.34 457.717C208.983 458.199 204.321 461.736 194.032 468.568C185.673 474.194 178.6 478.776 178.359 478.776C177.475 478.776 178.118 474.998 179.484 471.863C183.583 462.942 192.746 457.476 204.08 457.154C205.848 457.154 207.777 457.395 208.34 457.717ZM330.675 471.622C342.41 485.367 342.571 485.608 340.24 485.849C336.623 486.251 330.514 483.92 326.817 480.705C322.235 476.767 318.699 469.372 318.056 462.298C317.815 459.164 317.815 456.913 318.136 457.154C318.458 457.476 324.084 463.986 330.675 471.622ZM667.619 460.45C668.745 461.575 668.986 462.298 668.423 462.861C667.941 463.343 667.78 464.228 668.021 464.79C668.262 465.433 667.941 465.915 667.137 465.915C666.414 465.915 665.851 466.317 665.851 466.8C665.851 468.086 661.752 466.88 660.466 465.272C659.099 463.424 659.582 460.53 661.43 459.083C663.279 457.717 665.369 458.199 667.619 460.45ZM235.668 461.495C236.472 462.298 232.935 470.336 229.238 476.445C224.174 484.644 216.779 492.279 210.912 495.253C207.456 497.022 205.366 497.584 201.266 497.584C196.685 497.665 195.399 497.343 190.737 494.691C185.352 491.636 179.564 486.171 179.564 484.081C179.564 482.795 204.16 470.015 215.333 465.514C226.264 461.093 233.82 459.646 235.668 461.495ZM461.37 468.729C465.71 473.069 466.996 476.204 466.112 480.384C465.549 482.956 460.244 488.1 459.199 487.055C458.235 486.09 453.814 472.506 453.171 468.568C452.93 466.719 452.85 464.629 453.171 463.906C453.814 462.138 456.145 463.504 461.37 468.729ZM679.837 468.889C679.515 475.802 669.227 491.958 649.213 517.197C647.525 519.206 644.551 516.473 641.255 509.641C635.308 497.745 636.915 488.823 646.4 480.384C651.544 475.802 662.797 469.934 671.076 467.603C678.712 465.433 679.917 465.594 679.837 468.889ZM486.608 476.767C488.859 481.428 488.698 486.09 486.206 489.064C484.197 491.476 479.696 493.887 478.892 493.003C477.847 491.958 477.606 471.944 478.57 469.533L479.535 467.121L482.268 470.256C483.715 471.944 485.724 474.918 486.608 476.767ZM592.305 472.105C590.215 477.008 580.49 489.225 578.641 489.225C577.516 489.225 575.024 483.679 575.024 481.027C575.024 478.133 578.078 474.275 582.097 472.105C586.036 470.015 591.743 468.246 592.868 468.889C593.189 469.05 592.948 470.497 592.305 472.105ZM434.523 471.622C433.72 477.41 428.093 485.528 424.155 486.492C419.975 487.537 412.419 484.402 413.786 482.152C415.393 479.58 432.353 468.889 433.961 469.452C434.443 469.533 434.684 470.577 434.523 471.622ZM418.367 475.159C415.393 478.053 412.661 480.384 412.419 480.384C411.616 480.384 412.661 476.284 414.027 474.355C415.313 472.426 419.734 470.015 422.065 469.934C423.431 469.934 422.627 470.979 418.367 475.159ZM248.77 488.261C253.11 497.424 256.486 505.06 256.325 505.14C255.441 506.024 249.815 503.13 246.439 500.076C241.938 496.057 239.366 490.752 238.562 484.242C238.08 479.982 239.526 470.095 240.491 471.14C240.812 471.381 244.51 479.097 248.77 488.261ZM456.627 487.296C455.663 488.261 451.965 485.126 450.76 482.393C449.554 479.419 449.232 475.4 450.197 474.436C450.519 474.114 452.206 476.767 453.975 480.303C455.743 483.84 456.949 486.975 456.627 487.296ZM311.224 475.882C314.358 477.49 319.985 483.599 321.03 486.412C321.512 487.698 321.753 489.949 321.512 491.315C320.949 494.128 315.805 499.594 314.68 498.388C312.429 495.896 306.803 477.168 307.767 475.561C308.41 474.516 308.651 474.516 311.224 475.882ZM159.711 479.741C160.515 480.142 161.077 481.348 161.077 482.795C161.077 484.644 160.676 485.287 159.068 485.688C157.862 486.01 156.496 485.769 155.853 485.206C153.843 483.518 154.486 482.473 156.657 483.92C160.033 486.171 159.872 485.367 156.416 482.313C154.567 480.705 153.2 479.097 153.522 478.696C153.924 477.972 157.219 478.454 159.711 479.741ZM475.516 484.965C476.239 488.904 476.641 492.199 476.481 492.36C475.838 493.083 472.944 489.707 472.14 487.135C471.256 484.402 472.301 477.972 473.667 477.972C473.989 477.972 474.873 481.107 475.516 484.965ZM591.502 483.518C590.858 486.653 586.116 490.833 583.223 490.833C581.213 490.833 581.374 490.511 586.277 485.608C589.09 482.795 591.582 480.544 591.743 480.785C591.903 480.946 591.823 482.152 591.502 483.518ZM553.804 484.161C556.698 485.126 559.27 486.975 563.691 491.395C566.986 494.61 569.398 497.504 569.156 497.745C568.433 498.469 533.227 487.296 533.469 486.412C533.951 484.965 540.783 482.875 545.365 482.875C547.776 482.795 551.634 483.358 553.804 484.161ZM309.616 492.601C313.233 499.433 312.67 500.719 308.089 496.62C305.838 494.61 305.436 493.646 305.115 489.547C304.713 483.92 305.115 484.161 309.616 492.601ZM177.957 489.868C177.957 491.074 173.134 497.263 172.25 497.263C171.125 497.263 171.848 491.958 173.215 490.35C174.179 489.145 177.957 488.743 177.957 489.868ZM179.564 491.878C179.564 492.521 178.841 493.646 177.957 494.45C176.108 496.138 175.947 495.736 177.314 492.842C178.278 490.672 179.564 490.109 179.564 491.878ZM295.389 496.781C298.122 502.487 298.524 508.596 296.434 511.651C294.987 513.66 290.727 515.75 287.994 515.75C286.387 515.75 286.306 515.509 286.869 510.686C288.235 497.504 290.325 490.109 292.174 491.315C292.656 491.556 294.103 494.048 295.389 496.781ZM540.944 494.852C564.655 505.06 581.856 515.509 581.856 519.769C581.856 521.537 581.213 521.939 576.632 523.305C572.532 524.511 568.674 524.833 558.948 524.913C547.776 524.993 546.008 524.833 541.989 523.145C535.8 520.653 531.138 515.75 529.45 510.123C527.199 502.246 527.923 490.833 530.736 490.833C531.138 490.833 535.719 492.681 540.944 494.852ZM677.506 501.041C675.496 507.873 673.567 511.168 669.388 514.866C665.288 518.402 658.858 520.894 654.598 520.412C652.106 520.171 652.348 519.929 665.208 506.506C679.435 491.636 680.319 491.235 677.506 501.041ZM589.492 495.093C589.492 495.736 588.206 497.584 586.679 499.353C584.348 502.005 583.785 502.327 583.062 501.282C581.776 499.433 582.419 497.906 585.393 495.896C588.528 493.807 589.492 493.566 589.492 495.093ZM159.791 496.62C166.141 498.549 173.858 508.837 175.224 517.197L175.706 520.412L171.366 520.974C165.498 521.698 134.794 520.09 127.238 518.643C119.763 517.197 115.262 515.428 115.262 513.901C115.262 510.686 129.007 501.684 139.617 497.986C146.931 495.414 154.085 494.932 159.791 496.62ZM609.747 498.469C611.516 500.719 614.088 501.041 616.579 499.272C618.107 498.227 618.428 498.227 620.357 499.755C621.563 500.719 622.447 502.086 622.286 502.809C621.884 505.944 623.251 508.435 625.823 509.159C627.913 509.641 628.556 510.365 628.958 512.374C629.36 514.464 629.118 515.107 627.591 516.152C625.501 517.518 625.019 521.135 626.546 523.627C627.993 525.958 625.341 529.575 622.769 528.932C620.116 528.289 616.821 530.539 616.821 533.031C616.821 534.639 616.338 535.041 614.007 535.523C611.596 535.925 610.873 535.684 609.185 533.915C607.014 531.584 605.005 531.263 602.754 532.951C601.388 533.915 600.906 533.915 598.977 532.951C597.208 532.067 596.806 531.182 596.565 528.45C596.324 525.395 596.003 524.833 593.511 523.627C589.653 521.698 588.769 518.322 591.502 516.312C593.672 514.705 594.074 512.213 592.627 509.078C591.903 507.471 591.984 506.667 593.109 505.06C594.234 503.372 594.877 503.05 596.806 503.452C599.539 503.934 602.353 502.005 602.353 499.513C602.353 498.067 604.683 496.62 607.095 496.54C607.657 496.459 608.863 497.343 609.747 498.469ZM232.694 504.497C238.08 509.882 238.803 514.383 234.945 519.286C231.328 523.868 230.524 523.627 227.872 516.554C224.978 509.078 222.888 500.8 223.531 499.192C224.174 497.584 227.952 499.755 232.694 504.497ZM351.011 500.237C356.476 502.487 365.238 514.464 365.238 519.849C365.238 521.778 364.916 522.019 361.46 522.502C359.29 522.743 350.93 523.305 342.732 523.788C321.271 525.074 304.954 523.225 304.954 519.528C304.954 517.84 312.027 511.57 319.02 506.989C331.479 498.87 341.848 496.62 351.011 500.237ZM422.708 498.87C424.556 499.594 424.637 499.594 416.036 502.086C412.741 503.05 409.928 503.613 409.606 503.372C409.044 502.729 411.937 499.594 413.866 498.79C415.956 497.986 420.618 497.986 422.708 498.87ZM485.804 501.523C485.804 507.069 482.75 518 478.972 525.877C474.793 534.478 468.684 540.828 463.058 542.355C456.547 544.123 444.329 541.39 439.346 537.05L437.176 535.121L442.4 529.816C447.946 524.109 463.058 510.606 468.684 506.265C474.471 501.764 481.223 498.067 483.554 498.067C485.644 498.067 485.804 498.308 485.804 501.523ZM588.528 500.639C587.884 501.603 586.84 502.568 586.197 502.729C585.554 502.97 585.955 502.166 587 500.96C589.412 498.388 590.135 498.227 588.528 500.639ZM284.86 507.471V515.268L283.091 513.499C280.76 511.168 280.519 505.06 282.689 501.844C283.413 500.639 284.297 499.674 284.458 499.674C284.699 499.674 284.86 503.211 284.86 507.471ZM730.636 503.05C733.208 505.622 725.09 514.303 709.255 525.958C700.896 532.067 687.312 541.31 685.704 541.953C683.936 542.596 681.927 537.773 681.043 531.022C680.4 525.717 680.48 523.627 681.444 520.251C684.338 510.445 694.626 503.934 710.863 501.844C716.409 501.041 729.51 501.925 730.636 503.05ZM457.913 504.015C453.814 509.4 435.488 530.941 435.006 531.022C433.88 531.022 434.363 522.582 435.649 518.724C437.176 514.142 442.32 508.194 446.66 505.944C451.242 503.693 455.341 502.246 457.511 502.166C459.36 502.086 459.36 502.086 457.913 504.015ZM432.675 503.613C434.363 504.658 433.318 506.426 428.736 510.043C421.1 516.071 414.831 516.152 410.651 510.123C409.445 508.435 408.722 506.667 408.963 506.265C409.204 505.783 412.58 505.06 416.438 504.497C420.377 504.015 424.074 503.452 424.717 503.291C427.37 502.809 431.63 502.97 432.675 503.613ZM228.193 522.823C227.389 523.707 222.968 520.251 221.843 517.84C220.477 515.026 220.155 510.847 221.12 509.802C221.682 509.239 228.675 522.26 228.193 522.823ZM253.11 518.322C252.789 519.367 252.387 520.814 252.226 521.617C251.663 523.386 249.172 524.752 247.564 524.109C245.796 523.386 245.957 522.903 249.011 519.528C252.146 516.152 253.914 515.589 253.11 518.322ZM215.976 520.814C222.004 523.788 224.415 526.119 223.29 527.887C222.406 529.334 202.151 545.249 194.836 550.232C186.155 556.18 178.68 559.958 175.545 559.958C173.295 559.958 173.134 559.717 173.134 557.225C173.134 553.286 176.751 542.114 180.207 535.523C181.815 532.468 184.95 528.048 187.12 525.556C195.399 516.473 204.321 515.026 215.976 520.814ZM247.323 519.769C245.957 522.18 244.671 522.903 244.671 521.376C244.671 520.492 247.564 517.357 248.368 517.357C248.609 517.357 248.127 518.402 247.323 519.769ZM643.747 525.797C645.274 533.031 645.998 554.251 645.194 567.594C644.551 577.802 644.471 578.043 642.622 578.284C639.889 578.686 629.199 573.22 625.662 569.523C622.126 565.906 620.036 560.52 620.036 555.215C620.036 545.409 626.466 531.906 635.951 521.296C639.487 517.357 639.648 517.277 641.095 518.724C641.898 519.528 643.104 522.743 643.747 525.797ZM173.134 527.003C171.848 529.494 165.177 533.996 161.238 535.121C156.255 536.487 148.538 535.603 142.751 533.031C136.884 530.379 134.955 528.61 137.848 528.53C138.893 528.53 145.725 527.887 153.04 527.083C160.354 526.279 168.07 525.556 170.16 525.476C173.777 525.395 173.938 525.476 173.134 527.003ZM364.434 527.003C364.434 527.485 362.987 529.414 361.138 531.424C353.743 539.461 343.535 540.989 331.398 535.764C329.228 534.799 327.46 533.835 327.46 533.513C327.46 533.192 353.743 527.967 363.871 526.279C364.193 526.279 364.434 526.601 364.434 527.003ZM294.666 528.289C300.292 529.896 305.838 534.398 307.607 538.899C311.143 547.66 310.982 555.939 307.365 555.939C304.231 555.939 281.001 551.116 270.793 548.303C259.621 545.249 250.779 541.39 249.975 539.381C249.172 537.372 250.619 536.166 257.37 533.513C272.964 527.324 285.181 525.636 294.666 528.289ZM533.871 528.45C534.514 528.932 533.388 529.575 530.495 530.379C526.315 531.504 526.074 531.504 526.797 530.137C528.003 527.967 531.62 527.083 533.871 528.45ZM722.116 528.369C722.116 529.977 716.891 537.854 713.998 540.747C709.336 545.409 704.433 547.419 697.6 547.419C694.466 547.419 691.09 546.936 690.045 546.374C688.277 545.409 689 544.847 704.513 536.648C721.312 527.726 722.116 527.405 722.116 528.369ZM540.863 531.745C541.908 533.513 533.147 538.577 530.334 537.934C528.485 537.452 525.35 533.755 526.154 532.951C527.601 531.584 540.06 530.539 540.863 531.745ZM666.414 533.996C669.549 537.452 677.104 549.267 677.104 550.795C677.104 551.357 675.577 552.081 673.567 552.322C667.057 553.367 663.199 549.91 661.671 541.792C660.787 536.648 661.27 531.022 662.797 531.022C663.199 531.022 664.887 532.388 666.414 533.996ZM225.862 538.818C225.139 541.792 223.692 545.57 222.567 547.258C219.11 552.402 211.153 556.823 203.276 557.948L199.257 558.511L212.519 545.168C220.718 536.889 226.023 532.147 226.505 532.629C226.987 533.111 226.746 535.442 225.862 538.818ZM677.184 538.818C679.676 541.471 680.721 545.168 679.676 547.981C678.953 549.75 678.631 549.267 675.577 542.757C673.809 538.818 672.281 535.442 672.281 535.282C672.281 534.558 675.255 536.648 677.184 538.818ZM558.788 538.818C560.315 539.381 557.984 540.667 543.596 547.338C534.192 551.679 526.235 555.055 525.913 554.974C524.868 554.572 528.003 548.464 530.816 545.168C535.639 539.702 542.23 537.291 550.911 537.773C554.206 537.934 557.743 538.416 558.788 538.818ZM397.951 540.104C403.337 542.918 410.41 552.563 411.455 558.511C411.937 560.922 411.776 561.485 410.49 561.806C406.873 562.932 380.107 564.137 370.221 563.735C358.968 563.253 354.708 562.449 351.975 560.44C350.448 559.315 350.448 559.154 353.181 556.341C359.691 549.509 370.382 542.837 379.706 539.702C385.091 537.934 394.093 538.095 397.951 540.104ZM657.492 544.847C659.26 548.785 659.823 551.438 660.064 556.582C660.385 562.53 660.144 563.655 658.215 567.594C656.367 571.532 650.017 578.204 649.133 577.319C648.57 576.757 653.955 539.863 654.598 539.863C654.92 539.863 656.206 542.114 657.492 544.847ZM246.278 548.303C246.278 559.154 243.143 563.414 235.588 563.012C230.283 562.691 230.283 562.048 235.507 553.447C240.009 546.052 244.269 541.069 245.474 541.873C245.876 542.114 246.278 545.088 246.278 548.303ZM584.267 546.615C585.714 547.66 585.714 547.821 583.866 550.795C571.809 570.728 553.402 581.66 541.185 576.274C534.353 573.22 524.386 562.048 526.556 559.877C526.878 559.556 533.71 557.064 541.667 554.412C565.379 546.615 580.49 543.802 584.267 546.615ZM612.4 547.66C610.23 551.116 607.818 553.527 607.095 553.045C606.693 552.804 606.371 551.598 606.371 550.312C606.371 547.821 609.185 545.57 612.319 545.49C613.766 545.49 613.766 545.57 612.4 547.66ZM232.373 553.608C229.479 560.038 228.997 560.681 228.354 558.993C227.229 555.858 228.515 551.759 231.569 548.946C233.096 547.499 234.623 546.293 235.025 546.293C235.427 546.293 234.221 549.589 232.373 553.608ZM612.4 551.84C612.159 552.322 611.114 553.126 610.149 553.608C608.461 554.492 608.461 554.412 610.31 552.402C612.159 550.393 613.525 550.071 612.4 551.84ZM329.871 552.402C335.98 556.501 340.32 562.128 340.32 566.066C340.32 570.085 334.935 576.596 333.006 574.667C331.72 573.381 326.656 556.903 326.656 554.01C326.656 550.714 327.058 550.554 329.871 552.402ZM703.95 554.412C704.191 555.778 704.031 560.36 703.548 564.539C701.137 586.724 691.492 600.388 678.39 600.388C670.192 600.388 660.225 597.092 660.225 594.359C660.225 592.752 677.506 572.416 686.428 563.494C693.662 556.341 699.771 551.92 702.503 551.92C702.986 551.92 703.629 553.045 703.95 554.412ZM288.316 558.431C298.122 559.315 306.32 560.199 306.481 560.44C306.963 560.922 304.311 562.851 300.131 564.941C297.157 566.388 295.148 566.709 289.28 566.79C282.689 566.79 281.484 566.549 276.822 564.218C273.928 562.771 270.552 560.52 269.266 559.234C266.292 556.18 264.845 556.26 288.316 558.431ZM595.52 560.922C599.941 566.147 605.809 575.873 605.246 577.239C604.925 578.123 603.639 578.445 600.745 578.445C596.003 578.445 594.234 577.721 592.386 574.828C589.492 570.407 588.849 557.546 591.502 557.546C592.064 557.546 593.913 559.074 595.52 560.922ZM676.541 561.485C669.227 572.899 657.331 590.501 656.849 590.501C655.965 590.501 655.161 583.428 655.724 579.972C656.929 572.336 661.993 566.066 670.031 561.967C677.184 558.431 678.631 558.27 676.541 561.485ZM604.442 563.575C607.497 565.906 609.104 570.166 608.381 573.783L607.818 576.355L606.13 573.22C603.317 567.594 600.745 561.565 601.308 561.565C601.549 561.565 602.996 562.449 604.442 563.575ZM331.479 575.39C331.479 575.631 330.755 575.712 329.871 575.471C326.174 574.506 322.396 567.031 323.762 563.414C324.164 562.369 325.209 563.655 327.862 568.397C329.871 571.934 331.479 575.069 331.479 575.39ZM263.881 567.754C264.845 571.291 263.399 574.426 260.746 574.426C259.38 574.426 259.219 574.024 259.621 572.175C260.344 569.282 262.193 564.78 262.675 564.78C262.916 564.78 263.479 566.147 263.881 567.754ZM411.053 566.79C411.053 567.996 403.899 574.747 401.006 576.274C398.434 577.721 396.424 578.043 390.557 578.043C384.287 578.043 382.68 577.721 378.259 575.712C375.526 574.426 373.436 573.22 373.597 573.059C373.999 572.577 406.793 566.549 409.285 566.468C410.249 566.388 411.053 566.549 411.053 566.79ZM235.749 569.201C242.259 571.452 252.306 582.062 251.744 586C251.503 587.768 248.689 588.813 231.006 593.315C212.037 598.137 196.685 599.906 193.229 597.735C191.3 596.53 194.193 591.948 202.231 583.669C214.609 570.809 226.184 565.825 235.749 569.201ZM258.415 573.059C257.37 574.104 257.21 571.371 258.174 569.04C258.656 567.835 258.817 567.996 258.978 569.925C259.139 571.211 258.897 572.577 258.415 573.059ZM624.055 571.773C626.225 576.355 627.109 584.634 625.743 587.206C624.376 589.698 620.116 592.109 616.981 592.109C614.329 592.109 614.329 592.109 614.811 589.055C616.74 577.721 619.875 567.996 621.563 567.996C621.965 567.996 623.09 569.683 624.055 571.773ZM526.797 572.014C526.797 572.416 525.592 572.818 524.225 572.818C522.216 572.818 521.894 572.577 522.778 572.014C524.386 570.969 526.797 570.969 526.797 572.014ZM368.855 574.024C373.677 576.355 382.278 585.196 381.956 587.447C381.635 589.617 375.044 592.591 355.914 598.941C340.883 604.005 329.067 606.416 325.611 605.05L323.361 604.166L325.129 600.79C329.309 592.591 338.15 582.222 345.063 577.4C353.1 571.854 361.781 570.648 368.855 574.024ZM587.884 577.239C594.636 581.74 601.951 589.376 604.121 594.279C606.613 599.825 606.452 605.291 603.639 610.114C600.825 614.856 595.601 620.241 593.752 620.241C592.707 620.241 591.18 617.749 588.367 611.158C580.088 592.43 575.587 576.998 577.435 573.622C578.48 571.613 580.49 572.336 587.884 577.239ZM531.057 574.104C532.022 575.069 527.762 577.641 525.27 577.641C522.939 577.641 520.528 575.31 521.733 574.104C522.376 573.461 530.414 573.461 531.057 574.104ZM313.313 578.284C314.197 585.357 311.867 592.993 308.089 595.003C305.597 596.289 300.372 596.449 298.604 595.404C297.72 594.842 297.961 593.797 300.131 589.939C303.507 583.83 309.455 575.471 310.741 574.988C312.67 574.185 312.751 574.426 313.313 578.284ZM421.181 578.043C425.039 580.293 428.495 584.151 429.218 586.884C429.861 589.456 428.334 593.877 426.003 596.047L424.074 597.816L420.457 591.948C415.715 584.393 412.419 577.078 412.982 575.631C413.464 574.265 415.876 574.908 421.181 578.043ZM612.962 589.055L612.239 591.707L610.873 588.974C609.185 585.679 609.506 581.338 611.676 577.962L613.204 575.712L613.445 581.017C613.605 583.991 613.364 587.608 612.962 589.055ZM299.488 586.081C297.881 589.778 296.273 592.913 296.032 592.913C294.907 592.913 294.505 588.572 295.309 586C296.193 583.508 300.212 579.248 301.739 579.248C302.141 579.248 301.096 582.303 299.488 586.081ZM274.812 586.081C280.921 592.109 287.19 601.433 289.763 608.024C292.174 614.293 292.254 622.572 289.843 627.154C286.869 633.021 276.098 641.139 271.436 641.139C269.99 641.139 269.588 640.416 268.864 636.076C266.453 621.849 265.247 609.792 265.247 598.137C265.167 584.875 265.89 580.856 268.382 580.856C269.025 580.856 271.999 583.187 274.812 586.081ZM537.166 586.322C546.49 591.466 556.457 601.031 559.833 607.783C562.083 612.364 562.324 613.57 562.003 618.553C561.762 623.697 561.44 624.662 557.743 630.047C554.126 635.272 549.544 639.532 547.535 639.532C546.731 639.532 538.934 623.456 533.951 611.56C528.485 598.378 526.235 589.778 526.717 583.83C526.878 581.499 530.012 582.222 537.166 586.322ZM418.207 592.913C422.386 598.298 422.467 599.504 418.528 597.494C414.991 595.646 413.384 593.315 412.902 589.537C412.419 585.518 412.5 585.598 418.207 592.913ZM647.927 593.234C646.882 604.005 643.185 608.667 636.031 608.024C629.681 607.381 629.601 606.738 635.549 599.102C641.336 591.787 645.114 588.09 647.123 588.09C648.168 588.09 648.329 588.894 647.927 593.234ZM251.101 595.646C248.931 600.307 243.304 605.291 238.481 606.898C234.061 608.426 224.737 608.506 220.155 607.059C216.94 606.014 216.94 606.014 218.95 605.05C223.37 603.04 252.306 591.546 252.628 591.787C252.789 591.948 252.065 593.636 251.101 595.646ZM636.674 591.868C632.896 598.7 629.36 604.085 628.797 603.683C626.546 602.317 629.44 595.404 633.298 592.913C635.79 591.305 637.237 590.823 636.674 591.868ZM383.081 594.922C382.921 596.047 381.635 598.78 380.188 601.111C375.446 608.988 366.524 612.927 355.673 611.882C350.85 611.48 349.242 610.998 350.046 610.274C350.287 610.033 383.162 592.993 383.403 592.913C383.483 592.913 383.323 593.797 383.081 594.922ZM581.776 607.943C585.554 614.695 588.688 620.402 588.688 620.643C588.688 621.527 586.116 620.965 583.142 619.437C579.123 617.428 574.703 612.284 573.577 608.265C573.015 606.577 572.613 602.558 572.613 599.263C572.613 591.868 572.613 591.868 581.776 607.943ZM418.93 603.04C423.994 604.728 430.344 610.033 432.273 614.213C434.121 618.071 434.925 630.53 433.559 633.825C432.996 635.191 432.433 636.317 432.273 636.317C431.308 636.317 413.062 628.118 404.301 623.697C387.824 615.499 378.419 608.506 380.107 605.773C380.67 604.889 387.583 602.719 393.209 601.754C399.318 600.629 414.107 601.352 418.93 603.04ZM319.985 606.255C325.772 616.303 323.521 625.064 314.921 626.43L312.188 626.913V623.296C312.188 621.286 312.751 616.463 313.394 612.605C315.323 601.674 316.689 600.388 319.985 606.255ZM260.666 621.608C263.077 631.253 265.167 639.612 265.408 640.175C265.89 641.541 263.479 640.577 260.264 638.165C252.387 632.298 249.734 620.723 253.512 609.31C254.477 606.497 255.522 604.166 255.843 604.166C256.084 604.166 258.335 612.043 260.666 621.608ZM533.871 625.627C538.854 633.584 542.873 640.336 542.873 640.577C542.873 641.3 537.648 639.773 534.353 638.085C530.334 636.076 526.315 631.574 524.225 626.913C522.537 623.054 521.412 613.65 522.296 610.194C523.019 607.461 521.814 605.934 533.871 625.627ZM310.018 625.868C309.857 626.109 308.893 625.385 308.008 624.26C306.722 622.653 306.481 621.447 306.722 618.071C306.963 615.82 307.607 613.248 308.25 612.525C309.214 611.319 309.455 611.962 309.937 618.312C310.259 622.251 310.259 625.627 310.018 625.868ZM377.857 615.097C383.805 617.991 387.743 622.653 387.743 626.591C387.743 629.565 385.091 634.629 383.323 635.272C381.715 635.754 371.668 618.232 371.668 614.775C371.668 612.525 372.793 612.525 377.857 615.097ZM519.965 621.366C520.849 623.939 519.804 626.189 517.393 626.511C515.464 626.832 513.696 624.823 514.098 622.894C514.339 621.688 514.66 621.929 515.866 623.858C516.589 625.144 516.991 625.546 516.75 624.662C516.428 623.778 515.946 621.608 515.705 619.839L515.303 616.624L517.232 617.91C518.277 618.634 519.483 620.161 519.965 621.366ZM675.898 623.376C679.435 625.144 683.454 627.556 684.74 628.681C687.071 630.61 687.071 630.69 685.624 631.896C682.65 634.147 663.118 637.121 650.419 637.121C646.721 637.121 646.56 637.04 646.56 634.87C646.56 633.664 647.766 630.53 649.213 627.877C654.277 618.473 663.038 617.026 675.898 623.376ZM376.089 630.047C378.58 633.262 380.188 635.995 379.786 636.156C378.419 636.638 374.722 634.468 373.115 632.298C371.668 630.369 370.141 624.26 371.105 624.26C371.346 624.26 373.597 626.913 376.089 630.047ZM355.351 626.993C361.942 630.047 369.739 641.22 369.096 646.605C368.855 648.695 368.533 648.775 363.228 649.418C353.1 650.624 318.699 650.544 314.439 649.258C308.571 647.57 308.169 646.525 311.867 642.667C315.805 638.567 323.28 633.182 329.067 630.288C339.918 624.742 348.278 623.697 355.351 626.993ZM409.847 633.423C417.805 635.995 425.521 638.407 427.048 638.889L429.861 639.773L428.093 641.22C425.682 643.149 418.046 644.676 413.947 644.033C408.32 643.149 402.533 639.773 397.791 634.548C393.45 629.726 392.325 627.716 394.415 628.52C394.897 628.681 401.89 630.931 409.847 633.423ZM520.769 640.898C524.145 648.052 522.859 653.437 516.991 656.331C513.776 657.858 513.535 657.938 512.972 656.572C512.008 654.161 512.249 635.513 513.213 633.664C514.178 631.976 514.258 632.057 516.83 635.031C518.277 636.638 520.045 639.371 520.769 640.898ZM629.52 634.709C635.87 637.683 643.185 644.837 648.811 653.437C654.036 661.395 656.125 666.7 654.518 667.745C652.669 668.87 649.534 668.548 642.059 666.378C629.681 662.842 598.334 648.695 598.334 646.605C598.334 643.712 608.944 634.709 614.329 633.102C618.991 631.655 624.296 632.218 629.52 634.709ZM662.958 640.818C673.407 641.3 673.407 641.3 671.397 642.827C668.584 644.998 661.27 647.007 658.054 646.525C654.437 645.882 648.168 642.184 648.168 640.657C648.168 639.693 648.731 639.532 650.419 639.853C651.624 640.095 657.251 640.496 662.958 640.818ZM509.596 648.534C510.239 651.749 510.722 655.125 510.722 655.929C510.722 657.376 510.561 657.376 508.712 655.607C507.587 654.563 506.462 652.473 506.22 650.946C505.738 648.293 507.185 641.381 508.069 642.184C508.31 642.426 508.953 645.319 509.596 648.534ZM414.348 650.383C420.296 652.392 430.344 663.806 430.344 668.468C430.344 670.558 430.263 670.638 418.93 672.728C389.351 678.194 370.06 678.756 370.06 674.014C370.06 672.406 382.76 660.109 387.904 656.733C394.334 652.473 402.774 649.258 407.516 649.177C409.285 649.177 412.419 649.74 414.348 650.383ZM614.65 662.44C622.447 667.262 628.877 671.522 628.877 671.844C628.877 672.969 618.026 672.487 613.605 671.201C604.844 668.629 598.977 662.52 597.128 654.161C596.485 650.865 595.038 650.222 614.65 662.44ZM368.453 654C368.453 655.447 363.389 660.511 359.691 662.681C356.396 664.61 355.271 664.851 348.358 664.851C341.767 664.771 340.079 664.529 335.98 662.6C333.327 661.395 331.398 660.189 331.64 660.028C332.041 659.546 364.514 653.437 367.086 653.277C367.81 653.196 368.453 653.518 368.453 654ZM588.769 665.735C596.887 670.076 606.934 681.73 611.757 692.26C612.882 694.671 613.525 697.163 613.284 697.806C612.319 700.298 603.719 698.77 590.296 693.707C581.856 690.492 556.537 678.515 556.537 677.711C556.537 674.577 563.932 667.745 571.005 664.449C576.069 662.118 582.981 662.6 588.769 665.735ZM430.344 675.541C430.344 676.908 425.601 682.775 422.869 684.865C419.091 687.759 414.027 689.366 408.722 689.366C404.221 689.366 396.103 687.518 394.656 686.151C394.254 685.749 396.665 684.704 399.88 683.74C403.176 682.695 410.892 680.364 417.081 678.515C429.299 674.818 430.344 674.577 430.344 675.541ZM629.922 678.997C633.78 681.57 638.523 686.794 638.523 688.562C638.523 689.366 637.237 689.447 633.539 689.125C628.797 688.643 615.695 685.267 614.65 684.222C613.686 683.258 616.017 679.721 618.589 678.113C622.367 675.863 625.582 676.104 629.922 678.997ZM573.416 693.466C583.544 699.735 587.724 702.709 586.679 702.95C585.795 703.111 582.178 703.03 578.561 702.87C566.263 702.227 557.662 695.475 555.331 684.624C554.769 681.811 554.769 681.811 556.617 683.016C557.662 683.74 565.218 688.402 573.416 693.466ZM621.965 689.447C627.913 691.938 628.154 692.179 626.144 692.822C622.769 693.948 618.428 692.742 615.856 690.009C613.525 687.518 612.882 685.669 614.65 686.392C615.133 686.553 618.509 688 621.965 689.447ZM550.107 690.09C550.107 692.581 533.308 706.728 531.298 706.004C529.53 705.281 528.887 698.69 530.334 695.957C531.861 693.064 533.067 692.019 536.925 690.652C540.461 689.366 550.107 688.964 550.107 690.09ZM546.329 701.182C544.802 705.442 540.622 708.657 536.684 708.657C535.237 708.657 534.031 708.335 534.031 707.934C534.031 707.371 545.365 700.137 546.651 699.815C546.731 699.815 546.651 700.458 546.329 701.182ZM541.265 714.766C550.83 716.936 569.398 727.546 569.398 730.681C569.398 731.324 567.87 732.529 566.022 733.413C559.109 736.709 541.908 738.959 520.769 739.361C507.828 739.602 507.989 739.683 510.32 732.529C515.384 716.936 525.592 711.068 541.265 714.766ZM530.977 745.229C540.381 745.952 548.178 746.595 548.339 746.837C548.499 746.997 547.213 748.042 545.525 749.167C541.989 751.659 533.469 754.472 529.691 754.472C523.502 754.472 513.696 749.73 511.525 745.631C510.481 743.621 509.114 743.702 530.977 745.229Z" fill="#33603F"/>
<path d="M340.24 244.796C338.552 246.564 337.909 247.93 337.909 250.101C337.909 259.103 351.975 260.63 353.663 251.788C354.226 248.734 352.457 244.635 350.046 243.268C346.911 241.661 342.732 242.304 340.24 244.796Z" fill="#33603F"/>
<path d="M369.819 262.398C368.131 264.247 368.051 266.096 369.739 267.703C372.15 270.195 376.49 268.427 376.49 264.97C376.49 263.041 374.401 260.952 372.552 260.952C371.748 260.952 370.542 261.595 369.819 262.398Z" fill="#33603F"/>
<path d="M262.675 354.913C260.264 355.958 257.531 359.656 257.531 361.987C257.531 363.032 258.094 364.961 258.737 366.247C262.273 373.079 272.321 371.069 273.365 363.353C273.687 360.54 273.446 359.656 271.517 357.485C269.025 354.833 265.408 353.788 262.675 354.913Z" fill="#33603F"/>
<path d="M684.258 398.317C680.078 402.497 681.605 409.41 687.151 411.258C692.617 413.027 697.601 409.57 697.601 403.863C697.601 401.211 697.118 400.246 694.948 398.317C691.411 395.102 687.473 395.102 684.258 398.317Z" fill="#33603F"/>
<path d="M429.138 406.516C424.155 409.41 423.19 415.438 427.048 419.377C431.308 423.637 438.14 422.029 439.989 416.403C441.034 413.268 440.15 409.972 437.578 407.642C435.729 405.954 431.147 405.391 429.138 406.516Z" fill="#33603F"/>
<path d="M183.101 400.407C182.78 401.131 182.94 402.095 183.423 402.578C184.628 403.783 186.959 402.658 186.638 401.05C186.316 399.202 183.744 398.719 183.101 400.407Z" fill="#33603F"/>
<path d="M412.178 434.166C411.857 434.889 412.018 435.854 412.5 436.336C413.705 437.542 416.036 436.417 415.715 434.809C415.393 432.96 412.821 432.478 412.178 434.166Z" fill="#33603F"/>
<path d="M669.87 437.703C668.584 440.194 668.906 441.641 671.076 443.088C672.924 444.294 673.246 444.294 675.095 443.088C678.551 440.837 677.184 436.175 673.085 436.175C671.558 436.175 670.433 436.738 669.87 437.703Z" fill="#33603F"/>
<path d="M432.112 450.804C431.067 451.849 430.826 454.582 431.791 455.949C433.478 458.44 437.819 457.717 438.623 454.743C439.507 451.206 434.604 448.313 432.112 450.804Z" fill="#33603F"/>
<path d="M654.598 451.447C654.598 452.492 655.161 453.055 656.206 453.055C657.251 453.055 657.813 452.492 657.813 451.447C657.813 450.402 657.251 449.84 656.206 449.84C655.161 449.84 654.598 450.402 654.598 451.447Z" fill="#33603F"/>
<path d="M662.234 461.816C661.511 463.102 662.475 464.308 664.324 464.308C665.449 464.308 665.851 463.826 665.69 462.941C665.369 461.334 663.038 460.61 662.234 461.816Z" fill="#33603F"/>
<path d="M603.88 510.847C600.825 513.981 600.745 517.84 603.638 521.296C605.326 523.386 606.291 523.788 609.185 523.788C615.615 523.788 619.312 518.161 616.499 512.695C613.927 507.792 607.818 506.908 603.88 510.847Z" fill="#33603F"/>
</g>
<defs>
<clipPath id="clip0_116_18">
<rect width="900" height="900" fill="white"/>
</clipPath>
</defs>
</svg>
