<svg width="100" height="52" viewBox="0 0 100 52" fill="none" xmlns="http://www.w3.org/2000/svg">
<path d="M4.09679 25.6838V49.2193H10.5445H16.9923L17.2865 49.5073L17.5807 49.8015L17.9361 49.446L18.2855 49.0967L17.9361 48.7473L17.5807 48.3918L17.2865 48.686L16.9923 48.9741H10.6671H4.34195V25.6838V2.39345H21.2581H38.1742V25.6838V48.9741L31.4813 48.9864C25.1561 49.0047 24.7823 49.0109 24.7639 49.1089C24.7455 49.2131 25.101 49.2193 31.5794 49.2193H38.4194V25.6838V2.14829H21.2581H4.09679V25.6838Z" fill="white"/>
<path d="M25.5116 11.2622C25.4871 11.3234 25.4565 11.8628 25.4381 12.4573C25.4074 13.7015 25.3952 13.6709 25.9223 13.3889C26.4065 13.1254 26.5229 12.6964 26.2839 12.0651C26.1368 11.6851 25.769 11.158 25.6465 11.158C25.5974 11.158 25.5423 11.207 25.5116 11.2622Z" fill="white"/>
<path d="M23.201 11.2621C23.0723 11.3908 23.3481 13.395 23.5197 13.5667C23.5871 13.6341 23.8752 13.487 24.059 13.2908C24.2552 13.0825 24.3349 12.8189 24.292 12.5554C24.2368 12.255 23.8507 11.6728 23.532 11.4154C23.2684 11.2008 23.2623 11.2008 23.201 11.2621Z" fill="white"/>
<path d="M20.2774 11.8138C20.2774 12.0283 21.1294 13.3031 21.491 13.6341C21.6013 13.726 21.6197 13.726 21.7055 13.6463C21.7545 13.5912 21.8465 13.4257 21.9016 13.2786C22.0365 12.9231 21.9874 12.6351 21.7423 12.3531C21.5216 12.108 20.9087 11.7892 20.541 11.7341C20.3081 11.6973 20.2774 11.7096 20.2774 11.8138Z" fill="white"/>
<path d="M24.911 12.2612C24.7761 12.5983 24.7884 12.9048 24.9478 13.1867C25.0887 13.4441 25.242 13.5422 25.242 13.3767C25.2358 13.1989 25.0642 12.0651 25.0397 12.0406C25.0213 12.0222 24.9661 12.1202 24.911 12.2612Z" fill="white"/>
<path d="M22.7658 12.2918C22.6984 12.4757 22.729 13.0028 22.821 13.1805C22.9068 13.3521 23.1887 13.6096 23.2868 13.6096C23.3236 13.6096 22.8823 12.2734 22.8271 12.2121C22.8149 12.206 22.7903 12.2367 22.7658 12.2918Z" fill="white"/>
<path d="M16.0484 12.7147C16.0484 13.0947 16.6797 14.8354 16.8207 14.8354C16.9003 14.8354 17.2374 14.486 17.3294 14.3022C17.5194 13.9344 17.3355 13.4135 16.8636 12.9967C16.6061 12.776 16.1832 12.5064 16.079 12.5064C16.0607 12.5064 16.0484 12.5983 16.0484 12.7147Z" fill="white"/>
<path d="M20.3387 12.8435C20.3387 12.9109 20.4061 13.1131 20.4919 13.2909C20.6145 13.5544 20.6881 13.6341 20.9026 13.7322C21.1784 13.8547 21.3807 13.8915 21.3807 13.8057C21.3807 13.7812 21.1478 13.5299 20.8597 13.2418C20.4736 12.8618 20.3387 12.7576 20.3387 12.8435Z" fill="white"/>
<path d="M14.6142 13.1254C14.4303 13.2664 14.3936 13.4073 14.5652 13.3093C14.6203 13.2725 14.7368 13.1928 14.8226 13.1254C14.939 13.0335 14.9513 12.9967 14.8778 12.9967C14.8226 12.9967 14.7061 13.0519 14.6142 13.1254Z" fill="white"/>
<path d="M53.65 13.1499C53.4539 13.3399 53.4478 13.5483 53.6255 13.5483C53.699 13.5483 53.791 13.5054 53.8339 13.4502C53.9013 13.3521 53.9258 13.3521 54.1832 13.4563C54.4284 13.5483 54.4897 13.5483 54.6368 13.4747C54.7287 13.4318 54.8452 13.3031 54.8881 13.1928C54.9678 13.0028 54.9616 12.9967 54.8084 12.9967C54.7226 12.9967 54.6123 13.0396 54.5632 13.0886C54.4774 13.1683 54.4468 13.1683 54.2936 13.0886C54.0361 12.9538 53.8216 12.9783 53.65 13.1499Z" fill="white"/>
<path d="M14.8716 13.248C14.6755 13.346 14.5161 13.4563 14.5161 13.487C14.5161 13.5912 14.7981 13.6893 14.9636 13.6463C15.1107 13.6096 15.3742 13.2786 15.3742 13.1254C15.3742 13.0212 15.2516 13.0457 14.8716 13.248Z" fill="white"/>
<path d="M27.7732 13.1989C27.4852 13.3522 26.6455 14.0018 26.382 14.2776C26.2839 14.3757 26.2226 14.4983 26.241 14.5473C26.2778 14.6515 26.7803 14.8354 27.0132 14.8354C27.2278 14.8354 27.522 14.6454 27.7181 14.388C27.9939 14.0264 28.2513 13.1315 28.092 13.0825C28.0613 13.0702 27.9142 13.1254 27.7732 13.1989Z" fill="white"/>
<path d="M66.3677 13.487C66.3677 13.7199 66.3555 13.9161 66.3432 13.9161C66.3248 13.9161 66.2145 13.8548 66.0919 13.7873C65.8345 13.6341 65.4606 13.6525 65.2155 13.8364C64.6823 14.2348 64.7129 15.3257 65.2645 15.6506C65.5097 15.7977 65.9694 15.7854 66.19 15.6261L66.3677 15.5035V15.6261C66.3677 15.7364 66.4045 15.7548 66.6742 15.7548H66.9806V14.4064V13.058H66.6742H66.3677V13.487ZM66.1655 14.3144C66.4536 14.5167 66.3861 15.0315 66.049 15.1909C65.6016 15.4054 65.2339 14.7373 65.6016 14.3757C65.7732 14.2041 65.9755 14.1796 66.1655 14.3144Z" fill="white"/>
<path d="M26.6823 13.297C26.5413 13.3583 26.3636 13.4931 26.2716 13.5973C26.1245 13.775 25.9897 14.1979 26.0632 14.2654C26.0939 14.3021 26.9397 13.4257 27.0378 13.2663C27.1052 13.1499 26.9826 13.1621 26.6823 13.297Z" fill="white"/>
<path d="M51.7807 13.4564C51.7807 13.6893 51.7623 13.7322 51.6581 13.7322C51.5539 13.7322 51.5355 13.7751 51.5355 13.9773C51.5355 14.1796 51.5539 14.2225 51.6581 14.2225C51.7684 14.2225 51.7807 14.2654 51.7807 14.7067C51.7807 14.9702 51.8113 15.2767 51.8481 15.387C51.9339 15.6199 52.1974 15.7548 52.5774 15.7548H52.8226V15.4851C52.8226 15.2215 52.8165 15.2093 52.6265 15.1909L52.4242 15.1725L52.4058 14.6944L52.3874 14.2225H52.6081C52.8165 14.2225 52.8226 14.2164 52.8226 13.9835C52.8226 13.7567 52.8103 13.7383 52.6265 13.7199C52.4365 13.7015 52.4242 13.6831 52.4058 13.438L52.3874 13.1806H52.081H51.7807V13.4564Z" fill="white"/>
<path d="M24.5065 13.3889C24.5065 13.5053 24.7639 14.0386 24.8129 14.0386C24.8374 14.0386 24.8803 13.9773 24.9171 13.8976C25.0029 13.7076 24.9171 13.5115 24.6965 13.395C24.531 13.3092 24.5065 13.3092 24.5065 13.3889Z" fill="white"/>
<path d="M14.0932 13.5667C14.0626 13.6464 14.0197 13.867 13.9952 14.057C13.9461 14.4432 14.0013 14.4922 14.2587 14.3083C14.4242 14.198 14.4426 13.8793 14.3016 13.6096C14.1852 13.389 14.1607 13.3828 14.0932 13.5667Z" fill="white"/>
<path d="M22.2755 13.5238C22.1897 13.7444 22.2939 15.0192 22.4532 15.675C22.4961 15.8589 22.6432 15.8528 22.9313 15.6628C23.3665 15.3625 23.4461 14.9702 23.1826 14.4063C23.0477 14.1121 22.4655 13.4257 22.3552 13.4257C22.3307 13.4257 22.2939 13.4686 22.2755 13.5238Z" fill="white"/>
<path d="M18.4878 13.5912C18.261 13.8486 17.5255 15.5954 17.6052 15.6812C17.6787 15.7547 18.2855 15.6873 18.4571 15.5831C18.7758 15.3993 18.8984 15.1173 18.8923 14.5902C18.8923 14.1489 18.7329 13.487 18.6287 13.487C18.6042 13.487 18.5368 13.536 18.4878 13.5912Z" fill="white"/>
<path d="M19.6278 13.6402C19.5726 13.726 19.4807 13.7935 19.4255 13.7935C19.2539 13.7935 19.1742 13.916 19.2539 14.0447C19.309 14.1306 19.2968 14.1796 19.2171 14.2715C19.0945 14.4064 19.1313 14.5657 19.3029 14.6086C19.3765 14.627 19.4194 14.6944 19.4194 14.7925C19.4194 14.958 19.5358 15.0377 19.6645 14.958C19.7197 14.9273 19.8178 14.9457 19.9281 15.007C20.069 15.0867 20.1181 15.0928 20.1365 15.0315C20.1855 14.8967 20.351 14.768 20.4368 14.7986C20.5471 14.8415 20.6636 14.6331 20.5778 14.5473C20.5103 14.4799 20.5655 14.2838 20.6513 14.2838C20.7678 14.2838 20.7003 14.0999 20.5532 14.0018C20.4674 13.9467 20.4 13.8547 20.4 13.7996C20.4 13.628 20.2774 13.5483 20.1487 13.628C20.0629 13.6831 20.0139 13.677 19.9219 13.5912C19.7749 13.4564 19.7442 13.4564 19.6278 13.6402ZM20.0997 14.0386C20.2345 14.1122 20.259 14.4002 20.1426 14.5167C20.0997 14.5596 19.9955 14.5902 19.9097 14.5902C19.7074 14.5902 19.6032 14.486 19.6032 14.2715C19.6032 14.0264 19.8484 13.9099 20.0997 14.0386Z" fill="white"/>
<path d="M15.8032 13.8548C15.8032 14.3144 16.0484 14.7006 16.4284 14.8293L16.6061 14.8906L16.3794 14.4799C16.2568 14.2531 16.0974 13.9651 16.03 13.8364C15.8645 13.5422 15.8032 13.5483 15.8032 13.8548Z" fill="white"/>
<path d="M25.3216 13.6831C25.3829 13.8547 25.6587 15.7179 25.7629 16.6434C25.8794 17.7528 25.9774 19.095 25.9774 19.6773V20.137L25.8242 19.8796C25.6465 19.5915 25.2542 19.3096 24.7639 19.1257C24.3655 18.9725 24.2797 19.0215 24.3777 19.3218C24.4636 19.5792 24.8558 20.2596 25.2174 20.756C25.5361 21.2096 25.6158 21.2096 25.8365 20.756L25.9897 20.4434L25.9529 21.6079C25.8916 23.8205 25.4871 25.6409 24.8313 26.7441C24.7148 26.9402 24.5984 27.0934 24.5739 27.0812C24.5494 27.0689 24.2981 26.8115 24.0161 26.5112C22.5636 24.9605 21.2765 24.035 20.4306 23.9309L20.1242 23.8941L20.6452 24.3721C23.2132 26.7134 23.771 27.6696 23.6913 29.5696C23.6361 30.8015 23.2377 32.2479 22.2265 34.8467C21.4358 36.8754 21.0497 38.2176 20.4858 40.8838C19.7994 44.1444 19.3642 47.7054 19.5052 48.8699L19.5481 49.2192H21.5155H23.4768L23.44 48.8638C23.2806 47.356 23.2316 44.0586 23.3419 42.5079C23.6361 38.475 24.5984 35.3615 26.2655 33.0202C26.719 32.3828 27.7732 31.2918 28.3984 30.8015C29.7345 29.7596 31.4077 29.0241 33.3323 28.6257C34.27 28.4296 34.2639 28.4173 33.271 28.5031C30.4148 28.7544 27.7365 29.735 26.2532 31.0773C26.0632 31.2489 25.8977 31.3838 25.8855 31.3715C25.8794 31.3592 25.9774 30.9363 26.1 30.4276C26.3452 29.4409 26.5903 28.0925 26.7436 26.8789C27.2768 22.6192 27.0806 17.8938 26.2777 15.4299C26.0755 14.8047 25.6036 13.8609 25.4136 13.6954C25.2971 13.5912 25.2848 13.5912 25.3216 13.6831Z" fill="white"/>
<path d="M24.4452 13.7689C24.4452 13.8425 24.4881 13.9344 24.5371 13.9773C24.6842 14.0999 24.6965 14.0202 24.5678 13.8241C24.4574 13.6586 24.4452 13.6525 24.4452 13.7689Z" fill="white"/>
<path d="M45.8968 13.7383C45.5106 13.8915 45.2839 14.2593 45.2839 14.7251C45.2839 15.3809 45.6455 15.7548 46.2829 15.7548C46.7058 15.7548 47.0123 15.6015 47.1532 15.3257C47.2942 15.0561 47.2697 15.0193 46.9387 15.0193C46.7119 15.0193 46.6016 15.0499 46.5097 15.1419C46.4423 15.2093 46.3442 15.2644 46.2952 15.2644C46.1297 15.2644 45.8968 14.9764 45.8968 14.7741C45.8968 14.3022 46.2768 14.0509 46.5403 14.3451C46.6997 14.5228 47.2452 14.5228 47.2452 14.3512C47.2452 14.1857 46.951 13.8548 46.7119 13.7567C46.4852 13.6586 46.1174 13.6525 45.8968 13.7383Z" fill="white"/>
<path d="M47.9807 13.8057C47.6742 14.0141 47.5394 14.2409 47.5026 14.5841C47.4658 14.9764 47.6129 15.387 47.8642 15.6015C48.1094 15.8038 48.6181 15.8222 48.8632 15.626L49.0226 15.5035V15.626C49.0226 15.7364 49.0594 15.7548 49.329 15.7548H49.6355V14.7435V13.7322H49.329C49.0961 13.7322 49.0226 13.7567 49.0226 13.8241C49.0226 13.8977 48.9858 13.8977 48.7958 13.7935C48.4955 13.6341 48.2319 13.6402 47.9807 13.8057ZM48.8694 14.3757C49.1697 14.6699 48.9981 15.2215 48.6058 15.2215C48.2503 15.2215 48.0481 14.9089 48.1645 14.5535C48.281 14.198 48.6119 14.1122 48.8694 14.3757Z" fill="white"/>
<path d="M51.0697 13.7567C50.9594 13.8057 50.8429 13.8915 50.8061 13.959C50.751 14.057 50.7448 14.0509 50.7387 13.8977C50.7387 13.7383 50.7265 13.7322 50.4323 13.7322H50.1258V14.7435V15.7548H50.4323H50.7387V15.1725C50.7387 14.5106 50.8245 14.3451 51.1678 14.3451C51.3516 14.3451 51.3516 14.339 51.3516 14.008C51.3516 13.8241 51.3332 13.6709 51.3087 13.6709C51.2781 13.677 51.1739 13.7138 51.0697 13.7567Z" fill="white"/>
<path d="M53.5581 13.7812C53.2577 13.9467 53.0677 14.296 53.0677 14.7005C53.0677 15.1051 53.1781 15.3747 53.4294 15.5893C53.6868 15.8038 54.1894 15.8222 54.4407 15.626L54.6 15.5034V15.626C54.6 15.7364 54.6368 15.7547 54.9065 15.7547H55.2129V14.7434V13.7322H54.9065C54.6307 13.7322 54.6 13.7444 54.6 13.867V13.9957L54.4529 13.8609C54.2445 13.6647 53.84 13.628 53.5581 13.7812ZM54.4468 14.3757C54.8145 14.7434 54.4223 15.4054 53.9565 15.1909C53.6561 15.056 53.6071 14.5105 53.8829 14.3144C54.0729 14.1796 54.2752 14.2041 54.4468 14.3757Z" fill="white"/>
<path d="M56.2242 13.7444C55.8013 13.8915 55.5807 14.2409 55.5807 14.7557C55.5807 15.4054 55.9361 15.7548 56.5919 15.7548C57.309 15.7548 57.689 15.3686 57.6461 14.6699C57.6216 14.2102 57.499 14.008 57.1129 13.8057C56.8249 13.6648 56.5245 13.6402 56.2242 13.7444ZM56.9229 14.3819C57.1436 14.6638 57.0639 15.0744 56.7574 15.197C56.4449 15.3257 56.1936 15.1112 56.1936 14.7067C56.1936 14.2715 56.6716 14.0631 56.9229 14.3819Z" fill="white"/>
<path d="M61.5258 13.8057C61.1519 14.0019 61.0171 14.2102 60.9865 14.6331C60.9436 15.3257 61.3419 15.7548 62.0223 15.7548C62.4206 15.7548 62.7026 15.6015 62.8926 15.2767L63.009 15.0806H62.6719C62.4513 15.0806 62.3103 15.1112 62.2613 15.1725C62.1019 15.3625 61.5871 15.197 61.5871 14.958C61.5871 14.9212 61.8629 14.8967 62.2858 14.8967C63.0703 14.8967 63.0703 14.8967 62.9906 14.4554C62.9355 14.1306 62.7761 13.9222 62.4881 13.7873C62.1448 13.6341 61.8568 13.6402 61.5258 13.8057ZM62.249 14.2593C62.5065 14.437 62.4206 14.529 61.9855 14.529C61.6055 14.529 61.5871 14.5228 61.6484 14.4064C61.7771 14.1612 62.0284 14.0999 62.249 14.2593Z" fill="white"/>
<path d="M64.3758 13.7322C64.3023 13.7567 64.2103 13.8241 64.1674 13.8793C64.0571 14.0141 63.9774 14.0019 63.9774 13.8548C63.9774 13.7506 63.9345 13.7322 63.671 13.7322H63.3645V14.7435V15.7548H63.671H63.9774V15.2277C63.9774 14.5228 64.0755 14.3451 64.4555 14.3451H64.6516V14.008C64.6516 13.6586 64.621 13.628 64.3758 13.7322Z" fill="white"/>
<path d="M67.8632 13.7812C67.1768 14.106 67.1216 15.1786 67.7774 15.6138C68.0226 15.7854 68.5436 15.8038 68.8561 15.6567C69.0339 15.5709 69.3097 15.246 69.3097 15.1173C69.3097 15.0315 68.6478 15.0806 68.5742 15.1725C68.4148 15.3625 67.9613 15.2277 67.9613 14.9825C67.9613 14.9151 68.0961 14.8967 68.6661 14.8967H69.371V14.6944C69.371 14.437 69.1442 13.9896 68.9297 13.8302C68.6907 13.6586 68.1819 13.6341 67.8632 13.7812ZM68.5619 14.2593C68.8132 14.437 68.7336 14.5289 68.329 14.5289C68.0471 14.5289 67.9613 14.5106 67.9613 14.4431C67.9613 14.3389 68.1942 14.1612 68.329 14.1612C68.3842 14.1612 68.4884 14.2041 68.5619 14.2593Z" fill="white"/>
<path d="M58.6452 13.7812C58.6452 13.8057 58.7984 14.247 58.9823 14.768C59.1661 15.289 59.3194 15.7241 59.3194 15.7364C59.3194 15.7425 59.4971 15.7548 59.7116 15.7548H60.1039L60.4471 14.7864C60.6371 14.2593 60.7903 13.8057 60.7903 13.7751C60.7903 13.6954 60.1161 13.7261 60.1161 13.8057C60.1161 13.8486 60.0242 14.1735 59.9139 14.529L59.7116 15.1725L59.5032 14.4493L59.2887 13.7322H58.97C58.7923 13.7322 58.6452 13.7506 58.6452 13.7812Z" fill="white"/>
<path d="M13.7868 13.9099C13.7194 14.0264 13.7194 14.0815 13.7868 14.2164L13.8665 14.3757L13.891 14.2041C13.9032 14.1122 13.9032 13.9773 13.891 13.8977L13.8726 13.7628L13.7868 13.9099Z" fill="white"/>
<path d="M17.5684 14.2654C17.3845 14.4554 17.2129 14.8231 17.2129 15.0192C17.2129 15.0867 17.2558 15.246 17.311 15.3747L17.4091 15.6015L17.5868 14.9273C17.7952 14.1244 17.7952 14.0263 17.5684 14.2654Z" fill="white"/>
<path d="M24.6045 14.2899C24.6229 14.3267 24.77 14.4431 24.9294 14.5412C25.1868 14.7128 25.1561 14.7434 24.8436 14.6147C24.7332 14.5718 24.7271 14.5779 24.8068 14.676C24.8619 14.7373 24.96 14.7741 25.0519 14.7618C25.1745 14.7496 25.2174 14.7067 25.2297 14.5718C25.2419 14.4737 25.2174 14.3573 25.1745 14.3083C25.0887 14.2041 24.5371 14.1857 24.6045 14.2899Z" fill="white"/>
<path d="M14.6019 14.4247C14.51 14.5044 14.4487 14.6025 14.461 14.6454C14.4794 14.6883 14.5713 14.6331 14.7 14.4983C14.9329 14.2593 14.8594 14.2041 14.6019 14.4247Z" fill="white"/>
<path d="M14.9023 14.4983C14.5345 14.7435 14.4671 14.8293 14.5836 14.9028C14.7613 15.0131 14.9942 14.958 15.1536 14.768C15.2394 14.6638 15.3129 14.5596 15.3129 14.5289C15.3129 14.4983 15.3313 14.437 15.3497 14.3818C15.411 14.2225 15.2455 14.2654 14.9023 14.4983Z" fill="white"/>
<path d="M21.8465 14.4615C21.7361 14.6331 21.7361 15.1541 21.8403 15.387C21.9445 15.6138 22.2142 15.8651 22.2755 15.7976C22.3061 15.7731 21.9507 14.4676 21.9016 14.4186C21.8894 14.4063 21.8649 14.4247 21.8465 14.4615Z" fill="white"/>
<path d="M20.7923 14.578C20.6574 14.6944 20.541 15.0192 20.639 15.0192C20.6697 15.0192 20.7065 15.0622 20.7187 15.1173C20.7371 15.2276 21.1355 15.3073 21.1355 15.2031C21.1355 15.1663 21.1723 15.1418 21.2213 15.1418C21.35 15.1418 21.3807 14.8354 21.2703 14.6699C21.2213 14.5902 21.1478 14.5351 21.1049 14.5534C21.062 14.5657 21.0068 14.5596 20.9761 14.5289C20.9455 14.4983 20.8658 14.5228 20.7923 14.578ZM21.1049 14.866C21.1049 14.9457 21.0558 14.9947 20.97 15.007C20.8658 15.0254 20.829 14.9947 20.829 14.9089C20.829 14.8476 20.8474 14.7741 20.872 14.7496C20.9516 14.6699 21.1049 14.7434 21.1049 14.866Z" fill="white"/>
<path d="M13.37 14.6638C13.1678 14.8905 12.9349 15.2951 12.6836 15.8651C12.3036 16.7293 12.2974 16.6741 12.751 16.6741C13.4742 16.6741 13.7439 16.3493 13.7439 15.4789C13.7439 15.0131 13.6397 14.5289 13.5416 14.5289C13.5171 14.5289 13.4374 14.5902 13.37 14.6638Z" fill="white"/>
<path d="M23.6545 14.7618C23.5381 14.7863 23.4339 14.8354 23.4216 14.8722C23.3849 14.9886 23.9794 15.4789 24.6413 15.8712C24.9845 16.0796 25.2849 16.2451 25.3155 16.2451C25.4136 16.2451 25.4994 15.908 25.4687 15.6138C25.4381 15.2583 25.1807 14.9518 24.819 14.8415C24.5126 14.7496 23.9181 14.7128 23.6545 14.7618Z" fill="white"/>
<path d="M28.2329 15.0744C27.7119 15.4299 26.9948 16.0428 26.9703 16.1654C26.9397 16.288 27.43 16.4902 27.7732 16.4902C28.0368 16.4902 28.0919 16.4657 28.331 16.2267C28.6068 15.9509 28.8213 15.4851 28.8948 15.0193C28.9316 14.7986 28.9194 14.7741 28.809 14.7741C28.7416 14.7741 28.4842 14.9089 28.2329 15.0744Z" fill="white"/>
<path d="M27.4178 14.9825C27.1052 15.1173 26.8355 15.479 26.8355 15.7486V15.9877L27.2523 15.5464C27.8223 14.9457 27.859 14.8967 27.7181 14.8967C27.6507 14.9028 27.5158 14.9396 27.4178 14.9825Z" fill="white"/>
<path d="M12.3894 15.2767C12.2852 15.387 12.1687 15.5403 12.1319 15.6138C12.04 15.7977 12.0461 16.2573 12.1503 16.3983C12.23 16.5086 12.2423 16.5025 12.3036 16.2757C12.3403 16.1409 12.4384 15.8161 12.5181 15.5525C12.6039 15.2951 12.6468 15.0806 12.6223 15.0806C12.5978 15.0806 12.4936 15.1725 12.3894 15.2767Z" fill="white"/>
<path d="M15.2945 15.4483C15.1107 15.6506 14.7981 16.0551 14.6019 16.3431C14.2587 16.8457 14.2465 16.8702 14.3629 16.956C14.5468 17.0909 15.1658 17.0664 15.3742 16.9193C15.6623 16.7109 15.8155 16.3064 15.8523 15.6567C15.8829 15.1051 15.8768 15.0806 15.7542 15.0806C15.6807 15.0806 15.4968 15.2276 15.2945 15.4483Z" fill="white"/>
<path d="M16.5387 15.6567C16.5387 16.245 16.8574 17.6547 16.9861 17.6547C17.0965 17.6547 17.4642 17.3421 17.5868 17.1399C17.7952 16.7967 17.6848 16.337 17.2681 15.8221C17.0903 15.5954 16.6797 15.2644 16.5816 15.2644C16.5571 15.2644 16.5387 15.4421 16.5387 15.6567Z" fill="white"/>
<path d="M30.9052 15.5648C30.4823 15.7609 30.0594 16.1164 29.9245 16.3738C29.7958 16.6251 29.8203 16.8948 29.9981 17.2318C30.182 17.5689 30.3107 17.6425 30.4271 17.4893C30.5681 17.2993 31.089 16.3554 31.23 16.0367C31.3649 15.7302 31.4139 15.387 31.3281 15.387C31.2974 15.387 31.1074 15.4667 30.9052 15.5648Z" fill="white"/>
<path d="M14.5407 15.5647C14.2832 15.7179 14.0994 15.9692 14.0503 16.2205C14.0074 16.4534 14.0687 16.7783 14.1423 16.6986C14.2465 16.576 14.8226 15.4483 14.7797 15.4483C14.7552 15.4483 14.6449 15.5034 14.5407 15.5647Z" fill="white"/>
<path d="M19.1558 15.4912C19.119 15.5525 19.2661 16.3615 19.3274 16.4167C19.3948 16.4902 19.6216 16.1899 19.6216 16.0306C19.6216 15.8528 19.2171 15.387 19.1558 15.4912Z" fill="white"/>
<path d="M20.7187 15.8896C20.5103 16.0367 20.3387 16.1715 20.3387 16.1899C20.3387 16.2144 20.4184 16.2634 20.5226 16.3063C20.6758 16.3676 20.731 16.3676 20.8658 16.2757C21.0681 16.1409 21.2949 15.6322 21.1478 15.6322C21.1232 15.6322 20.9271 15.7486 20.7187 15.8896Z" fill="white"/>
<path d="M20.4858 15.7424C20.3939 15.8037 20.2652 16.0612 20.3265 16.0612C20.351 16.0612 20.4552 15.9754 20.5532 15.8773C20.7126 15.7057 20.6697 15.6199 20.4858 15.7424Z" fill="white"/>
<path d="M18.2242 16.1409C17.9055 16.4534 17.8748 16.5086 17.9668 16.5576C18.2794 16.7354 18.6532 16.4044 18.6103 15.9876L18.5919 15.7854L18.2242 16.1409Z" fill="white"/>
<path d="M23.8323 15.8344C23.8323 15.9018 24.1632 16.288 24.3042 16.3799C24.4819 16.4963 25.0826 16.5392 25.1439 16.4351C25.1623 16.4044 24.8926 16.2573 24.5432 16.098C23.9426 15.8344 23.8323 15.7915 23.8323 15.8344Z" fill="white"/>
<path d="M18.9903 16.0367C18.9903 16.2144 19.0884 16.429 19.1742 16.429C19.2048 16.429 19.1865 16.3064 19.1313 16.1531C19.0271 15.8406 18.9903 15.8099 18.9903 16.0367Z" fill="white"/>
<path d="M17.9484 16.0612C17.8442 16.1654 17.7707 16.429 17.8503 16.429C17.8626 16.429 17.9423 16.3186 18.0342 16.1838C18.2058 15.9264 18.1568 15.8528 17.9484 16.0612Z" fill="white"/>
<path d="M22.729 16.0673C22.4532 16.2389 21.3194 17.3789 21.3194 17.4892C21.3194 17.5996 21.5707 17.7099 21.9016 17.7589C22.5268 17.8386 22.9865 17.2686 23.1336 16.2267C23.1703 15.9692 23.1581 15.9386 23.06 15.9386C22.9926 15.9386 22.8455 15.9999 22.729 16.0673Z" fill="white"/>
<path d="M21.6994 16.2512C21.5584 16.3247 21.3807 16.4657 21.3132 16.5638C21.1784 16.7538 21.0742 17.287 21.1723 17.287C21.2274 17.287 22.0548 16.2205 22.0548 16.1531C22.0548 16.098 21.9629 16.1225 21.6994 16.2512Z" fill="white"/>
<path d="M16.1465 16.3799C16.0852 16.6189 16.1036 16.9744 16.1955 17.1889C16.2752 17.3789 16.6368 17.7037 16.6981 17.6363C16.7226 17.6118 16.2629 16.3186 16.2077 16.2634C16.1955 16.2512 16.171 16.3063 16.1465 16.3799Z" fill="white"/>
<path d="M26.9948 16.4106C26.9703 16.4412 26.9213 16.4596 26.8845 16.4596C26.8477 16.4596 26.811 16.5086 26.7987 16.5638C26.7803 16.7231 27.001 16.7047 27.05 16.5454C27.0929 16.4106 27.0684 16.3431 26.9948 16.4106Z" fill="white"/>
<path d="M11.3903 16.7292C11.0655 17.0725 10.2932 18.1451 10.2871 18.2431C10.2871 18.3351 10.4158 18.3841 10.7958 18.427C11.0655 18.4576 11.1452 18.4392 11.329 18.3167C11.6723 18.0899 11.8439 17.6731 11.8684 16.9989C11.8929 16.478 11.8868 16.4289 11.7826 16.4289C11.7213 16.4289 11.5436 16.5638 11.3903 16.7292Z" fill="white"/>
<path d="M19.8913 16.4718C19.8116 16.5454 19.8484 17.5321 19.9465 18.1818C20.0629 18.9112 20.0936 18.9357 20.5103 18.6354C20.8229 18.4147 20.9026 18.2676 20.9026 17.9305C20.9026 17.5567 20.7065 17.1583 20.3326 16.766C20.0139 16.4289 19.9649 16.3921 19.8913 16.4718Z" fill="white"/>
<path d="M30.9603 17.0725C30.5742 17.5812 30.5374 17.6547 30.6539 17.6547C31.0278 17.6547 31.4568 17.1215 31.42 16.6986L31.4016 16.4902L30.9603 17.0725Z" fill="white"/>
<path d="M19.45 16.6802C19.4561 16.7599 19.5052 16.8212 19.5665 16.8334C19.64 16.8457 19.6645 16.8151 19.6523 16.717C19.6277 16.5331 19.4377 16.5025 19.45 16.6802Z" fill="white"/>
<path d="M28.4781 16.9744C27.9939 17.3054 27.2032 17.9979 27.2032 18.0899C27.2032 18.2002 27.7181 18.3902 28.0123 18.3902C28.2636 18.3902 28.3432 18.3596 28.5455 18.1757C28.809 17.9366 29.0849 17.3789 29.14 16.956C29.1768 16.6986 29.1707 16.6741 29.0542 16.6741C28.9868 16.6741 28.7294 16.8089 28.4781 16.9744Z" fill="white"/>
<path d="M10.4894 16.9744C10.1216 17.2441 9.95614 17.6915 10.0971 18.0408C10.1278 18.1328 10.2136 18.0102 10.471 17.5199C10.6549 17.1766 10.8203 16.8702 10.8265 16.8457C10.8694 16.7476 10.7284 16.8028 10.4894 16.9744Z" fill="white"/>
<path d="M27.6936 16.8641C27.4974 16.9438 27.2768 17.1521 27.1665 17.3605C27.0745 17.5321 27.05 17.8631 27.1297 17.8263C27.2032 17.7957 28.0613 16.8825 28.0613 16.8396C28.0613 16.7783 27.8713 16.7905 27.6936 16.8641Z" fill="white"/>
<path d="M18.359 17.0296C18.1445 17.2625 18.261 17.2931 18.5307 17.0725C18.6961 16.9376 18.7023 16.9193 18.5858 16.9193C18.5184 16.9193 18.4142 16.9683 18.359 17.0296Z" fill="white"/>
<path d="M18.6778 17.1154C18.4694 17.2257 18.2978 17.3422 18.2978 17.379C18.2978 17.4096 18.3713 17.4831 18.4571 17.5322C18.5919 17.6057 18.6348 17.6057 18.7697 17.5322C18.9413 17.4464 19.07 17.2748 19.1374 17.0541C19.1987 16.8764 19.1313 16.8825 18.6778 17.1154Z" fill="white"/>
<path d="M23.7281 16.956C23.6484 16.9744 23.5871 17.0112 23.5871 17.0296C23.5871 17.2134 24.1387 17.6547 25.0213 18.1757C25.481 18.4454 25.5178 18.4576 25.5913 18.3534C25.6342 18.2921 25.671 18.1021 25.671 17.9367C25.671 17.287 25.2603 16.9744 24.3839 16.9438C24.0958 16.9376 23.8016 16.9438 23.7281 16.956Z" fill="white"/>
<path d="M26.8539 17.0541C26.8416 17.1828 26.9581 17.2012 27.0684 17.0909C27.1787 16.9806 27.1603 16.9315 27.001 16.9438C26.9152 16.9438 26.8539 16.9928 26.8539 17.0541Z" fill="white"/>
<path d="M13.0268 17.0909C12.8123 17.3238 12.9287 17.3544 13.1984 17.1338C13.3639 16.9989 13.37 16.9805 13.2536 16.9805C13.1861 16.9805 13.0819 17.0296 13.0268 17.0909Z" fill="white"/>
<path d="M13.3394 17.1767C12.9594 17.379 12.8919 17.5077 13.1371 17.569C13.4558 17.6486 13.6887 17.4893 13.8052 17.1154C13.8665 16.9315 13.7684 16.9438 13.3394 17.1767Z" fill="white"/>
<path d="M33.0197 17.3299C32.9707 17.4954 32.9339 17.8325 32.9339 18.0837C32.94 18.8008 33.1974 19.1441 33.7919 19.2115C34.2578 19.2666 34.3007 19.2115 34.129 18.7457C33.9697 18.3044 33.559 17.4647 33.3813 17.2073C33.2097 16.9683 33.1178 16.9989 33.0197 17.3299Z" fill="white"/>
<path d="M14.0871 17.2992C14.0871 17.6057 15.0616 19.3096 15.2332 19.3096C15.3558 19.3096 15.6255 18.8499 15.6623 18.5802C15.6868 18.3902 15.6623 18.2799 15.5397 18.0715C15.3619 17.7651 15.1413 17.5934 14.6203 17.3422C14.1607 17.1276 14.0871 17.1215 14.0871 17.2992Z" fill="white"/>
<path d="M17.8319 17.5751C17.74 17.9244 17.7278 18.286 17.8013 18.3105C17.9178 18.3473 18.1936 18.0838 18.1936 17.9305C18.1936 17.7651 18.0097 17.3483 17.9423 17.3483C17.9116 17.3483 17.8626 17.4525 17.8319 17.5751Z" fill="white"/>
<path d="M19.3765 17.5689C19.2539 18.0347 19.3949 18.5373 19.7013 18.7335C19.781 18.7886 19.8607 18.8254 19.8729 18.8131C19.9036 18.7764 19.5358 17.5076 19.4807 17.4464C19.45 17.4157 19.4071 17.4709 19.3765 17.5689Z" fill="white"/>
<path d="M29.4158 17.5138C29.2871 17.7651 29.1645 18.3167 29.1645 18.6599C29.1645 19.0951 29.3055 19.3709 29.5874 19.5241C29.8203 19.6406 30.2984 19.7141 30.3474 19.6344C30.3903 19.567 30.2678 19.0583 30.041 18.3596C29.759 17.4954 29.569 17.2319 29.4158 17.5138Z" fill="white"/>
<path d="M23.2194 17.6609C23.2194 17.8264 23.3971 18.4393 23.4584 18.476C23.5197 18.5189 23.6178 18.4393 23.7036 18.2799C23.7587 18.1757 23.7587 18.1144 23.7036 18.0041C23.6116 17.8264 23.4584 17.6548 23.3297 17.5873C23.2378 17.5383 23.2194 17.5506 23.2194 17.6609Z" fill="white"/>
<path d="M31.1013 17.8448C31.04 18.1512 31.0584 18.8131 31.1319 19.0706C31.1748 19.1993 31.279 19.3954 31.371 19.5057C31.5242 19.6896 31.5671 19.7019 31.9777 19.7264C32.229 19.7448 32.4497 19.7264 32.4865 19.6896C32.6336 19.5425 31.4507 17.6548 31.2055 17.6548C31.1687 17.6548 31.1258 17.7406 31.1013 17.8448Z" fill="white"/>
<path d="M34.0677 17.7405C34.0677 17.7834 34.0923 17.8999 34.1229 17.9979C34.1597 18.096 34.2455 18.3841 34.319 18.6354L34.4539 19.095L34.5336 18.9112C34.6929 18.5434 34.6071 18.1328 34.2945 17.7895C34.1536 17.6363 34.0677 17.6179 34.0677 17.7405Z" fill="white"/>
<path d="M17.5623 17.759C17.501 17.8202 17.5132 18.1022 17.5807 18.2064C17.6236 18.2738 17.6419 18.2186 17.6419 18.0041C17.6419 17.7099 17.6358 17.6854 17.5623 17.759Z" fill="white"/>
<path d="M16.3978 18.1451C16.3794 18.2125 16.3119 18.2676 16.2445 18.2676C16.0913 18.2676 15.9748 18.4086 16.0239 18.5373C16.0484 18.5986 16.03 18.7151 15.981 18.7947C15.9074 18.9357 15.9136 18.9602 16.0852 19.0951C16.1832 19.1747 16.2445 19.2605 16.22 19.2851C16.1281 19.3709 16.2997 19.4873 16.4774 19.4567C16.5694 19.4321 16.6674 19.4505 16.6858 19.4873C16.7471 19.5854 16.9678 19.567 16.9678 19.4689C16.9678 19.3586 17.0658 19.2973 17.2374 19.2851C17.3478 19.2789 17.3661 19.2421 17.3478 19.046C17.3355 18.8867 17.36 18.807 17.4274 18.7825C17.5561 18.7334 17.5439 18.666 17.3723 18.5005C17.2926 18.4209 17.2129 18.3044 17.2007 18.237C17.1823 18.1389 17.1394 18.1205 16.9494 18.1328C16.8207 18.1451 16.7226 18.1205 16.7226 18.0838C16.7226 17.9673 16.4345 18.0163 16.3978 18.1451ZM16.9371 18.5741C17.1455 18.8009 16.9065 19.1625 16.5939 19.0828C16.5387 19.0644 16.459 18.9847 16.4223 18.9051C16.269 18.5618 16.6858 18.2983 16.9371 18.5741Z" fill="white"/>
<path d="M23.0968 18.1512C23.0968 18.3167 23.2439 18.568 23.3113 18.5005C23.3358 18.4822 23.2929 18.3596 23.2255 18.2247C23.1152 18.0102 23.1029 18.0041 23.0968 18.1512Z" fill="white"/>
<path d="M24.0774 18.0776C24.0774 18.1757 24.39 18.5128 24.5739 18.6047C24.7578 18.7028 25.2236 18.7273 25.3523 18.6415C25.4074 18.6109 25.2236 18.5005 24.7945 18.3105C24.1081 18.0041 24.0774 17.9918 24.0774 18.0776Z" fill="white"/>
<path d="M12.0032 18.2186C11.9358 18.2921 11.8807 18.3718 11.8807 18.4025C11.8807 18.5005 11.9848 18.4515 12.1565 18.2676C12.2913 18.1267 12.3097 18.0838 12.23 18.0838C12.1748 18.0838 12.0768 18.145 12.0032 18.2186Z" fill="white"/>
<path d="M12.2913 18.3044C12.1013 18.4209 11.9419 18.5434 11.9419 18.5741C11.9419 18.5986 12.0216 18.6538 12.1197 18.6967C12.3465 18.7886 12.5119 18.7089 12.6774 18.4331C12.9287 18.0225 12.8 17.9857 12.2913 18.3044Z" fill="white"/>
<path d="M30.3474 18.2676C30.372 18.3841 30.421 18.7273 30.4578 19.0276C30.5313 19.567 30.5374 19.5731 30.6416 19.4383C30.9052 19.1195 30.8194 18.5189 30.47 18.2002L30.3107 18.0531L30.3474 18.2676Z" fill="white"/>
<path d="M21.7668 18.2431C21.681 18.4699 22.1345 20.4006 22.2878 20.4557C22.3307 20.4741 22.4594 20.4128 22.5758 20.327C23.1765 19.8673 23.0907 19.1686 22.3429 18.476C21.9752 18.1328 21.8342 18.0776 21.7668 18.2431Z" fill="white"/>
<path d="M32.3823 18.7948C32.5355 19.1564 32.6581 19.4628 32.6581 19.4812C32.6581 19.5057 32.6887 19.4873 32.7255 19.4506C32.8236 19.3525 32.8113 18.8744 32.701 18.6599C32.6029 18.4638 32.2658 18.1451 32.1678 18.1451C32.1371 18.1451 32.2352 18.4393 32.3823 18.7948Z" fill="white"/>
<path d="M18.3774 18.3167C18.2978 18.378 18.2487 18.4577 18.261 18.5006C18.2732 18.5373 18.3713 18.4883 18.4878 18.3841C18.7023 18.1941 18.6042 18.1328 18.3774 18.3167Z" fill="white"/>
<path d="M18.641 18.4209C18.2365 18.6906 18.2119 18.7457 18.4203 18.8254C18.6778 18.9235 18.8494 18.8438 18.9903 18.5741C19.211 18.1389 19.1252 18.096 18.641 18.4209Z" fill="white"/>
<path d="M14.0687 18.4944C14.1178 18.807 14.3078 19.1502 14.5039 19.2606C14.7061 19.377 15.0249 19.4567 14.9942 19.3831C14.9574 19.2912 14.1178 18.2738 14.0749 18.2677C14.0503 18.2677 14.0503 18.3718 14.0687 18.4944Z" fill="white"/>
<path d="M21.3194 18.3228C21.3194 18.3535 21.3071 18.4209 21.2887 18.4638C21.2642 18.5189 21.301 18.5496 21.3807 18.5557C21.5094 18.568 21.5278 18.5251 21.4665 18.3657C21.4236 18.2615 21.3194 18.2309 21.3194 18.3228Z" fill="white"/>
<path d="M27.5403 18.8009L27.3565 18.8989L28 19.0767C28.8213 19.2973 28.8642 19.2912 28.6374 19.0583C28.3126 18.7089 27.8897 18.6109 27.5403 18.8009Z" fill="white"/>
<path d="M35.6552 18.8131C34.7297 19.1747 34.3129 19.8121 34.6132 20.3944C34.791 20.7438 34.9197 20.8663 35.0239 20.7744C35.2813 20.5599 36.0903 19.1073 36.0903 18.8499C36.0903 18.6721 36.0352 18.666 35.6552 18.8131Z" fill="white"/>
<path d="M13.1065 18.9173C13.1065 19.0276 13.3455 19.616 13.4252 19.708C13.5048 19.7938 13.6581 19.567 13.6581 19.3647C13.6581 19.2544 13.5907 19.138 13.4436 19.0093C13.1984 18.8009 13.1065 18.7702 13.1065 18.9173Z" fill="white"/>
<path d="M23.6055 19.0583C23.391 19.1931 23.2194 19.3341 23.2194 19.3709C23.2194 19.4076 23.2868 19.4689 23.3726 19.5057C23.5871 19.6038 23.7894 19.4996 23.9181 19.2238C24.1081 18.8254 24.0284 18.7825 23.6055 19.0583Z" fill="white"/>
<path d="M46.8652 18.8867C46.4545 18.9848 45.9213 19.2973 45.6639 19.5915C45.3513 19.9409 45.1797 20.3883 45.1245 20.9889L45.0816 21.4548H44.7261H44.3645V22.2822V23.1096H44.7323H45.1V25.5612V28.0128H46.1113H47.1226V25.5612V23.1096H47.6742H48.2258V22.2822V21.4548H47.6681H47.1042L47.141 21.1667C47.1839 20.7806 47.4168 20.566 47.852 20.5048L48.1645 20.4618V19.6406V18.8193L47.6313 18.8254C47.331 18.8315 46.9878 18.856 46.8652 18.8867Z" fill="white"/>
<path d="M10.7161 19.0154C10.5507 19.1012 10.4097 19.236 10.3361 19.3647C10.281 19.4812 10.2381 19.5854 10.2503 19.5976C10.2626 19.6099 10.5752 19.4689 10.9552 19.2851C11.6539 18.948 11.6968 18.8805 11.2126 18.8805C11.09 18.8805 10.8632 18.9418 10.7161 19.0154Z" fill="white"/>
<path d="M23.2807 18.9908C23.201 19.0521 23.152 19.1318 23.1642 19.1686C23.1765 19.2054 23.2807 19.1563 23.4032 19.0583C23.6361 18.8621 23.5197 18.8008 23.2807 18.9908Z" fill="white"/>
<path d="M20.8719 19.0767C20.829 19.236 20.8658 19.3096 20.9884 19.3096C21.0987 19.3096 21.0987 19.1012 20.9884 19.0092C20.921 18.9541 20.8965 18.9663 20.8719 19.0767Z" fill="white"/>
<path d="M27.2216 19.1625C27.1787 19.2851 27.24 19.7386 27.3319 19.947C27.4361 20.1677 27.7487 20.3515 28.1103 20.3944C28.4536 20.4312 29.1645 20.3209 29.33 20.1983C29.4219 20.1309 29.4219 20.1064 29.3484 20.0144C29.2381 19.8796 28.5455 19.5302 27.8652 19.2728C27.2461 19.0338 27.2707 19.0338 27.2216 19.1625Z" fill="white"/>
<path d="M19.1374 19.2851C18.7881 19.4689 18.5736 19.6283 17.9668 20.1309C17.55 20.4741 17.5316 20.5047 17.6174 20.6089C17.7645 20.7683 18.2794 20.9215 18.5061 20.8725C18.7942 20.8051 19.1374 20.4618 19.3274 20.0328C19.5052 19.6344 19.6032 19.1257 19.499 19.1257C19.4623 19.1257 19.3029 19.1992 19.1374 19.2851Z" fill="white"/>
<path d="M21.4052 19.4015C21.3745 19.6221 21.3929 19.757 21.4787 19.9715C21.5952 20.2412 21.8649 20.5109 21.9813 20.468C22.0365 20.4434 21.5829 19.2483 21.491 19.1502C21.4665 19.1318 21.4297 19.2421 21.4052 19.4015Z" fill="white"/>
<path d="M12.0339 19.2238C11.5865 19.3218 10.2871 19.7754 10.2871 19.8367C10.2871 19.9531 10.5874 20.2841 10.7836 20.3821C11.0103 20.5047 11.3536 20.4986 11.611 20.376C11.991 20.1983 12.6161 19.4996 12.6161 19.2605C12.6161 19.187 12.3097 19.1686 12.0339 19.2238Z" fill="white"/>
<path d="M18.0097 19.3831C17.6787 19.5547 17.4581 19.8612 17.4581 20.1554C17.4581 20.2718 17.4642 20.3576 17.4765 20.3454C17.4826 20.327 17.7216 20.0757 18.0097 19.7815C18.5613 19.2115 18.5613 19.1073 18.0097 19.3831Z" fill="white"/>
<path d="M13.0452 19.4076C13.0452 19.5547 13.1984 19.7876 13.2597 19.7263C13.2842 19.7018 13.2474 19.5915 13.1739 19.4812C13.0697 19.3157 13.0452 19.3034 13.0452 19.4076Z" fill="white"/>
<path d="M49.1452 23.6612V28.0128H50.1565H51.1678V23.6612V19.3096H50.1565H49.1452V23.6612Z" fill="white"/>
<path d="M14.9636 19.567C14.6571 19.9041 14.0074 21.5222 14.1361 21.6509C14.222 21.7367 14.7613 21.657 14.9881 21.516C15.2394 21.3628 15.3742 21.0502 15.3742 20.6028C15.3742 20.1799 15.2761 19.6773 15.172 19.5302C15.1045 19.4322 15.0861 19.4383 14.9636 19.567Z" fill="white"/>
<path d="M20.2161 19.7815C20.2161 20.3699 20.5839 21.7612 20.7371 21.7612C20.7861 21.7612 20.9394 21.6631 21.0742 21.5405C21.6136 21.0563 21.5094 20.4679 20.7678 19.7815C20.2836 19.3279 20.2161 19.3279 20.2161 19.7815Z" fill="white"/>
<path d="M15.8278 19.7018C15.7481 19.9041 15.9932 20.8234 16.3855 21.8347C16.4529 22.0002 16.5939 21.9696 16.8145 21.7305C17.0903 21.4425 17.1761 21.1667 17.0903 20.8479C16.9678 20.3821 15.9258 19.4444 15.8278 19.7018Z" fill="white"/>
<path d="M30.6232 19.7631C29.9184 20.0144 29.5874 20.3209 29.5507 20.7622C29.5323 20.9828 29.5568 21.1238 29.6671 21.3322C29.7468 21.4854 29.8387 21.608 29.8816 21.608C29.9674 21.608 30.6968 20.7438 31.0094 20.2657C31.2668 19.8735 31.3219 19.616 31.1442 19.616C31.0829 19.616 30.85 19.6835 30.6232 19.7631Z" fill="white"/>
<path d="M33.3874 19.757C33.3078 19.8428 33.1852 19.9224 33.1178 19.9347C33.0258 19.9531 33.0013 20.0021 33.0074 20.137C33.0136 20.235 32.9829 20.3637 32.9278 20.4189C32.8174 20.5415 32.8665 20.6947 33.032 20.7376C33.1116 20.756 33.1484 20.8234 33.1484 20.9276C33.1484 21.087 33.1913 21.1115 33.4181 21.087C33.4794 21.0808 33.602 21.1115 33.6816 21.1544C33.8165 21.2279 33.841 21.2157 33.9697 21.0563C34.0432 20.9644 34.1352 20.9031 34.172 20.9215C34.2087 20.946 34.27 20.9215 34.3129 20.8724C34.3742 20.7989 34.3742 20.7621 34.3129 20.6886C34.2516 20.6089 34.2516 20.5721 34.3374 20.4863C34.4723 20.3331 34.46 20.2595 34.2884 20.1431C34.2026 20.0941 34.1291 19.9837 34.1168 19.9102C34.1045 19.7937 34.0616 19.7692 33.9145 19.7815C33.8165 19.7876 33.6878 19.7508 33.6326 19.7018C33.5407 19.616 33.5161 19.6221 33.3874 19.757ZM33.8287 20.1676C34.0065 20.2657 33.982 20.566 33.792 20.6947C33.651 20.7866 33.6265 20.7866 33.4855 20.6947C33.3078 20.5783 33.2894 20.3821 33.4365 20.2166C33.5468 20.0941 33.6571 20.0757 33.8287 20.1676Z" fill="white"/>
<path d="M35.649 20.3086C35.2445 20.7866 35.1955 20.8724 35.2997 20.8908C35.4652 20.9215 35.79 20.7192 35.9432 20.4924C36.0536 20.3208 36.1884 19.8183 36.1394 19.7631C36.1271 19.757 35.9065 20.0021 35.649 20.3086Z" fill="white"/>
<path d="M32.2413 19.9531C32.0268 20.137 32.0023 20.2106 32.1248 20.3822C32.2045 20.4802 32.2229 20.468 32.3455 20.2106C32.5294 19.8367 32.4926 19.7448 32.2413 19.9531Z" fill="white"/>
<path d="M79.3 20.658V21.4547H78.9016H78.5032V22.2822V23.1096H78.8955H79.2939L79.3123 24.838C79.3307 26.5112 79.3368 26.5847 79.4778 26.8912C79.6616 27.308 80.0416 27.6512 80.5013 27.8289C80.7955 27.9454 81.0223 27.976 81.7394 28.0005L82.6097 28.0312V27.1609V26.2967H82.0887C81.6536 26.2967 81.5494 26.2783 81.4513 26.1802C81.2736 26.0025 81.2552 25.788 81.2736 24.3967L81.2919 23.1402L81.9539 23.1218L82.6097 23.1034V22.2822V21.4609L81.9539 21.4425L81.2919 21.4241L81.2736 20.6396L81.2552 19.8612H80.2807H79.3V20.658Z" fill="white"/>
<path d="M14.0442 20.2473C13.7868 20.517 13.7194 20.6702 13.7194 20.9767C13.7255 21.2709 13.8726 21.6141 13.9278 21.4547C13.9829 21.3076 14.2649 20.0757 14.2465 20.0634C14.2403 20.0512 14.1484 20.137 14.0442 20.2473Z" fill="white"/>
<path d="M23.0661 20.2044C23.011 20.2902 22.9313 20.3454 22.8823 20.3331C22.7597 20.2841 22.6739 20.4128 22.7107 20.5967C22.729 20.6886 22.7107 20.7867 22.6739 20.805C22.5636 20.8725 22.5942 21.0747 22.7229 21.1176C22.7965 21.136 22.8516 21.2218 22.8639 21.3199C22.8823 21.467 22.9068 21.4854 23.1213 21.4854C23.2561 21.4854 23.3726 21.5221 23.391 21.565C23.4278 21.6754 23.5074 21.657 23.6607 21.4915C23.7403 21.4118 23.8568 21.3321 23.9242 21.3199C24.0223 21.3015 24.0407 21.2586 24.0284 21.0686C24.0161 20.9399 24.0407 20.8418 24.0774 20.8418C24.1939 20.8418 24.1448 20.5538 24.0161 20.517C23.9487 20.4986 23.8936 20.4312 23.8936 20.3699C23.8936 20.1921 23.771 20.1002 23.6361 20.1738C23.5442 20.2228 23.489 20.2167 23.4094 20.1431C23.2623 20.0083 23.1887 20.0205 23.0661 20.2044ZM23.6239 20.6641C23.7281 20.7805 23.7281 20.805 23.6423 20.9521C23.5319 21.1544 23.3113 21.1973 23.1519 21.0502C23.011 20.9215 23.0048 20.7928 23.1397 20.6457C23.2684 20.4986 23.4768 20.5047 23.6239 20.6641Z" fill="white"/>
<path d="M13.3639 20.1799C13.2597 20.2841 13.272 20.4006 13.4007 20.468C13.5232 20.5354 13.6581 20.4496 13.6581 20.3086C13.6581 20.1922 13.4436 20.1002 13.3639 20.1799ZM13.5355 20.3209C13.5355 20.3699 13.511 20.4128 13.4742 20.4128C13.4436 20.4128 13.4129 20.3699 13.4129 20.3209C13.4129 20.2718 13.4436 20.2289 13.4742 20.2289C13.511 20.2289 13.5355 20.2718 13.5355 20.3209Z" fill="white"/>
<path d="M24.3532 20.3209C24.4329 20.8051 24.7823 21.2096 25.1316 21.2096H25.3155L25.0703 20.9154C24.9355 20.756 24.7087 20.5048 24.5739 20.3515L24.3165 20.0757L24.3532 20.3209Z" fill="white"/>
<path d="M32.4313 20.2412C32.3026 20.4128 32.2842 20.4741 32.3761 20.4373C32.4619 20.4067 32.56 20.235 32.5171 20.186C32.5048 20.1738 32.4619 20.1983 32.4313 20.2412Z" fill="white"/>
<path d="M27.1971 20.2351C27.1542 20.4435 27.1665 20.4741 27.2645 20.4741C27.3258 20.4741 27.4055 20.4312 27.4484 20.3822C27.4974 20.327 27.4974 20.2903 27.4607 20.2903C27.4239 20.2903 27.3565 20.2719 27.3013 20.2535C27.2461 20.2351 27.2032 20.2228 27.1971 20.2351Z" fill="white"/>
<path d="M31.371 20.4251C31.371 20.5967 31.5058 20.9644 31.5916 21.0564C31.6958 21.1544 32.0145 21.1851 32.0697 21.0931C32.131 21.0012 31.561 20.3515 31.42 20.3515C31.3955 20.3515 31.371 20.3883 31.371 20.4251Z" fill="white"/>
<path d="M13.0207 20.5047C12.9716 20.6457 12.8981 21.3934 12.941 21.3934C12.9594 21.3934 13.0513 21.3628 13.1371 21.3199C13.3394 21.2279 13.3945 21.0012 13.2842 20.6947C13.1923 20.4312 13.082 20.3515 13.0207 20.5047Z" fill="white"/>
<path d="M19.8423 20.6702C19.83 21.0625 19.8607 21.2402 19.9771 21.4302C20.0874 21.6141 20.3694 21.8102 20.4307 21.7489C20.4736 21.706 19.9587 20.4741 19.8974 20.4741C19.8729 20.4741 19.8484 20.566 19.8423 20.6702Z" fill="white"/>
<path d="M31.8613 20.5108C31.8613 20.5292 31.9287 20.6457 32.0145 20.7683C32.1187 20.9215 32.1677 20.9583 32.1677 20.8847C32.1677 20.7315 32.0697 20.5599 31.9532 20.5108C31.9042 20.4925 31.8613 20.4925 31.8613 20.5108Z" fill="white"/>
<path d="M15.5581 20.9828C15.5581 21.1912 15.601 21.4302 15.6561 21.5528C15.7481 21.7489 16.1158 22.0431 16.22 21.9941C16.2445 21.9818 16.1036 21.6692 15.9136 21.3015L15.5642 20.6273L15.5581 20.9828Z" fill="white"/>
<path d="M28.4168 20.7622C28.2758 20.7989 28.2084 21.0564 28.2942 21.2402C28.3616 21.3812 28.8826 21.6325 28.9623 21.5589C28.9807 21.5344 28.9255 21.4118 28.8397 21.2893C28.7478 21.1606 28.6252 20.9889 28.57 20.9031C28.4597 20.7499 28.4597 20.7499 28.6926 20.9215C28.9316 21.1054 28.9807 21.0809 28.8213 20.8541C28.7294 20.7254 28.6374 20.7009 28.4168 20.7622Z" fill="white"/>
<path d="M30.5865 21.2218C30.3107 21.4915 30.0961 21.7305 30.1084 21.7428C30.1207 21.755 30.231 21.7489 30.3597 21.7244C30.5987 21.6815 30.899 21.4608 31.0155 21.2524C31.1013 21.0808 31.1871 20.7192 31.1319 20.7192C31.1136 20.7192 30.8684 20.946 30.5865 21.2218Z" fill="white"/>
<path d="M12.7142 20.9154C12.6836 21.0134 12.6958 21.1299 12.7448 21.2218C12.8429 21.4057 12.8797 21.2954 12.8123 20.9889C12.7571 20.756 12.7571 20.756 12.7142 20.9154Z" fill="white"/>
<path d="M27.2032 20.8418C27.1542 20.8725 27.1297 20.9093 27.1419 20.9215C27.1971 20.9706 27.6323 20.8909 27.6323 20.8357C27.6323 20.7622 27.3197 20.7683 27.2032 20.8418Z" fill="white"/>
<path d="M11.3536 21.1176C11.4271 21.516 12.2423 23.1096 12.3649 23.1096C12.4384 23.1096 12.6529 22.8521 12.7632 22.6376C13.039 22.086 12.659 21.4608 11.7887 21.0502C11.3597 20.8479 11.3045 20.8541 11.3536 21.1176Z" fill="white"/>
<path d="M17.4581 21.1054C17.4581 21.2463 17.7155 21.5283 18.169 21.8899C18.6103 22.2392 18.6716 22.2331 18.7268 21.8409C18.7513 21.6447 18.7268 21.565 18.5981 21.4118C18.4265 21.2034 18.2181 21.1176 17.7523 21.0502C17.5132 21.0196 17.4581 21.0257 17.4581 21.1054Z" fill="white"/>
<path d="M27.0807 21.087C27.0807 21.1238 27.1481 21.2219 27.2339 21.3077C27.3503 21.4241 27.4239 21.4486 27.5526 21.418C27.7549 21.3689 28.0613 21.1667 28.0613 21.0809C28.0613 21.0502 27.8407 21.0257 27.571 21.0257C27.2707 21.0257 27.0807 21.0502 27.0807 21.087Z" fill="white"/>
<path d="M34.4355 21.3689C34.4355 21.7673 34.5581 21.9451 34.84 21.9451C34.9565 21.9451 35.0484 21.9267 35.0484 21.9022C35.0484 21.8347 34.6807 21.2893 34.5581 21.1789C34.4355 21.0686 34.4355 21.0747 34.4355 21.3689Z" fill="white"/>
<path d="M34.8645 21.2831C34.8645 21.3689 35.0729 21.7612 35.1219 21.7612C35.22 21.7612 35.1648 21.5834 35.0178 21.4118C34.9381 21.3199 34.8645 21.2586 34.8645 21.2831Z" fill="white"/>
<path d="M24.5861 21.5038C24.6474 21.8041 25.2358 22.7418 25.3645 22.7418C25.4565 22.7418 25.6097 22.3986 25.6097 22.1963C25.6097 21.8838 25.2113 21.5221 24.6965 21.3628C24.5616 21.3199 24.5494 21.3321 24.5861 21.5038Z" fill="white"/>
<path d="M55.0903 21.3873C53.791 21.5651 52.7552 22.4231 52.3813 23.6244C52.271 23.9615 52.2465 24.2067 52.2465 24.7338C52.2465 25.8186 52.5039 26.4806 53.1842 27.1609C53.8829 27.8596 54.6061 28.1048 55.7952 28.0557C56.6961 28.019 57.119 27.8902 57.7381 27.4367C58.2284 27.0873 58.6084 26.597 58.829 26.0086C59.0007 25.5673 59.0681 24.4335 58.9516 23.888C58.7187 22.7664 57.7871 21.7857 56.6778 21.4915C56.2303 21.3812 55.5132 21.3322 55.0903 21.3873ZM56.0955 23.1709C56.1813 23.2015 56.3774 23.3425 56.5307 23.4835C56.8861 23.8144 57.0148 24.2128 56.9781 24.8809C56.9474 25.3957 56.8126 25.7267 56.5184 26.0025C56.0403 26.4622 55.2068 26.4744 54.7348 26.0331C54.4468 25.7635 54.3303 25.4509 54.3058 24.8135C54.2813 24.2802 54.2936 24.1883 54.4345 23.888C54.5816 23.5631 54.8513 23.2996 55.1516 23.177C55.3539 23.0973 55.8994 23.0912 56.0955 23.1709Z" fill="white"/>
<path d="M67.4955 21.3873C66.141 21.6018 65.1603 22.4844 64.86 23.7593C64.7865 24.0718 64.7681 24.3722 64.7926 24.9176C64.8232 25.788 64.9826 26.2967 65.4055 26.8605C66.0368 27.7002 66.852 28.0741 68.0532 28.0741C69.1074 28.0741 69.7326 27.8351 70.3945 27.1793C70.75 26.8299 71.1484 26.1741 71.1484 25.9412C71.1484 25.886 70.8971 25.8676 70.1065 25.8676H69.0645L68.8439 26.1128C68.4761 26.5173 67.9552 26.5909 67.4097 26.3089C67.1461 26.1802 67.0481 26.0883 66.9378 25.8676C66.8642 25.7144 66.7845 25.4999 66.7661 25.3896L66.7232 25.1935H69.04H71.3507L71.32 24.5009C71.2771 23.7041 71.1178 23.1831 70.7378 22.6315C70.3578 22.0738 69.6958 21.6325 69.0032 21.467C68.6049 21.3689 67.8571 21.3322 67.4955 21.3873ZM68.7949 23.1831C69.0768 23.3793 69.1687 23.5141 69.2423 23.8451L69.2974 24.0902H68.0226H66.7416L66.7968 23.8941C66.8949 23.5693 67.14 23.2567 67.422 23.1157C67.8081 22.9196 68.4578 22.9502 68.7949 23.1831Z" fill="white"/>
<path d="M74.2742 21.4057C73.7777 21.4731 73.1526 21.7612 72.8461 22.0554C72.1536 22.7173 72.0677 23.8267 72.65 24.5009C72.9442 24.8441 73.4468 25.0831 74.4581 25.3467C75.6961 25.6776 75.9352 25.837 75.7942 26.2476C75.7084 26.4805 75.4571 26.6031 75.0403 26.6031C74.5561 26.6031 74.17 26.3702 74.0597 26.0025C74.0229 25.8676 74.0045 25.8676 73.0361 25.8676H72.0494L72.0923 26.1251C72.1536 26.4989 72.4784 27.0689 72.791 27.3447C73.361 27.8412 74.0781 28.0741 75.071 28.0741C76.1068 28.0741 76.8361 27.8105 77.3142 27.2528C77.7371 26.7625 77.8413 25.9105 77.5471 25.3283C77.2468 24.7215 76.7503 24.4335 75.3836 24.0657C74.4274 23.8022 74.2252 23.7102 74.1761 23.508C74.0719 23.1035 74.3416 22.8644 74.9055 22.8644C75.31 22.8644 75.6042 23.036 75.7636 23.3731L75.88 23.5999H76.7932H77.7065L77.6697 23.4283C77.4061 22.2209 76.6952 21.5651 75.4816 21.3996C74.9423 21.326 74.8381 21.326 74.2742 21.4057Z" fill="white"/>
<path d="M85.7355 21.3996C84.6261 21.5835 83.7006 22.5518 83.4432 23.796C83.0816 25.5428 83.7374 27.1977 85.0368 27.8351C85.4474 28.0373 85.4781 28.0435 86.2258 28.0435C86.9429 28.0435 87.0165 28.0312 87.3413 27.8718C87.5374 27.7738 87.8194 27.5777 87.9726 27.4306L88.2484 27.1609V27.5838V28.0128H89.2597H90.271V24.7338V21.4547H89.2597H88.2484V21.8838V22.3067L87.9665 22.0309C87.6416 21.706 87.1758 21.4731 86.6732 21.3935C86.2687 21.326 86.2013 21.326 85.7355 21.3996ZM87.5497 23.3302C87.9971 23.606 88.1994 23.9738 88.2361 24.5744C88.279 25.3283 88.0523 25.8493 87.5497 26.1435C86.9674 26.4867 86.2565 26.3886 85.809 25.9044C85.5087 25.5796 85.4045 25.2854 85.4045 24.7338C85.3984 24.1944 85.5332 23.8267 85.8519 23.5141C86.3116 23.0606 86.9981 22.987 87.5497 23.3302Z" fill="white"/>
<path d="M17.2007 21.4977C17.2313 21.5589 17.2436 21.6448 17.2313 21.6877C17.2129 21.7306 17.2374 21.7551 17.2865 21.7489C17.4274 21.7183 17.4581 21.6141 17.3539 21.5038C17.2252 21.3628 17.1332 21.3628 17.2007 21.4977Z" fill="white"/>
<path d="M25.6526 21.5283C25.6097 21.6815 25.6832 21.798 25.7874 21.7367C25.8794 21.6754 25.8732 21.5467 25.769 21.4609C25.7016 21.4057 25.6771 21.418 25.6526 21.5283Z" fill="white"/>
<path d="M31.2361 21.4793C30.7029 21.6264 30.3903 21.9512 30.3903 22.3802C30.3903 22.6438 30.5007 22.987 30.5865 22.987C30.6968 22.987 31.7694 22.2209 32.1003 21.9022C32.2781 21.7305 32.4129 21.5528 32.4007 21.5038C32.3639 21.3935 31.61 21.3751 31.2361 21.4793Z" fill="white"/>
<path d="M63.3584 21.5406C62.9294 21.7122 62.721 21.8593 62.3961 22.2148L62.1387 22.4967V21.9757V21.4548H61.1274H60.1161V24.7338V28.0128H61.1274H62.1326L62.151 26.1864C62.1694 24.4948 62.1755 24.3477 62.2919 24.1209C62.4819 23.7593 62.9355 23.5448 63.6281 23.4957L64.1613 23.4589V22.4293V21.3935H63.9345C63.8058 21.3935 63.5484 21.4609 63.3584 21.5406Z" fill="white"/>
<path d="M32.8052 21.5651C32.6703 21.6754 32.5539 22.0064 32.6519 22.0064C32.6826 22.0064 32.7194 22.0554 32.7316 22.1167C32.75 22.1902 32.8113 22.2209 32.9094 22.2148C33.1484 22.1964 33.3384 22.1167 33.3139 22.0431C33.3016 22.0064 33.3139 21.9328 33.3384 21.8715C33.3752 21.8041 33.3629 21.7612 33.3016 21.7367C33.2526 21.7183 33.2097 21.657 33.2097 21.6018C33.2097 21.5406 33.1729 21.516 33.1239 21.5344C33.081 21.5528 33.0197 21.5467 32.989 21.516C32.9584 21.4854 32.8787 21.5099 32.8052 21.5651ZM33.0871 21.7918C33.179 21.9022 33.1177 22.0064 32.9584 22.0064C32.8848 22.0064 32.8419 21.9635 32.8419 21.896C32.8419 21.6938 32.9645 21.6386 33.0871 21.7918Z" fill="white"/>
<path d="M18.8065 21.6386C18.8065 21.9635 19.7994 23.5693 20.0016 23.5693C20.161 23.5693 20.4 23.0912 20.4 22.7848C20.4 22.4599 20.21 22.178 19.8178 21.9206C19.499 21.7122 19.0516 21.516 18.8984 21.516C18.8494 21.516 18.8065 21.5712 18.8065 21.6386Z" fill="white"/>
<path d="M22.4655 21.6325C22.4287 21.7857 22.4655 21.8225 22.6494 21.8225C22.7719 21.8225 22.7965 21.7919 22.7781 21.6815C22.7536 21.5038 22.5145 21.4609 22.4655 21.6325ZM22.6739 21.7183C22.5942 21.798 22.5145 21.7367 22.5758 21.6448C22.5942 21.608 22.6432 21.5957 22.68 21.6141C22.7168 21.6386 22.7168 21.6754 22.6739 21.7183Z" fill="white"/>
<path d="M22.0303 21.7306C21.7852 21.9818 21.0558 23.7286 21.16 23.8267C21.2336 23.9064 21.7484 23.8512 21.9752 23.7409C22.2571 23.6122 22.4165 23.2628 22.4226 22.7909C22.4226 22.3802 22.3245 21.8838 22.2142 21.7306C22.1407 21.6325 22.1345 21.6325 22.0303 21.7306Z" fill="white"/>
<path d="M13.1984 21.8593C13.2658 21.9696 13.2781 22.0064 13.2229 21.9757C13.1555 21.939 13.1555 21.9451 13.2107 22.0064C13.2903 22.0922 13.4129 22.037 13.4129 21.9144C13.4129 21.8348 13.2352 21.6999 13.1371 21.6999C13.1126 21.6999 13.1371 21.7735 13.1984 21.8593Z" fill="white"/>
<path d="M27.9694 21.7918C27.6629 21.9022 27.3258 22.2576 27.3258 22.466C27.3258 22.5764 27.3503 22.6131 27.4055 22.5764C27.5526 22.4844 28.4903 21.7489 28.4903 21.7244C28.4903 21.6693 28.2084 21.706 27.9694 21.7918Z" fill="white"/>
<path d="M17.6419 21.8225C17.6419 21.8654 17.7339 21.988 17.8503 22.1044C18.0158 22.2699 18.1078 22.3128 18.2916 22.3128H18.5307L18.3161 22.1718C17.8381 21.8531 17.6419 21.7551 17.6419 21.8225Z" fill="white"/>
<path d="M29.0358 21.9021C28.4413 22.1473 27.3871 22.7602 27.3871 22.8521C27.3871 22.9441 27.6629 23.1647 27.9019 23.2628C28.2697 23.416 28.5761 23.3363 28.9194 22.9931C29.0726 22.8399 29.2748 22.558 29.3668 22.3741C29.661 21.7489 29.6058 21.6692 29.0358 21.9021Z" fill="white"/>
<path d="M11.2678 22.2209C11.2678 22.5212 11.4761 22.9073 11.7152 23.0483C11.8929 23.1586 12.1258 23.2138 12.1258 23.1402C12.1258 23.0973 11.3229 22.0063 11.2923 22.0063C11.28 22.0063 11.2678 22.1044 11.2678 22.2209Z" fill="white"/>
<path d="M23.3174 22.0983C23.299 22.1473 23.2439 22.1902 23.1948 22.1902C23.0968 22.1902 23.0968 22.4661 23.1887 22.6254C23.2745 22.7664 23.5381 22.8093 23.6729 22.7112C23.7955 22.6193 23.8752 22.2515 23.771 22.2515C23.7342 22.2515 23.7097 22.2086 23.7097 22.1535C23.7097 22.0922 23.6729 22.0677 23.6178 22.0861C23.5687 22.1106 23.5136 22.0983 23.4952 22.0677C23.44 21.9757 23.3603 21.9941 23.3174 22.0983ZM23.5687 22.319C23.6668 22.417 23.5994 22.558 23.4645 22.558C23.3113 22.558 23.25 22.4477 23.3419 22.3435C23.4339 22.2331 23.4768 22.227 23.5687 22.319Z" fill="white"/>
<path d="M13.3823 22.2086C13.3148 22.276 13.2965 22.3128 13.3394 22.2883C13.3823 22.2638 13.4129 22.2821 13.4129 22.3373C13.4129 22.3986 13.4497 22.417 13.5048 22.3986C13.5968 22.3618 13.6336 22.1596 13.5539 22.1105C13.5232 22.0921 13.4497 22.1412 13.3823 22.2086Z" fill="white"/>
<path d="M15.0494 22.1105C15.0187 22.1351 14.9636 22.1596 14.9329 22.1596C14.8165 22.1596 14.8042 22.3128 14.9145 22.3496C15.0371 22.3986 15.1474 22.3005 15.1168 22.1596C15.1107 22.1044 15.0739 22.0799 15.0494 22.1105Z" fill="white"/>
<path d="M15.9503 22.1596C15.8829 22.3312 15.9871 22.8767 16.2445 23.6612C16.3794 24.0841 16.5019 24.4396 16.5142 24.4518C16.5694 24.5131 16.8636 24.2925 17.0352 24.0657C17.2497 23.7654 17.2681 23.4589 17.0842 23.0973C16.9432 22.8215 16.4774 22.3496 16.1771 22.1718C16.0055 22.0738 15.981 22.0676 15.9503 22.1596Z" fill="white"/>
<path d="M24.5678 22.2025C24.5678 22.417 24.7884 22.7357 24.9661 22.7786C25.052 22.797 25.1378 22.8093 25.15 22.7909C25.1623 22.7786 25.0397 22.607 24.8681 22.4109C24.6168 22.1106 24.5678 22.0799 24.5678 22.2025Z" fill="white"/>
<path d="M33.5345 22.417C33.6019 23.0851 34.0555 23.7593 34.5029 23.8696C34.699 23.9125 35.2507 23.7593 35.3548 23.6306C35.4223 23.5509 35.41 23.508 35.2874 23.3731C34.8645 22.9135 33.7307 22.0677 33.5407 22.0677C33.5161 22.0677 33.5161 22.227 33.5345 22.417Z" fill="white"/>
<path d="M32.1739 22.2393C32.1003 22.3802 32.18 22.5151 32.3271 22.4844C32.4865 22.4538 32.5048 22.2761 32.3577 22.1964C32.2597 22.1412 32.2229 22.1473 32.1739 22.2393ZM32.3577 22.3312C32.3516 22.4048 32.2658 22.3864 32.2413 22.3067C32.2229 22.2699 32.2474 22.2454 32.2903 22.2577C32.3271 22.2761 32.3577 22.3067 32.3577 22.3312Z" fill="white"/>
<path d="M21.1907 22.3312C20.9823 22.4844 20.7678 22.8828 20.7678 23.1157C20.7678 23.367 20.8597 23.6612 20.9332 23.6612C20.9761 23.6612 21.3316 22.3067 21.301 22.2699C21.2949 22.2638 21.2458 22.2944 21.1907 22.3312Z" fill="white"/>
<path d="M35.03 22.797C35.2874 23.0973 35.5265 23.3302 35.551 23.318C35.6184 23.2751 35.5387 22.9196 35.4039 22.6989C35.3426 22.5947 35.171 22.4476 35.0239 22.3802C34.5213 22.1351 34.5274 22.2209 35.03 22.797Z" fill="white"/>
<path d="M31.3465 22.8031C30.7274 23.1341 30.6907 23.1647 30.8439 23.2076C31.0584 23.2567 31.4078 23.2015 31.5916 23.0789C31.7387 22.9809 32.082 22.5151 32.039 22.4722C32.0268 22.4599 31.7142 22.607 31.3465 22.8031Z" fill="white"/>
<path d="M13.8236 22.6438C13.5416 22.748 13.4313 22.8399 13.3148 23.0605C13.1187 23.4405 13.2413 23.4283 13.8603 23.0176C14.1852 22.797 14.4548 22.607 14.4548 22.5886C14.4548 22.5273 14.0503 22.5641 13.8236 22.6438Z" fill="white"/>
<path d="M18.8065 22.7663C18.8065 23.0912 19.0332 23.4589 19.3213 23.5938C19.4623 23.6673 19.6278 23.7225 19.689 23.7225C19.7994 23.7225 19.7013 23.5815 19.0578 22.8644L18.8126 22.5886L18.8065 22.7663Z" fill="white"/>
<path d="M32.4681 22.7173C32.4007 22.8031 32.4007 22.8277 32.4987 22.8951C32.6458 23.0054 32.7929 22.9441 32.7684 22.7786C32.7439 22.6193 32.5845 22.5825 32.4681 22.7173ZM32.6336 22.846C32.5723 22.9073 32.5171 22.8154 32.5723 22.7357C32.609 22.6683 32.6213 22.6683 32.6458 22.7357C32.6581 22.7786 32.6519 22.8277 32.6336 22.846Z" fill="white"/>
<path d="M15.0678 22.7541C14.7797 22.8338 13.3823 23.508 13.3271 23.5876C13.2597 23.7041 13.3639 23.845 13.6274 23.9983C14.2587 24.3721 14.8961 24.0534 15.3681 23.1218C15.5765 22.7112 15.509 22.6254 15.0678 22.7541Z" fill="white"/>
<path d="M24.2 22.9441C24.2 23.1035 24.3716 23.6612 24.4452 23.7409C24.5249 23.8267 24.7578 23.4712 24.7149 23.3303C24.6719 23.1893 24.3287 22.8032 24.249 22.8032C24.2245 22.8032 24.2 22.8644 24.2 22.9441Z" fill="white"/>
<path d="M32.6397 23.0728C31.9655 23.3547 31.5548 23.7654 31.5548 24.1638C31.5548 24.3415 31.8674 24.9789 31.9532 24.9789C32.1126 24.9667 33.1545 23.4467 33.2403 23.0912C33.2771 22.9441 33.2648 22.9257 33.1423 22.9257C33.0626 22.9257 32.8358 22.9931 32.6397 23.0728Z" fill="white"/>
<path d="M25.2236 23.0238C25.199 23.0483 25.1807 23.2689 25.1807 23.5202C25.1807 23.9247 25.1929 23.9677 25.3032 23.9677C25.4748 23.9677 25.6281 23.7041 25.5852 23.4957C25.5361 23.2873 25.291 22.9625 25.2236 23.0238Z" fill="white"/>
<path d="M22.8087 23.1157C22.6739 23.1648 22.5084 23.3977 22.5636 23.459C22.5819 23.4712 22.6861 23.4038 22.8026 23.3057C23.0232 23.1035 23.0232 23.0299 22.8087 23.1157Z" fill="white"/>
<path d="M22.9865 23.2934C22.7781 23.4283 22.6065 23.5631 22.6065 23.5999C22.6065 23.6734 22.8516 23.7408 23.0416 23.7102C23.2439 23.6857 23.5932 23.0483 23.4155 23.0483C23.3848 23.0483 23.1887 23.1586 22.9865 23.2934Z" fill="white"/>
<path d="M29.3729 23.1463C29.1155 23.275 29.0174 23.465 29.0971 23.6795C29.1339 23.7715 29.189 23.845 29.2197 23.845C29.2871 23.845 29.7774 23.1831 29.7774 23.0973C29.7774 23.0176 29.5813 23.0421 29.3729 23.1463Z" fill="white"/>
<path d="M15.6561 23.2076C15.5213 23.5631 15.7358 24.2067 16.0484 24.366C16.1587 24.4212 16.2568 24.4518 16.2752 24.4334C16.2936 24.415 16.171 24.1086 15.9994 23.7531C15.7971 23.3241 15.6807 23.1402 15.6561 23.2076Z" fill="white"/>
<path d="M24.0774 23.3915C24.0774 23.5018 24.1265 23.6244 24.2 23.6918C24.3532 23.8328 24.3532 23.8022 24.2 23.4712C24.0836 23.2077 24.0774 23.2077 24.0774 23.3915Z" fill="white"/>
<path d="M18.3774 23.3548C18.3774 23.4283 18.6226 24.1699 18.6594 24.2067C18.6716 24.219 18.739 24.1822 18.8065 24.1209C18.9903 23.9554 18.9597 23.7164 18.7268 23.4896C18.5245 23.2935 18.3774 23.2383 18.3774 23.3548Z" fill="white"/>
<path d="M12.2729 23.5141C12.2913 23.5692 12.3097 23.6367 12.3097 23.6673C12.3097 23.698 12.3403 23.7225 12.3771 23.7225C12.4078 23.7225 12.42 23.698 12.4016 23.6612C12.3832 23.6244 12.4078 23.6183 12.4568 23.6367C12.5732 23.6796 12.5855 23.5938 12.4813 23.4896C12.371 23.3792 12.23 23.3976 12.2729 23.5141Z" fill="white"/>
<path d="M24.9784 23.4528C24.9048 23.5263 24.9294 23.7531 25.0274 23.8818C25.1132 23.9921 25.1132 23.9921 25.1132 23.845C25.1071 23.6183 25.0336 23.3976 24.9784 23.4528Z" fill="white"/>
<path d="M29.5016 23.7225C29.379 23.8512 29.3545 23.9064 29.4219 23.9064C29.5384 23.9064 29.7345 23.6919 29.7039 23.5999C29.6916 23.5631 29.6058 23.6183 29.5016 23.7225Z" fill="white"/>
<path d="M27.4852 23.6796C27.3932 23.747 27.4668 23.7838 28.0858 23.9799C28.4781 24.0963 28.7968 24.176 28.7968 24.1576C28.7968 24.0963 28.4168 23.747 28.2636 23.6673C28.0858 23.5754 27.62 23.5815 27.4852 23.6796Z" fill="white"/>
<path d="M18.2549 23.8328C18.2549 23.9615 18.4203 24.2128 18.5061 24.2128C18.5368 24.2128 18.5061 24.1025 18.4387 23.9677C18.3039 23.698 18.2549 23.6673 18.2549 23.8328Z" fill="white"/>
<path d="M13.0084 23.937C12.941 24.1147 13.0207 24.1638 13.1248 24.0044C13.2168 23.8634 13.2229 23.8451 13.1371 23.8451C13.0819 23.8451 13.0268 23.888 13.0084 23.937Z" fill="white"/>
<path d="M17.6481 24.1332C17.6174 24.2619 17.5807 24.4825 17.5623 24.6235C17.5378 24.8502 17.5439 24.887 17.6481 24.887C17.7952 24.887 18.0097 24.6786 18.0097 24.5315C18.0097 24.4151 17.789 23.9064 17.74 23.9064C17.7216 23.9064 17.6849 24.0106 17.6481 24.1332Z" fill="white"/>
<path d="M27.2461 23.9492C27.2216 23.9676 27.2032 24.127 27.2032 24.2925C27.2032 24.9789 27.5649 25.2792 28.3984 25.2792C28.8642 25.2792 29.3484 25.175 29.3484 25.077C29.3484 24.9115 28.6742 24.4825 27.8284 24.127C27.2461 23.8757 27.2952 23.8941 27.2461 23.9492Z" fill="white"/>
<path d="M32.6642 24.5315C32.18 25.0341 32.1555 25.0709 32.3148 25.0709C32.5355 25.0709 32.799 24.9299 32.9584 24.7276C33.081 24.5683 33.2342 24.127 33.1974 24.0412C33.1852 24.0167 32.9461 24.2373 32.6642 24.5315Z" fill="white"/>
<path d="M29.4587 24.0964C29.3423 24.1638 29.3055 24.3354 29.4097 24.3354C29.4465 24.3354 29.4894 24.3354 29.52 24.3354C29.5445 24.3354 29.5629 24.3109 29.5629 24.2802C29.5629 24.2496 29.5813 24.2005 29.6119 24.176C29.7345 24.0473 29.6303 23.9922 29.4587 24.0964Z" fill="white"/>
<path d="M11.611 24.2128C11.231 24.3599 10.7161 24.7092 10.7161 24.8134C10.7161 24.9421 11.0042 25.0095 11.7826 25.0708C13.1861 25.1812 13.2352 25.1628 12.9716 24.6541C12.6897 24.1086 12.2423 23.9676 11.611 24.2128Z" fill="white"/>
<path d="M30.1452 24.2741C30.1084 24.3415 30.0287 24.3967 29.9674 24.3967C29.7897 24.3967 29.6855 24.5561 29.7774 24.6725C29.8387 24.7522 29.8387 24.789 29.7529 24.8748C29.6181 25.028 29.6303 25.1015 29.8142 25.2241C29.9184 25.2915 29.9552 25.359 29.9307 25.4202C29.8816 25.549 30.0103 25.6225 30.2126 25.5796C30.3045 25.5612 30.3965 25.5796 30.4149 25.6164C30.4823 25.7267 30.6845 25.6961 30.7274 25.5673C30.7458 25.4938 30.8316 25.4386 30.9297 25.4264C31.0768 25.408 31.0952 25.3835 31.0952 25.1751C31.0952 25.0464 31.132 24.9238 31.1749 24.8931C31.279 24.8319 31.2055 24.6602 31.0584 24.6235C30.9849 24.6051 30.942 24.5377 30.942 24.4396C30.942 24.268 30.85 24.2128 30.6232 24.2557C30.5374 24.2741 30.4455 24.2557 30.4271 24.219C30.3597 24.1148 30.2187 24.1393 30.1452 24.2741ZM30.6232 24.6786C30.8071 24.8012 30.801 25.0402 30.6049 25.169C30.329 25.3467 30.0103 25.0831 30.1636 24.7951C30.28 24.5622 30.4149 24.5315 30.6232 24.6786Z" fill="white"/>
<path d="M15.0065 24.2925C15.0065 24.3844 15.221 25.0341 15.2884 25.1383C15.3558 25.2486 15.5581 25.0034 15.5581 24.8073C15.5581 24.6847 15.4907 24.5621 15.3497 24.4212C15.129 24.2005 15.0065 24.1576 15.0065 24.2925Z" fill="white"/>
<path d="M19.0761 24.4212C18.8432 24.5376 18.5613 24.7276 18.4448 24.8502C18.2548 25.0463 18.2487 25.0647 18.3529 25.1199C18.4203 25.1505 18.6042 25.1996 18.7636 25.218C19.1068 25.2731 20.5348 25.1996 20.6513 25.1321C20.7677 25.0586 20.4736 24.5192 20.2161 24.3476C19.9158 24.1454 19.5848 24.1699 19.0761 24.4212Z" fill="white"/>
<path d="M22.5452 24.2741C22.3919 24.3722 22.5207 24.4089 22.7842 24.3354C22.9252 24.2986 23.0355 24.2557 23.0355 24.2434C23.0355 24.1883 22.6371 24.2128 22.5452 24.2741Z" fill="white"/>
<path d="M24.9845 24.3967C24.6658 24.605 23.5871 25.6041 23.5871 25.6899C23.5871 25.7818 23.9487 25.935 24.2552 25.9718C24.77 26.0331 25.101 25.7205 25.3645 24.9544C25.6097 24.2128 25.5055 24.0534 24.9845 24.3967Z" fill="white"/>
<path d="M17.3723 24.3721C17.3171 24.5192 17.3294 24.7521 17.3968 24.795C17.4336 24.8195 17.4581 24.7215 17.4581 24.556C17.4581 24.2618 17.4336 24.2128 17.3723 24.3721Z" fill="white"/>
<path d="M24.1694 24.4089C23.7097 24.5744 23.44 24.9115 23.4768 25.2915L23.4952 25.506L23.8936 25.028C24.5248 24.2741 24.5248 24.2864 24.1694 24.4089Z" fill="white"/>
<path d="M34.1168 24.4212C33.6142 24.5561 33.3568 24.8012 33.2955 25.2057C33.2526 25.4448 33.3691 25.929 33.461 25.929C33.5713 25.929 34.6255 25.1812 34.981 24.8502C35.4284 24.4396 35.3916 24.3354 34.8216 24.3415C34.5949 24.3415 34.2762 24.3783 34.1168 24.4212Z" fill="white"/>
<path d="M22.729 24.4396C22.4348 24.4886 22.4103 24.507 22.4839 24.6418C22.5758 24.8135 22.7842 24.887 22.9742 24.8135C23.1397 24.7522 23.4032 24.5254 23.4032 24.4457C23.4032 24.3967 23.0171 24.3906 22.729 24.4396Z" fill="white"/>
<path d="M14.8839 24.7276C14.8839 24.8318 15.031 25.1321 15.1045 25.1567C15.1536 25.175 15.1903 25.175 15.1903 25.1628C15.1903 25.0892 14.9758 24.7031 14.9329 24.7031C14.9084 24.7031 14.8839 24.7154 14.8839 24.7276Z" fill="white"/>
<path d="M13.8665 25.0586C13.4803 25.3038 13.1494 25.8431 13.0145 26.4622C12.9778 26.646 12.99 26.6644 13.1249 26.6644C13.4007 26.6644 15.0249 25.4999 14.9942 25.3283C14.9697 25.2057 14.5713 25.0035 14.2894 24.9728C14.1239 24.9483 14.0013 24.9789 13.8665 25.0586Z" fill="white"/>
<path d="M16.079 25.0096C16.0545 25.0464 16.0178 25.0586 15.9871 25.0402C15.9074 24.9912 15.8645 25.0954 15.9258 25.1873C15.9932 25.3038 16.1465 25.2364 16.1894 25.077C16.22 24.9422 16.1465 24.8993 16.079 25.0096Z" fill="white"/>
<path d="M31.3465 25.3099C30.899 25.9167 30.7581 26.5296 30.9787 26.9034C31.0952 27.0996 31.4323 27.3325 31.6836 27.3815L31.8736 27.4183L31.849 26.3212C31.8123 24.8747 31.751 24.7521 31.3465 25.3099Z" fill="white"/>
<path d="M12.2974 25.3406C11.9358 25.3773 11.6294 25.4264 11.6049 25.4447C11.5313 25.5244 11.9971 25.6838 12.2913 25.6838C12.5058 25.6838 12.6468 25.6409 12.8184 25.5306C13.0207 25.3896 13.1249 25.2425 13.0023 25.2609C12.9716 25.267 12.659 25.3038 12.2974 25.3406Z" fill="white"/>
<path d="M19.8484 25.4693L19.1436 25.6041L19.3703 25.7083C19.6339 25.8248 20.0445 25.837 20.2345 25.7389C20.4919 25.6041 20.7616 25.2977 20.6023 25.3222C20.5716 25.3283 20.2345 25.3957 19.8484 25.4693Z" fill="white"/>
<path d="M16.7226 25.4938C16.2752 25.6409 16.0484 25.7512 16.0484 25.8186C16.0484 25.9534 17.0168 26.266 17.9607 26.4376C18.4203 26.5234 18.4387 26.5234 18.4755 26.407C18.5368 26.2109 18.3774 25.7696 18.1813 25.5796C18.0219 25.4263 17.9545 25.408 17.5316 25.3957C17.2007 25.3834 16.9616 25.4141 16.7226 25.4938Z" fill="white"/>
<path d="M27.1726 25.4386C27.1236 25.5183 27.2645 25.5183 27.3871 25.4386C27.4607 25.3896 27.4545 25.3773 27.3442 25.3773C27.2707 25.3773 27.191 25.4018 27.1726 25.4386Z" fill="white"/>
<path d="M34.2332 25.7389C33.5652 26.0944 33.5161 26.1741 33.9452 26.1741C34.3129 26.1741 34.6623 25.9473 34.8461 25.6041C34.8952 25.506 34.9258 25.4202 34.9136 25.4079C34.9013 25.3957 34.5948 25.5489 34.2332 25.7389Z" fill="white"/>
<path d="M27.2829 25.5428C27.1236 25.5734 27.0929 25.7144 27.24 25.7695C27.3442 25.8124 27.6936 25.6531 27.6936 25.5612C27.6936 25.4999 27.5403 25.4937 27.2829 25.5428Z" fill="white"/>
<path d="M32.5355 25.7818C32.5355 26.1802 32.6581 26.358 32.94 26.358C33.0565 26.358 33.1484 26.3396 33.1484 26.3151C33.1484 26.2476 32.7807 25.7022 32.6581 25.5918C32.5355 25.4815 32.5355 25.4876 32.5355 25.7818Z" fill="white"/>
<path d="M14.5774 26.0883C14.0687 26.6031 14.0626 26.6154 14.271 26.5725C14.7 26.4867 15.0249 26.217 15.1045 25.8922C15.1965 25.5244 15.0923 25.5673 14.5774 26.0883Z" fill="white"/>
<path d="M32.9645 25.696C32.9645 25.7818 33.1729 26.1741 33.2219 26.1741C33.32 26.1741 33.2648 25.9963 33.1177 25.8247C33.0381 25.7328 32.9645 25.6715 32.9645 25.696Z" fill="white"/>
<path d="M27.7855 25.8002C27.6874 25.8247 27.5403 25.886 27.4607 25.935C27.3136 26.027 27.0439 26.407 27.0929 26.456C27.1113 26.4683 27.4239 26.3457 27.7855 26.1741C28.1471 26.0025 28.4352 25.8554 28.4229 25.8431C28.3616 25.7879 27.951 25.7634 27.7855 25.8002Z" fill="white"/>
<path d="M20.9823 25.978C20.541 26.1925 20.0629 26.597 20.1426 26.6767C20.2529 26.787 21.0129 26.8483 21.7423 26.7993C22.1529 26.7686 22.5023 26.7318 22.5207 26.7073C22.5881 26.6399 22.3613 26.1986 22.1713 26.0147C21.9016 25.7573 21.4603 25.7451 20.9823 25.978Z" fill="white"/>
<path d="M32.2045 26.0515C32.1249 26.5051 32.0452 27.0689 32.0452 27.2099C32.0452 27.357 32.0452 27.357 32.1739 27.2406C32.4865 26.9586 32.56 26.5173 32.3578 26.0822L32.2474 25.837L32.2045 26.0515Z" fill="white"/>
<path d="M15.7358 26.0944C15.5765 26.266 15.3129 26.6767 15.3129 26.7502C15.3129 26.7686 15.411 26.787 15.5274 26.787C15.8094 26.787 15.9381 26.5909 15.9136 26.2047L15.8952 25.9167L15.7358 26.0944Z" fill="white"/>
<path d="M15.319 26.2722C15.2026 26.4193 15.1413 26.6644 15.221 26.6644C15.2639 26.6644 15.509 26.168 15.4784 26.1373C15.46 26.1189 15.3926 26.1802 15.319 26.2722Z" fill="white"/>
<path d="M28.2145 26.2966C27.43 26.5234 27.1419 26.646 27.1419 26.7563C27.1419 26.8973 27.571 27.2712 27.81 27.3386C28.1103 27.4183 28.4168 27.3263 28.7845 27.0383C29.0542 26.8237 29.471 26.2905 29.471 26.1618C29.471 26.0576 28.8029 26.125 28.2145 26.2966Z" fill="white"/>
<path d="M30.3719 26.1557C30.3474 26.1741 30.329 26.2476 30.329 26.3089C30.329 26.4805 30.5313 26.4253 30.5436 26.2476C30.5558 26.1189 30.4578 26.0637 30.3719 26.1557Z" fill="white"/>
<path d="M19.1129 26.407C19.1129 26.4744 19.3397 27.1363 19.3949 27.2221C19.4623 27.3325 19.6645 27.0873 19.6645 26.8912C19.6645 26.7686 19.6032 26.6583 19.4745 26.5357C19.2907 26.3641 19.1129 26.3028 19.1129 26.407Z" fill="white"/>
<path d="M33.5836 26.7625C33.1239 27.1915 32.4742 27.9576 32.4742 28.0618C32.4742 28.1537 32.8236 28.2579 33.1423 28.2579C33.7429 28.2579 34.1107 27.7554 34.172 26.8544C34.2149 26.2231 34.1597 26.217 33.5836 26.7625Z" fill="white"/>
<path d="M16.9248 26.6889C17.2497 26.9892 17.8319 27.0383 18.1874 26.8054L18.3468 26.7012L18.071 26.6583C17.9178 26.6399 17.5623 26.6031 17.2742 26.5786L16.7532 26.5357L16.9248 26.6889Z" fill="white"/>
<path d="M29.6549 26.8176C29.6549 26.9402 29.6978 27.118 29.7468 27.216C29.8265 27.3693 29.8816 27.3999 30.0532 27.3999C30.1697 27.3999 30.2678 27.3693 30.2678 27.3386C30.2678 27.2222 29.8203 26.6031 29.7407 26.6031C29.6855 26.6031 29.6549 26.6767 29.6549 26.8176Z" fill="white"/>
<path d="M32.8113 26.7808C32.4619 26.9954 32.3332 27.1915 32.3026 27.5531C32.2903 27.737 32.2903 27.8902 32.3149 27.8902C32.3394 27.8902 32.94 27.026 33.1116 26.7379C33.179 26.6276 33.0258 26.646 32.8113 26.7808Z" fill="white"/>
<path d="M30.2187 27.0015C30.2984 27.1609 30.3658 27.2528 30.3781 27.2161C30.421 27.0873 30.3291 26.8544 30.2065 26.787C30.09 26.7257 30.09 26.7319 30.2187 27.0015Z" fill="white"/>
<path d="M19.0516 26.9157C19.0516 27.0812 19.1987 27.3325 19.2661 27.2651C19.2907 27.2467 19.2477 27.1241 19.1803 26.9893C19.07 26.7748 19.0577 26.7686 19.0516 26.9157Z" fill="white"/>
<path d="M16.5081 27.0383C16.4836 27.1057 16.4836 27.1793 16.4958 27.1977C16.551 27.2467 16.6613 27.1547 16.6613 27.0628C16.6613 26.9218 16.551 26.8973 16.5081 27.0383Z" fill="white"/>
<path d="M21.7791 27.0383C21.442 27.0996 21.1232 27.1609 21.0742 27.1731C20.9149 27.2099 21.442 27.3999 21.6994 27.3999C21.9629 27.3999 22.1345 27.3325 22.3491 27.1364C22.4839 27.0138 22.5268 26.9035 22.441 26.9157C22.4103 26.9218 22.1161 26.9709 21.7791 27.0383Z" fill="white"/>
<path d="M15.0003 27.0383C14.8839 27.075 14.651 27.2038 14.4855 27.3263C14.1974 27.547 13.7807 28.025 13.7807 28.1415C13.7807 28.2579 14.5039 28.1905 15.2516 28.0128C16.2323 27.7738 16.2261 27.7738 16.0545 27.5041C15.8155 27.1179 15.3987 26.9341 15.0003 27.0383Z" fill="white"/>
<path d="M30.8623 27.0138C30.7948 27.118 30.6294 27.9025 30.66 27.9331C30.6784 27.9515 30.7642 27.9454 30.85 27.927C31.0461 27.878 31.1503 27.6512 31.1013 27.3876C31.0584 27.1363 30.9174 26.9218 30.8623 27.0138Z" fill="white"/>
<path d="M26.9642 27.1793C26.8478 27.3202 27.0378 27.4306 27.2155 27.3264L27.3565 27.2467L27.1848 27.2283C27.0929 27.2161 27.0316 27.1793 27.05 27.1486C27.1052 27.0628 27.0439 27.0812 26.9642 27.1793Z" fill="white"/>
<path d="M20.0629 27.2528C19.6523 27.4796 19.0087 28.2396 19.0761 28.4173C19.1068 28.4909 19.1742 28.5031 19.401 28.4664C19.689 28.4296 20.7003 28.1109 21.1539 27.9209C21.3684 27.8351 21.3807 27.8167 21.3071 27.6819C21.0742 27.2467 20.4613 27.0383 20.0629 27.2528Z" fill="white"/>
<path d="M29.1645 27.3815C29.1707 27.5837 29.3116 28.0005 29.661 28.8525C29.7652 29.1099 29.8449 29.1037 30.0778 28.8402C30.3903 28.4847 30.3229 28.0128 29.9184 27.6389C29.7161 27.4428 29.2932 27.1547 29.2197 27.1547C29.189 27.1547 29.1645 27.2589 29.1645 27.3815Z" fill="white"/>
<path d="M18.2365 27.6205C17.9729 28.0189 17.9668 28.0496 18.1323 28.1047C18.4019 28.1905 18.6226 27.9086 18.6226 27.4857C18.6226 27.1792 18.5 27.2221 18.2365 27.6205Z" fill="white"/>
<path d="M22.6065 27.3386C22.6065 27.3999 22.8516 27.8963 22.9681 28.0679C23.0539 28.1967 23.2194 28.0434 23.2194 27.835C23.2194 27.645 23.1826 27.5899 22.9497 27.4121C22.7658 27.2712 22.6065 27.2344 22.6065 27.3386Z" fill="white"/>
<path d="M30.5252 27.4122C30.4394 27.498 30.4332 27.7002 30.5068 27.8228C30.5436 27.878 30.5681 27.8167 30.5803 27.6205C30.5926 27.4673 30.6048 27.3386 30.6048 27.3386C30.5987 27.3386 30.5681 27.3693 30.5252 27.4122Z" fill="white"/>
<path d="M17.9913 27.5715C17.93 27.6328 17.8871 27.7676 17.8932 27.8657C17.8994 28.0373 17.9055 28.0312 18.0219 27.7799C18.1568 27.4796 18.1445 27.3999 17.9913 27.5715Z" fill="white"/>
<path d="M16.6858 27.8105C16.649 28.0618 16.7165 28.9996 16.8268 29.6799C16.8697 29.9802 16.9861 29.9802 17.3539 29.6983C17.8258 29.3367 17.8749 28.8708 17.501 28.2579C17.3171 27.9637 16.9065 27.5225 16.8084 27.5225C16.7594 27.5225 16.7103 27.6328 16.6858 27.8105Z" fill="white"/>
<path d="M27.1419 27.7554C27.1419 27.8534 27.1971 28.0925 27.2645 28.2947C27.4239 28.7483 27.9448 29.8515 28.0061 29.8515C28.0307 29.8515 28.1471 29.735 28.2697 29.5941C28.6497 29.1528 28.6374 28.7238 28.2207 28.2702C27.951 27.9699 27.3932 27.5838 27.2339 27.5838C27.1726 27.5838 27.1419 27.6389 27.1419 27.7554Z" fill="white"/>
<path d="M22.5881 27.8841C22.6249 28.0251 22.8332 28.2335 22.8884 28.1783C22.9313 28.1415 22.6678 27.7677 22.6003 27.7677C22.5758 27.7677 22.5697 27.8228 22.5881 27.8841Z" fill="white"/>
<path d="M31.6039 28.0863C31.4445 28.2641 31.3097 28.4418 31.3097 28.4847C31.3097 28.6073 31.7019 28.5828 31.8184 28.4541C31.9287 28.3315 32.0329 27.7676 31.9471 27.7676C31.9226 27.7676 31.7694 27.9086 31.6039 28.0863Z" fill="white"/>
<path d="M31.3403 28.0434C31.2545 28.1231 31.1871 28.2518 31.1871 28.3315C31.1871 28.4847 31.23 28.4479 31.4261 28.117C31.5855 27.8534 31.5549 27.8228 31.3403 28.0434Z" fill="white"/>
<path d="M15.4539 28.2151C15.1045 28.3499 14.8226 28.4786 14.8226 28.5031C14.8226 28.5767 15.2945 28.6196 15.5397 28.5644C15.7603 28.5093 16.171 28.1538 16.171 28.0128C16.171 27.927 16.1649 27.9331 15.4539 28.2151Z" fill="white"/>
<path d="M20.7187 28.3438C20.3694 28.5154 20.1058 28.6809 20.1303 28.7054C20.2161 28.7912 20.6758 28.7483 20.921 28.6257C21.1539 28.5154 21.4603 28.1293 21.3807 28.0496C21.3623 28.0373 21.0681 28.166 20.7187 28.3438Z" fill="white"/>
<path d="M28.9807 28.2763C28.9807 28.4357 29.0236 28.6502 29.0726 28.7483C29.1584 28.9199 29.5077 29.1589 29.5752 29.0976C29.5874 29.0792 29.4648 28.8218 29.2932 28.5215L28.9807 27.9821V28.2763Z" fill="white"/>
<path d="M21.5768 28.3806C21.2519 28.4541 21.2152 28.5338 21.4174 28.7177C21.6197 28.9015 23.1213 29.6677 23.2868 29.6677C23.4339 29.6677 23.4829 29.4838 23.4278 29.1406C23.3787 28.8157 23.1581 28.5215 22.87 28.4051C22.6555 28.3131 21.9139 28.3009 21.5768 28.3806Z" fill="white"/>
<path d="M18.6594 28.5215C18.641 28.6012 18.6103 28.8218 18.5858 29.0179C18.5429 29.3734 18.5429 29.3734 18.69 29.3305C18.9229 29.257 18.9903 29.1773 18.9903 28.9505C18.9903 28.736 18.8432 28.3805 18.7513 28.3805C18.7207 28.3805 18.6839 28.4418 18.6594 28.5215Z" fill="white"/>
<path d="M16.2323 28.595C16.1955 28.6992 16.171 28.9383 16.1832 29.1344C16.2078 29.4347 16.2384 29.5205 16.4039 29.6799C16.5081 29.7902 16.6123 29.8576 16.6368 29.8331C16.6613 29.8086 16.5939 29.4838 16.4958 29.1038C16.312 28.4357 16.3058 28.4173 16.2323 28.595Z" fill="white"/>
<path d="M26.9581 28.8831C26.9642 29.3061 27.1542 29.6493 27.4607 29.7902C27.6016 29.8515 27.7303 29.8944 27.7426 29.8822C27.7671 29.8577 27.0255 28.6257 26.9826 28.6257C26.9703 28.6257 26.9581 28.7422 26.9581 28.8831Z" fill="white"/>
<path d="M18.3529 28.8463C18.2978 28.9934 18.31 29.0854 18.4081 29.2141C18.4878 29.3244 18.4939 29.306 18.5 29.0363C18.5 28.7544 18.4265 28.6563 18.3529 28.8463Z" fill="white"/>
<path d="M20.9516 28.8831C20.9516 28.9383 21.2826 29.5819 21.3561 29.6615C21.4113 29.7228 21.5645 29.5144 21.5645 29.3796C21.5645 29.1651 21.4665 29.0057 21.2581 28.9015C21.0436 28.7912 20.9516 28.7851 20.9516 28.8831Z" fill="white"/>
<path d="M26.6823 29.1406C26.6823 29.2754 26.7803 29.3183 26.8723 29.2202C26.9152 29.1773 26.7926 28.9935 26.719 28.9935C26.7007 28.9935 26.6823 29.0609 26.6823 29.1406Z" fill="white"/>
<path d="M32.1739 29.1834C32.0452 29.306 31.9226 29.545 31.9226 29.6738C31.9226 29.7963 33.3445 29.6799 33.4794 29.5389C33.5529 29.4715 33.4058 29.355 33.0442 29.1773C32.701 29.0179 32.3516 29.0179 32.1739 29.1834Z" fill="white"/>
<path d="M20.8903 29.2509C20.8842 29.3735 21.0252 29.6064 21.1355 29.6676C21.2029 29.7044 21.2581 29.7106 21.2581 29.686C21.2519 29.6247 20.8965 29.1957 20.8903 29.2509Z" fill="white"/>
<path d="M19.2355 29.4837C19.0516 29.5757 18.7881 29.7534 18.6532 29.8699C18.451 30.0476 18.4203 30.1028 18.4878 30.1702C18.5797 30.2621 19.6952 30.3173 20.3755 30.2499C20.7923 30.2131 20.829 30.2008 20.829 30.0721C20.829 29.9066 20.5226 29.4592 20.3449 29.3673C20.112 29.2386 19.5971 29.2937 19.2355 29.4837Z" fill="white"/>
<path d="M21.9261 29.6002C22.0732 29.8025 22.5084 30.0354 22.7474 30.0354C22.9681 30.0354 23.25 29.9189 23.1826 29.8577C23.1336 29.8086 21.9384 29.4225 21.8403 29.4225C21.8219 29.4225 21.8587 29.5022 21.9261 29.6002Z" fill="white"/>
<path d="M77.9516 30.158L76.5726 30.826L76.5542 31.5309L76.5358 32.2418L77.0445 32.0212C77.3265 31.8986 77.9577 31.635 78.4603 31.4267L79.3613 31.0528V30.2683C79.3613 29.8392 79.3552 29.4838 79.349 29.4899C79.3368 29.4899 78.7116 29.7902 77.9516 30.158Z" fill="white"/>
<path d="M26.5597 29.735C26.5168 29.9189 26.5719 30.587 26.6271 30.587C26.6455 30.587 26.7252 30.5441 26.8048 30.4889C27.0439 30.3357 26.9765 29.8515 26.6945 29.6125C26.6148 29.5512 26.5965 29.5696 26.5597 29.735Z" fill="white"/>
<path d="M30.5436 29.6308C30.4394 29.6737 30.2616 29.8024 30.1513 29.9128C29.9 30.1641 29.8939 30.1579 30.8071 30.5563C31.4874 30.8566 32.1249 31.0466 32.229 30.9853C32.321 30.9302 32.0084 30.3663 31.7019 30.0353C31.2729 29.5757 30.9358 29.4592 30.5436 29.6308Z" fill="white"/>
<path d="M31.9839 29.8821C31.9839 30.0783 32.6458 30.1702 32.8665 30.0047C32.9829 29.9189 32.9768 29.9128 32.7684 29.9128C32.652 29.9128 32.4252 29.8944 32.2658 29.876C32.1126 29.8515 31.9839 29.8576 31.9839 29.8821Z" fill="white"/>
<path d="M26.3145 30.1151C26.2716 30.2683 26.3636 30.5257 26.4616 30.5257C26.5107 30.5257 26.431 30.0415 26.3758 29.9863C26.3636 29.968 26.3329 30.0292 26.3145 30.1151Z" fill="white"/>
<path d="M21.8342 30.4031C21.4419 30.5992 20.8536 31.1447 20.9148 31.255C20.9761 31.3531 21.871 31.3408 22.5145 31.2305C23.2132 31.1079 23.2807 31.0896 23.2807 30.9915C23.2807 30.8383 22.9007 30.3908 22.6984 30.305C22.3919 30.1825 22.2387 30.1947 21.8342 30.4031Z" fill="white"/>
<path d="M29.9613 30.4337C29.9613 30.6237 30.2003 30.9363 30.421 31.0405C30.5558 31.1079 30.7458 31.1386 30.9236 31.1263L31.2116 31.1079L30.7274 30.8137C30.4639 30.6483 30.1819 30.4705 30.1023 30.4215C29.9736 30.3357 29.9613 30.3357 29.9613 30.4337Z" fill="white"/>
<path d="M19.971 30.5318C19.6523 30.5931 19.3765 30.6422 19.3581 30.6483C19.2723 30.6605 19.6645 30.8322 19.8607 30.8628C20.161 30.918 20.4613 30.8138 20.6758 30.587L20.8536 30.4031L20.7003 30.4093C20.6207 30.4154 20.2897 30.4644 19.971 30.5318Z" fill="white"/>
<path d="M28.7232 30.9486C28.5639 31.0466 28.4045 31.1876 28.3678 31.2612C28.3065 31.3837 28.3371 31.4082 28.9316 31.6841C29.8632 32.1192 30.4945 32.3031 30.5497 32.156C30.6355 31.9292 30.0103 31.1079 29.5813 30.8873C29.2626 30.7279 29.0542 30.7402 28.7232 30.9486Z" fill="white"/>
<path d="M22.6187 31.4451C21.8219 31.6902 21.8097 31.6902 21.9629 31.7515C22.0303 31.7822 22.2448 31.8067 22.4348 31.8067C22.7597 31.8128 22.8087 31.7944 23.0355 31.5922C23.2623 31.3838 23.3419 31.2551 23.2378 31.2673C23.2071 31.2673 22.9313 31.347 22.6187 31.4451Z" fill="white"/>
<path d="M30.7581 31.4328C30.6784 31.4941 30.6355 31.5738 30.6539 31.6105C30.7029 31.6902 31.181 31.8128 31.4445 31.8128L31.6468 31.8067L31.3894 31.5676C31.1013 31.298 30.9603 31.2673 30.7581 31.4328Z" fill="white"/>
<path d="M28.3371 31.7944C28.5026 32.2051 28.8642 32.4012 29.3361 32.3522C29.5261 32.3338 29.5078 32.3154 28.9194 31.9477C28.5823 31.7393 28.2942 31.5677 28.2758 31.5677C28.2574 31.5677 28.2881 31.6718 28.3371 31.7944Z" fill="white"/>
<path d="M30.7336 31.8802C30.8132 31.9599 30.9236 31.9966 31.0094 31.9844C31.1503 31.966 31.1503 31.9599 30.9603 31.8557C30.6907 31.7086 30.5803 31.7208 30.7336 31.8802Z" fill="white"/>
<path d="M27.5097 31.9231C27.3319 32.0089 27.2952 32.0641 27.2768 32.2541C27.2645 32.4196 27.2829 32.487 27.3381 32.487C27.4361 32.487 28.0613 31.9538 28.0613 31.868C28.0613 31.776 27.7365 31.8067 27.5097 31.9231Z" fill="white"/>
<path d="M27.6016 32.4563C27.3687 32.5973 27.3687 32.6034 27.5158 32.6096C27.6016 32.6096 27.7242 32.5544 27.7855 32.487C27.951 32.3031 27.8713 32.2908 27.6016 32.4563Z" fill="white"/>
<path d="M47.4291 32.6463C45.8661 32.9099 44.9836 33.6576 44.6281 35.0121C44.4994 35.5209 44.4994 36.5015 44.6342 37.0163C44.9223 38.138 45.7497 38.9715 46.8468 39.2596C47.3187 39.3821 48.3361 39.3821 48.8081 39.2596C49.611 39.045 50.3832 38.4199 50.7265 37.6905C50.8368 37.4638 50.9226 37.2492 50.9226 37.2125C50.9226 37.1634 50.5978 37.145 49.8623 37.145H48.802L48.661 37.335C48.3974 37.6905 47.8274 37.8438 47.3616 37.6844C46.902 37.5312 46.6323 37.2063 46.5403 36.6976L46.4974 36.4709H48.7652C51.3394 36.4709 51.1065 36.526 51.1065 35.9009C51.1003 35.0183 50.751 34.105 50.1932 33.5534C49.85 33.2102 49.2187 32.8486 48.7774 32.7444C48.4526 32.6647 47.6497 32.6096 47.4291 32.6463ZM48.5568 34.4728C48.8387 34.6873 49.0226 34.9754 49.0226 35.196V35.3676H47.76H46.5036L46.5465 35.2267C46.761 34.528 47.1532 34.2521 47.8949 34.2767C48.2626 34.295 48.3668 34.3257 48.5568 34.4728Z" fill="white"/>
<path d="M70.6519 32.6709C70.2045 32.7444 69.8307 32.9405 69.4629 33.2899L69.1258 33.6086V33.1673V32.7321H68.1145H67.1032V37.5741V42.416H68.1145H69.1258V40.418V38.4199L69.4016 38.7018C69.5549 38.8489 69.8368 39.0512 70.0329 39.1492C70.3578 39.3086 70.4313 39.3209 71.1484 39.3209C71.8839 39.3209 71.9329 39.3147 72.3313 39.1247C73.3794 38.6283 74.029 37.4331 74.029 36.0173C74.029 35.2941 73.9065 34.7547 73.6307 34.2031C73.2139 33.3757 72.4661 32.8118 71.6019 32.6709C71.1974 32.6034 71.0565 32.6034 70.6519 32.6709ZM71.0749 34.485C71.8042 34.7854 72.1719 35.6863 71.9145 36.5689C71.8349 36.8509 71.749 36.9918 71.5161 37.2186C71.0565 37.6599 70.5171 37.7518 69.9471 37.4883C69.4016 37.2309 69.1319 36.7467 69.1319 36.0112C69.1319 35.5209 69.2239 35.2205 69.4629 34.9018C69.8 34.4605 70.5539 34.2644 71.0749 34.485Z" fill="white"/>
<path d="M77.4613 32.6647C75.7942 32.8915 74.7032 34.2031 74.7032 35.9806C74.7032 37.6293 75.5919 38.8796 77.0384 39.2596C77.4919 39.3822 78.5768 39.376 78.9997 39.2535C79.9681 38.9715 80.7342 38.2728 81.0407 37.4025L81.1326 37.1451H80.0845H79.0426L78.8036 37.3841C78.2152 37.9909 77.1855 37.8193 76.8423 37.0531C76.781 36.9183 76.7258 36.7344 76.7258 36.6364V36.4709H78.9936H81.2613V35.8702C81.2613 35.2083 81.1694 34.7793 80.9119 34.2828C80.5687 33.5964 79.8945 33.0264 79.1529 32.7996C78.7116 32.6647 77.9332 32.6035 77.4613 32.6647ZM78.5461 34.3564C78.8526 34.4851 78.9874 34.6138 79.1223 34.908C79.3429 35.386 79.3981 35.3676 77.9823 35.3676C77.02 35.3676 76.7258 35.3493 76.7258 35.288C76.7319 35.147 76.9526 34.7241 77.0997 34.5954C77.4736 34.2644 78.0803 34.1602 78.5461 34.3564Z" fill="white"/>
<path d="M55.3661 32.7505C54.9677 32.8854 54.649 33.0693 54.4039 33.3083L54.171 33.5351V33.1305V32.7322H53.1597H52.1484V36.0112V39.2902H53.1597H54.171V37.3718C54.171 36.1644 54.1955 35.3676 54.2384 35.2144C54.459 34.4238 55.599 34.1234 56.261 34.6751C56.6655 35.0183 56.6839 35.1164 56.6839 37.3105V39.2902H57.6952H58.7065V37.3105C58.7065 35.527 58.7187 35.3125 58.8229 35.0918C59.2274 34.197 60.6065 34.1602 61.06 35.0305C61.1826 35.2634 61.1887 35.386 61.2071 37.2799L61.2255 39.2902H62.2061H63.1868L63.1684 36.9122L63.15 34.5402L62.9416 34.0928C62.6781 33.5351 62.1877 33.0509 61.6668 32.8486C61.3726 32.7322 61.1887 32.7076 60.6065 32.7076C59.9077 32.7015 59.8894 32.7076 59.4358 32.9283C59.1232 33.0815 58.8658 33.2654 58.6452 33.5044L58.3203 33.8476L58.1916 33.676C57.971 33.3634 57.6461 33.0999 57.2477 32.9038C56.9045 32.7322 56.7881 32.7076 56.2365 32.6893C55.8258 32.677 55.5255 32.7015 55.3661 32.7505Z" fill="white"/>
<path d="M26.9703 32.8915C26.7374 33.0141 26.4678 33.4309 26.4678 33.6821V33.8538L27.2216 33.817C27.9755 33.7802 28.5455 33.6883 28.7539 33.578C28.8642 33.5228 28.8642 33.5105 28.7355 33.3757C28.5271 33.1551 27.8774 32.8609 27.5036 32.8241C27.2584 32.7996 27.1174 32.818 26.9703 32.8915Z" fill="white"/>
<path d="M26.5413 34.0989C26.5536 34.1357 26.6884 34.2338 26.8355 34.3135C27.0439 34.4176 27.1726 34.4483 27.3503 34.4176C27.6384 34.3747 27.9694 34.2093 27.9019 34.1418C27.8713 34.1173 27.5465 34.0806 27.1849 34.056C26.67 34.0254 26.5229 34.0376 26.5413 34.0989Z" fill="white"/>
</svg>
