<svg width="31" height="16" viewBox="0 0 31 16" fill="none" xmlns="http://www.w3.org/2000/svg">
<path d="M1.27 7.96198V15.258H3.2688H5.2676L5.3588 15.3473L5.45 15.4385L5.5602 15.3283L5.6685 15.22L5.5602 15.1117L5.45 15.0015L5.3588 15.0927L5.2676 15.182H3.3068H1.346V7.96198V0.741977H6.59H11.834V7.96198V15.182L9.7592 15.1858C7.7984 15.1915 7.6825 15.1934 7.6768 15.2238C7.6711 15.2561 7.7813 15.258 9.7896 15.258H11.91V7.96198V0.665977H6.59H1.27V7.96198Z" fill="white"/>
<path d="M7.90861 3.49127C7.90101 3.51027 7.89151 3.67747 7.88581 3.86177C7.87631 4.24747 7.87251 4.23797 8.03591 4.15057C8.18601 4.06887 8.22211 3.93587 8.14801 3.74017C8.10241 3.62237 7.98841 3.45897 7.95041 3.45897C7.93521 3.45897 7.91811 3.47417 7.90861 3.49127Z" fill="white"/>
<path d="M7.19231 3.49127C7.15241 3.53117 7.23791 4.15247 7.29111 4.20567C7.31201 4.22657 7.40131 4.18097 7.45831 4.12017C7.51911 4.05557 7.54381 3.97387 7.53051 3.89217C7.51341 3.79907 7.39371 3.61857 7.29491 3.53877C7.21321 3.47227 7.21131 3.47227 7.19231 3.49127Z" fill="white"/>
<path d="M6.286 3.6623C6.286 3.7288 6.5501 4.124 6.6622 4.2266C6.6964 4.2551 6.7021 4.2551 6.7287 4.2304C6.7439 4.2133 6.7724 4.162 6.7895 4.1164C6.8313 4.0062 6.8161 3.9169 6.7401 3.8295C6.6717 3.7535 6.4817 3.6547 6.3677 3.6376C6.2955 3.6262 6.286 3.63 6.286 3.6623Z" fill="white"/>
<path d="M7.7224 3.80099C7.6806 3.90549 7.6844 4.00049 7.7338 4.08789C7.7775 4.16769 7.825 4.19809 7.825 4.14679C7.8231 4.09169 7.7699 3.74019 7.7623 3.73259C7.7566 3.72689 7.7395 3.75729 7.7224 3.80099Z" fill="white"/>
<path d="M7.0574 3.81049C7.0365 3.86749 7.046 4.03089 7.0745 4.08599C7.1011 4.13919 7.1885 4.21899 7.2189 4.21899C7.2303 4.21899 7.0935 3.80479 7.0764 3.78579C7.0726 3.78389 7.065 3.79339 7.0574 3.81049Z" fill="white"/>
<path d="M4.97501 3.9416C4.97501 4.0594 5.17071 4.599 5.21441 4.599C5.23911 4.599 5.34361 4.4907 5.37211 4.4337C5.43101 4.3197 5.37401 4.1582 5.22771 4.029C5.14791 3.9606 5.01681 3.877 4.98451 3.877C4.97881 3.877 4.97501 3.9055 4.97501 3.9416Z" fill="white"/>
<path d="M6.305 3.98145C6.305 4.00235 6.3259 4.06505 6.3525 4.12015C6.3905 4.20185 6.4133 4.22655 6.4798 4.25695C6.5653 4.29495 6.628 4.30635 6.628 4.27975C6.628 4.27215 6.5558 4.19425 6.4665 4.10495C6.3468 3.98715 6.305 3.95485 6.305 3.98145Z" fill="white"/>
<path d="M4.5304 4.06887C4.4734 4.11257 4.462 4.15627 4.5152 4.12587C4.5323 4.11447 4.5684 4.08977 4.595 4.06887C4.6311 4.04037 4.6349 4.02897 4.6121 4.02897C4.595 4.02897 4.5589 4.04607 4.5304 4.06887Z" fill="white"/>
<path d="M16.6315 4.07645C16.5707 4.13535 16.5688 4.19995 16.6239 4.19995C16.6467 4.19995 16.6752 4.18665 16.6885 4.16955C16.7094 4.13915 16.717 4.13915 16.7968 4.17145C16.8728 4.19995 16.8918 4.19995 16.9374 4.17715C16.9659 4.16385 17.002 4.12395 17.0153 4.08975C17.04 4.03085 17.0381 4.02895 16.9906 4.02895C16.964 4.02895 16.9298 4.04225 16.9146 4.05745C16.888 4.08215 16.8785 4.08215 16.831 4.05745C16.7512 4.01565 16.6847 4.02325 16.6315 4.07645Z" fill="white"/>
<path d="M4.61021 4.10688C4.54941 4.13728 4.50001 4.17148 4.50001 4.18098C4.50001 4.21328 4.58741 4.24368 4.63871 4.23038C4.68431 4.21898 4.76601 4.11638 4.76601 4.06888C4.76601 4.03658 4.72801 4.04418 4.61021 4.10688Z" fill="white"/>
<path d="M8.60971 4.0917C8.52041 4.1392 8.26011 4.3406 8.17841 4.4261C8.14801 4.4565 8.12901 4.4945 8.13471 4.5097C8.14611 4.542 8.30191 4.599 8.37411 4.599C8.44061 4.599 8.53181 4.5401 8.59261 4.4603C8.67811 4.3482 8.75791 4.0708 8.70851 4.0556C8.69901 4.0518 8.65341 4.0689 8.60971 4.0917Z" fill="white"/>
<path d="M20.574 4.18097C20.574 4.25317 20.5702 4.31397 20.5664 4.31397C20.5607 4.31397 20.5265 4.29497 20.4885 4.27407C20.4087 4.22657 20.2928 4.23227 20.2168 4.28927C20.0515 4.41277 20.061 4.75097 20.232 4.85167C20.308 4.89727 20.4505 4.89347 20.5189 4.84407L20.574 4.80607V4.84407C20.574 4.87827 20.5854 4.88397 20.669 4.88397H20.764V4.46597V4.04797H20.669H20.574V4.18097ZM20.5113 4.43747C20.6006 4.50017 20.5797 4.65977 20.4752 4.70917C20.3365 4.77567 20.2225 4.56857 20.3365 4.45647C20.3897 4.40327 20.4524 4.39567 20.5113 4.43747Z" fill="white"/>
<path d="M8.2715 4.12206C8.2278 4.14106 8.1727 4.18286 8.1442 4.21516C8.0986 4.27026 8.0568 4.40136 8.0796 4.42226C8.0891 4.43366 8.3513 4.16196 8.3817 4.11256C8.4026 4.07646 8.3646 4.08026 8.2715 4.12206Z" fill="white"/>
<path d="M16.052 4.17147C16.052 4.24367 16.0463 4.25697 16.014 4.25697C15.9817 4.25697 15.976 4.27027 15.976 4.33297C15.976 4.39567 15.9817 4.40897 16.014 4.40897C16.0482 4.40897 16.052 4.42227 16.052 4.55907C16.052 4.64077 16.0615 4.73577 16.0729 4.76997C16.0995 4.84217 16.1812 4.88397 16.299 4.88397H16.375V4.80037C16.375 4.71867 16.3731 4.71487 16.3142 4.70917L16.2515 4.70347L16.2458 4.55527L16.2401 4.40897H16.3085C16.3731 4.40897 16.375 4.40707 16.375 4.33487C16.375 4.26457 16.3712 4.25887 16.3142 4.25317C16.2553 4.24747 16.2515 4.24177 16.2458 4.16577L16.2401 4.08597H16.1451H16.052V4.17147Z" fill="white"/>
<path d="M7.597 4.15059C7.597 4.18669 7.6768 4.35199 7.692 4.35199C7.6996 4.35199 7.7129 4.33299 7.7243 4.30829C7.7509 4.24939 7.7243 4.18859 7.6559 4.15249C7.6046 4.12589 7.597 4.12589 7.597 4.15059Z" fill="white"/>
<path d="M4.3689 4.2057C4.3594 4.2304 4.3461 4.2988 4.3385 4.3577C4.3233 4.4774 4.3404 4.4926 4.4202 4.4356C4.4715 4.4014 4.4772 4.3026 4.4335 4.219C4.3974 4.1506 4.3898 4.1487 4.3689 4.2057Z" fill="white"/>
<path d="M6.9054 4.19239C6.8788 4.26079 6.9111 4.65599 6.9605 4.85929C6.9738 4.91629 7.0194 4.91439 7.1087 4.85549C7.2436 4.76239 7.2683 4.64079 7.1866 4.46599C7.1448 4.37479 6.9643 4.16199 6.9301 4.16199C6.9225 4.16199 6.9111 4.17529 6.9054 4.19239Z" fill="white"/>
<path d="M5.7312 4.21329C5.6609 4.29309 5.4329 4.83459 5.4576 4.86119C5.4804 4.88399 5.6685 4.86309 5.7217 4.83079C5.8205 4.77379 5.8585 4.68639 5.8566 4.52299C5.8566 4.38619 5.8072 4.18099 5.7749 4.18099C5.7673 4.18099 5.7464 4.19619 5.7312 4.21329Z" fill="white"/>
<path d="M6.0846 4.22847C6.0675 4.25507 6.039 4.27597 6.0219 4.27597C5.9687 4.27597 5.944 4.31396 5.9687 4.35386C5.9858 4.38046 5.982 4.39566 5.9573 4.42416C5.9193 4.46596 5.9307 4.51536 5.9839 4.52866C6.0067 4.53436 6.02 4.55526 6.02 4.58566C6.02 4.63696 6.0561 4.66166 6.096 4.63696C6.1131 4.62746 6.1435 4.63316 6.1777 4.65216C6.2214 4.67686 6.2366 4.67876 6.2423 4.65976C6.2575 4.61796 6.3088 4.57806 6.3354 4.58756C6.3696 4.60086 6.4057 4.53626 6.3791 4.50966C6.3582 4.48876 6.3753 4.42796 6.4019 4.42796C6.438 4.42796 6.4171 4.37096 6.3715 4.34056C6.3449 4.32346 6.324 4.29497 6.324 4.27787C6.324 4.22467 6.286 4.19997 6.2461 4.22467C6.2195 4.24177 6.2043 4.23987 6.1758 4.21327C6.1302 4.17147 6.1207 4.17147 6.0846 4.22847ZM6.2309 4.35196C6.2727 4.37476 6.2803 4.46406 6.2442 4.50016C6.2309 4.51346 6.1986 4.52296 6.172 4.52296C6.1093 4.52296 6.077 4.49066 6.077 4.42416C6.077 4.34816 6.153 4.31206 6.2309 4.35196Z" fill="white"/>
<path d="M4.899 4.29499C4.899 4.43749 4.975 4.55719 5.0928 4.59709L5.1479 4.61609L5.0776 4.48879C5.0396 4.41849 4.9902 4.32919 4.9693 4.28929C4.918 4.19809 4.899 4.19999 4.899 4.29499Z" fill="white"/>
<path d="M7.84971 4.2418C7.86871 4.295 7.95421 4.8726 7.98651 5.1595C8.02261 5.5034 8.05301 5.9195 8.05301 6.1V6.2425L8.00551 6.1627C7.95041 6.0734 7.82881 5.986 7.67681 5.929C7.55331 5.8815 7.52671 5.8967 7.55711 5.9898C7.58371 6.0696 7.70531 6.2805 7.81741 6.4344C7.91621 6.575 7.94091 6.575 8.00931 6.4344L8.05681 6.3375L8.04541 6.6985C8.02641 7.3844 7.90101 7.9487 7.69771 8.2907C7.66161 8.3515 7.62551 8.399 7.61791 8.3952C7.61031 8.3914 7.53241 8.3116 7.44501 8.2185C6.99471 7.7378 6.59571 7.4509 6.33351 7.4186L6.23851 7.4072L6.40001 7.5554C7.19611 8.2812 7.36901 8.5776 7.34431 9.1666C7.32721 9.5485 7.20371 9.9969 6.89021 10.8025C6.64511 11.4314 6.52541 11.8475 6.35061 12.674C6.13781 13.6848 6.00291 14.7887 6.04661 15.1497L6.05991 15.258H6.66981H7.27781L7.26641 15.1478C7.21701 14.6804 7.20181 13.6582 7.23601 13.1775C7.32721 11.9273 7.62551 10.9621 8.14231 10.2363C8.28291 10.0387 8.60971 9.7005 8.80351 9.5485C9.21771 9.2255 9.73641 8.9975 10.333 8.874C10.6237 8.8132 10.6218 8.8094 10.314 8.836C9.42861 8.9139 8.59831 9.2179 8.13851 9.634C8.07961 9.6872 8.02831 9.729 8.02451 9.7252C8.02261 9.7214 8.05301 9.5903 8.09101 9.4326C8.16701 9.1267 8.24301 8.7087 8.29051 8.3325C8.45581 7.012 8.39501 5.5471 8.14611 4.7833C8.08341 4.5895 7.93711 4.2969 7.87821 4.2456C7.84211 4.2133 7.83831 4.2133 7.84971 4.2418Z" fill="white"/>
<path d="M7.578 4.26838C7.578 4.29118 7.5913 4.31968 7.6065 4.33298C7.6521 4.37098 7.6559 4.34628 7.616 4.28548C7.5818 4.23418 7.578 4.23228 7.578 4.26838Z" fill="white"/>
<path d="M14.228 4.25887C14.1083 4.30637 14.038 4.42037 14.038 4.56477C14.038 4.76807 14.1501 4.88397 14.3477 4.88397C14.4788 4.88397 14.5738 4.83647 14.6175 4.75097C14.6612 4.66737 14.6536 4.65597 14.551 4.65597C14.4807 4.65597 14.4465 4.66547 14.418 4.69397C14.3971 4.71487 14.3667 4.73197 14.3515 4.73197C14.3002 4.73197 14.228 4.64267 14.228 4.57997C14.228 4.43367 14.3458 4.35577 14.4275 4.44697C14.4769 4.50207 14.646 4.50207 14.646 4.44887C14.646 4.39757 14.5548 4.29497 14.4807 4.26457C14.4104 4.23417 14.2964 4.23227 14.228 4.25887Z" fill="white"/>
<path d="M14.874 4.27977C14.779 4.34437 14.7372 4.41467 14.7258 4.52107C14.7144 4.64267 14.76 4.76997 14.8379 4.83647C14.9139 4.89917 15.0716 4.90487 15.1476 4.84407L15.197 4.80607V4.84407C15.197 4.87827 15.2084 4.88397 15.292 4.88397H15.387V4.57047V4.25697H15.292C15.2198 4.25697 15.197 4.26457 15.197 4.28547C15.197 4.30827 15.1856 4.30827 15.1267 4.27597C15.0336 4.22657 14.9519 4.22847 14.874 4.27977ZM15.1495 4.45647C15.2426 4.54767 15.1894 4.71867 15.0678 4.71867C14.9576 4.71867 14.8949 4.62177 14.931 4.51157C14.9671 4.40137 15.0697 4.37477 15.1495 4.45647Z" fill="white"/>
<path d="M15.8316 4.26457C15.7974 4.27977 15.7613 4.30637 15.7499 4.32727C15.7328 4.35767 15.7309 4.35577 15.729 4.30827C15.729 4.25887 15.7252 4.25697 15.634 4.25697H15.539V4.57047V4.88397H15.634H15.729V4.70347C15.729 4.49827 15.7556 4.44697 15.862 4.44697C15.919 4.44697 15.919 4.44507 15.919 4.34247C15.919 4.28547 15.9133 4.23797 15.9057 4.23797C15.8962 4.23987 15.8639 4.25127 15.8316 4.26457Z" fill="white"/>
<path d="M16.603 4.2722C16.5099 4.3235 16.451 4.4318 16.451 4.5572C16.451 4.6826 16.4852 4.7662 16.5631 4.8327C16.6429 4.8992 16.7987 4.9049 16.8766 4.8441L16.926 4.8061V4.8441C16.926 4.8783 16.9374 4.884 17.021 4.884H17.116V4.5705V4.257H17.021C16.9355 4.257 16.926 4.2608 16.926 4.2988V4.3387L16.8804 4.2969C16.8158 4.2361 16.6904 4.2247 16.603 4.2722ZM16.8785 4.4565C16.9925 4.5705 16.8709 4.7757 16.7265 4.7092C16.6334 4.6674 16.6182 4.4983 16.7037 4.4375C16.7626 4.3957 16.8253 4.4033 16.8785 4.4565Z" fill="white"/>
<path d="M17.4295 4.26077C17.2984 4.30637 17.23 4.41467 17.23 4.57427C17.23 4.77567 17.3402 4.88397 17.5435 4.88397C17.7658 4.88397 17.8836 4.76427 17.8703 4.54767C17.8627 4.40517 17.8247 4.34247 17.705 4.27977C17.6157 4.23607 17.5226 4.22847 17.4295 4.26077ZM17.6461 4.45837C17.7145 4.54577 17.6898 4.67307 17.5948 4.71107C17.4979 4.75097 17.42 4.68447 17.42 4.55907C17.42 4.42417 17.5682 4.35957 17.6461 4.45837Z" fill="white"/>
<path d="M19.073 4.27977C18.9571 4.34057 18.9153 4.40517 18.9058 4.53627C18.8925 4.75097 19.016 4.88397 19.2269 4.88397C19.3504 4.88397 19.4378 4.83647 19.4967 4.73577L19.5328 4.67497H19.4283C19.3599 4.67497 19.3162 4.68447 19.301 4.70347C19.2516 4.76237 19.092 4.71107 19.092 4.63697C19.092 4.62557 19.1775 4.61797 19.3086 4.61797C19.5518 4.61797 19.5518 4.61797 19.5271 4.48117C19.51 4.38047 19.4606 4.31587 19.3713 4.27407C19.2649 4.22657 19.1756 4.22847 19.073 4.27977ZM19.2972 4.42037C19.377 4.47547 19.3504 4.50397 19.2155 4.50397C19.0977 4.50397 19.092 4.50207 19.111 4.46597C19.1509 4.38997 19.2288 4.37097 19.2972 4.42037Z" fill="white"/>
<path d="M19.9565 4.25697C19.9337 4.26457 19.9052 4.28547 19.8919 4.30257C19.8577 4.34437 19.833 4.34057 19.833 4.29497C19.833 4.26267 19.8197 4.25697 19.738 4.25697H19.643V4.57047V4.88397H19.738H19.833V4.72057C19.833 4.50207 19.8634 4.44697 19.9812 4.44697H20.042V4.34247C20.042 4.23417 20.0325 4.22467 19.9565 4.25697Z" fill="white"/>
<path d="M21.0376 4.2722C20.8248 4.3729 20.8077 4.7054 21.011 4.8403C21.087 4.8935 21.2485 4.8992 21.3454 4.8536C21.4005 4.827 21.486 4.7263 21.486 4.6864C21.486 4.6598 21.2808 4.675 21.258 4.7035C21.2086 4.7624 21.068 4.7206 21.068 4.6446C21.068 4.6237 21.1098 4.618 21.2865 4.618H21.505V4.5553C21.505 4.4755 21.4347 4.3368 21.3682 4.2874C21.2941 4.2342 21.1364 4.2266 21.0376 4.2722ZM21.2542 4.4204C21.3321 4.4755 21.3074 4.504 21.182 4.504C21.0946 4.504 21.068 4.4983 21.068 4.4774C21.068 4.4451 21.1402 4.39 21.182 4.39C21.1991 4.39 21.2314 4.4033 21.2542 4.4204Z" fill="white"/>
<path d="M18.18 4.27217C18.18 4.27977 18.2275 4.41657 18.2845 4.57807C18.3415 4.73957 18.389 4.87447 18.389 4.87827C18.389 4.88017 18.4441 4.88397 18.5106 4.88397H18.6322L18.7386 4.58377C18.7975 4.42037 18.845 4.27977 18.845 4.27027C18.845 4.24557 18.636 4.25507 18.636 4.27977C18.636 4.29307 18.6075 4.39377 18.5733 4.50397L18.5106 4.70347L18.446 4.47927L18.3795 4.25697H18.2807C18.2256 4.25697 18.18 4.26267 18.18 4.27217Z" fill="white"/>
<path d="M4.27391 4.31208C4.25301 4.34818 4.25301 4.36528 4.27391 4.40708L4.29861 4.45648L4.30621 4.40328C4.31001 4.37478 4.31001 4.33298 4.30621 4.30828L4.30051 4.26648L4.27391 4.31208Z" fill="white"/>
<path d="M5.44621 4.42229C5.38921 4.48119 5.33601 4.59519 5.33601 4.65599C5.33601 4.67689 5.34931 4.72629 5.36641 4.76619L5.39681 4.83649L5.45191 4.62749C5.51651 4.37859 5.51651 4.34819 5.44621 4.42229Z" fill="white"/>
<path d="M7.62741 4.42988C7.63311 4.44128 7.67871 4.47738 7.72811 4.50778C7.80791 4.56098 7.79841 4.57048 7.70151 4.53058C7.66731 4.51728 7.66541 4.51918 7.69011 4.54958C7.70721 4.56858 7.73761 4.57998 7.76611 4.57618C7.80411 4.57238 7.81741 4.55908 7.82121 4.51728C7.82501 4.48688 7.81741 4.45078 7.80411 4.43558C7.77751 4.40328 7.60651 4.39758 7.62741 4.42988Z" fill="white"/>
<path d="M4.5266 4.47167C4.4981 4.49637 4.4791 4.52677 4.4829 4.54007C4.4886 4.55337 4.5171 4.53627 4.557 4.49447C4.6292 4.42037 4.6064 4.40327 4.5266 4.47167Z" fill="white"/>
<path d="M4.61971 4.49446C4.50571 4.57046 4.48481 4.59706 4.52091 4.61986C4.57601 4.65406 4.64821 4.63696 4.69761 4.57806C4.72421 4.54576 4.74701 4.51346 4.74701 4.50396C4.74701 4.49446 4.75271 4.47546 4.75841 4.45836C4.77741 4.40896 4.72611 4.42226 4.61971 4.49446Z" fill="white"/>
<path d="M6.77241 4.4831C6.73821 4.5363 6.73821 4.6978 6.77051 4.77C6.80281 4.8403 6.88641 4.9182 6.90541 4.8973C6.91491 4.8897 6.80471 4.485 6.78951 4.4698C6.78571 4.466 6.77811 4.4717 6.77241 4.4831Z" fill="white"/>
<path d="M6.4456 4.51916C6.4038 4.55526 6.3677 4.65596 6.3981 4.65596C6.4076 4.65596 6.419 4.66926 6.4228 4.68636C6.4285 4.72056 6.552 4.74526 6.552 4.71296C6.552 4.70156 6.5634 4.69396 6.5786 4.69396C6.6185 4.69396 6.628 4.59896 6.5938 4.54766C6.5786 4.52296 6.5558 4.50586 6.5425 4.51156C6.5292 4.51536 6.5121 4.51346 6.5026 4.50396C6.4931 4.49446 6.4684 4.50206 6.4456 4.51916ZM6.5425 4.60846C6.5425 4.63316 6.5273 4.64836 6.5007 4.65216C6.4684 4.65786 6.457 4.64836 6.457 4.62176C6.457 4.60276 6.4627 4.57996 6.4703 4.57236C6.495 4.54766 6.5425 4.57046 6.5425 4.60846Z" fill="white"/>
<path d="M4.1447 4.54577C4.082 4.61607 4.0098 4.74147 3.9319 4.91817C3.8141 5.18607 3.8122 5.16897 3.9528 5.16897C4.177 5.16897 4.2606 5.06827 4.2606 4.79847C4.2606 4.65407 4.2283 4.50397 4.1979 4.50397C4.1903 4.50397 4.1656 4.52297 4.1447 4.54577Z" fill="white"/>
<path d="M7.3329 4.57615C7.2968 4.58375 7.2645 4.59895 7.2607 4.61035C7.2493 4.64645 7.4336 4.79845 7.6388 4.92005C7.7452 4.98465 7.8383 5.03595 7.8478 5.03595C7.8782 5.03595 7.9048 4.93145 7.8953 4.84025C7.8858 4.73005 7.806 4.63505 7.6939 4.60085C7.5989 4.57235 7.4146 4.56095 7.3329 4.57615Z" fill="white"/>
<path d="M8.75221 4.6731C8.59071 4.7833 8.36841 4.9733 8.36081 5.0113C8.35131 5.0493 8.50331 5.112 8.60971 5.112C8.69141 5.112 8.70851 5.1044 8.78261 5.0303C8.86811 4.9448 8.93461 4.8004 8.95741 4.656C8.96881 4.5876 8.96501 4.58 8.93081 4.58C8.90991 4.58 8.83011 4.6218 8.75221 4.6731Z" fill="white"/>
<path d="M8.4995 4.64458C8.4026 4.68638 8.319 4.79848 8.319 4.88208V4.95618L8.4482 4.81938C8.6249 4.63318 8.6363 4.61798 8.5926 4.61798C8.5717 4.61988 8.5299 4.63128 8.4995 4.64458Z" fill="white"/>
<path d="M3.84071 4.73576C3.80841 4.76996 3.77231 4.81746 3.76091 4.84026C3.73241 4.89726 3.73431 5.03976 3.76661 5.08346C3.79131 5.11766 3.79511 5.11576 3.81411 5.04546C3.82551 5.00366 3.85591 4.90296 3.88061 4.82126C3.90721 4.74146 3.92051 4.67496 3.91291 4.67496C3.90531 4.67496 3.87301 4.70346 3.84071 4.73576Z" fill="white"/>
<path d="M4.7413 4.78895C4.6843 4.85165 4.5874 4.97705 4.5266 5.06635C4.4202 5.22215 4.4164 5.22975 4.4525 5.25635C4.5095 5.29815 4.7014 5.29055 4.766 5.24495C4.8553 5.18035 4.9028 5.05495 4.9142 4.85355C4.9237 4.68255 4.9218 4.67495 4.8838 4.67495C4.861 4.67495 4.804 4.72055 4.7413 4.78895Z" fill="white"/>
<path d="M5.12701 4.85356C5.12701 5.03596 5.22581 5.47296 5.26571 5.47296C5.29991 5.47296 5.41391 5.37606 5.45191 5.31336C5.51651 5.20696 5.48231 5.06446 5.35311 4.90486C5.29801 4.83456 5.17071 4.73196 5.14031 4.73196C5.13271 4.73196 5.12701 4.78706 5.12701 4.85356Z" fill="white"/>
<path d="M9.5806 4.82506C9.4495 4.88586 9.3184 4.99606 9.2766 5.07586C9.2367 5.15376 9.2443 5.23736 9.2994 5.34186C9.3564 5.44636 9.3963 5.46916 9.4324 5.42166C9.4761 5.36276 9.6376 5.07016 9.6813 4.97136C9.7231 4.87636 9.7383 4.76996 9.7117 4.76996C9.7022 4.76996 9.6433 4.79466 9.5806 4.82506Z" fill="white"/>
<path d="M4.5076 4.82505C4.4278 4.87255 4.3708 4.95045 4.3556 5.02835C4.3423 5.10055 4.3613 5.20125 4.3841 5.17655C4.4164 5.13855 4.595 4.78895 4.5817 4.78895C4.5741 4.78895 4.5399 4.80605 4.5076 4.82505Z" fill="white"/>
<path d="M5.9383 4.80228C5.9269 4.82128 5.9725 5.07208 5.9915 5.08918C6.0124 5.11198 6.0827 5.01888 6.0827 4.96948C6.0827 4.91438 5.9573 4.76998 5.9383 4.80228Z" fill="white"/>
<path d="M6.4228 4.9258C6.3582 4.9714 6.305 5.0132 6.305 5.0189C6.305 5.0265 6.3297 5.0417 6.362 5.055C6.4095 5.074 6.4266 5.074 6.4684 5.0455C6.5311 5.0037 6.6014 4.846 6.5558 4.846C6.5482 4.846 6.4874 4.8821 6.4228 4.9258Z" fill="white"/>
<path d="M6.3506 4.8802C6.3221 4.8992 6.2822 4.979 6.3012 4.979C6.3088 4.979 6.3411 4.9524 6.3715 4.922C6.4209 4.8688 6.4076 4.8422 6.3506 4.8802Z" fill="white"/>
<path d="M5.6495 5.0037C5.5507 5.1006 5.5412 5.1177 5.5697 5.1329C5.6666 5.188 5.7825 5.0854 5.7692 4.9562L5.7635 4.8935L5.6495 5.0037Z" fill="white"/>
<path d="M7.388 4.90868C7.388 4.92958 7.4906 5.04928 7.5343 5.07778C7.5894 5.11388 7.7756 5.12718 7.7946 5.09488C7.8003 5.08538 7.7167 5.03978 7.6084 4.99038C7.4222 4.90868 7.388 4.89538 7.388 4.90868Z" fill="white"/>
<path d="M5.887 4.97136C5.887 5.02646 5.9174 5.09296 5.944 5.09296C5.9535 5.09296 5.9478 5.05496 5.9307 5.00746C5.8984 4.91056 5.887 4.90106 5.887 4.97136Z" fill="white"/>
<path d="M5.564 4.97896C5.5317 5.01126 5.5089 5.09296 5.5336 5.09296C5.5374 5.09296 5.5621 5.05876 5.5906 5.01696C5.6438 4.93716 5.6286 4.91436 5.564 4.97896Z" fill="white"/>
<path d="M7.046 4.98088C6.9605 5.03408 6.609 5.38748 6.609 5.42168C6.609 5.45588 6.6869 5.49008 6.7895 5.50528C6.9833 5.52998 7.1258 5.35328 7.1714 5.03028C7.1828 4.95048 7.179 4.94098 7.1486 4.94098C7.1277 4.94098 7.0821 4.95998 7.046 4.98088Z" fill="white"/>
<path d="M6.72681 5.03785C6.68311 5.06065 6.62801 5.10435 6.60711 5.13475C6.56531 5.19365 6.53301 5.35895 6.56341 5.35895C6.58051 5.35895 6.83701 5.02835 6.83701 5.00745C6.83701 4.99035 6.80851 4.99795 6.72681 5.03785Z" fill="white"/>
<path d="M5.0054 5.07778C4.9864 5.15188 4.9921 5.26208 5.0206 5.32858C5.0453 5.38748 5.1574 5.48818 5.1764 5.46728C5.184 5.45968 5.0415 5.05878 5.0244 5.04168C5.0206 5.03788 5.013 5.05498 5.0054 5.07778Z" fill="white"/>
<path d="M8.3684 5.08731C8.3608 5.09681 8.3456 5.10251 8.3342 5.10251C8.3228 5.10251 8.3114 5.11771 8.3076 5.13481C8.3019 5.18421 8.3703 5.17851 8.3855 5.12911C8.3988 5.08731 8.3912 5.06641 8.3684 5.08731Z" fill="white"/>
<path d="M3.531 5.1861C3.4303 5.2925 3.1909 5.625 3.189 5.6554C3.189 5.6839 3.2289 5.6991 3.3467 5.7124C3.4303 5.7219 3.455 5.7162 3.512 5.6782C3.6184 5.6079 3.6716 5.4787 3.6792 5.2697C3.6868 5.1082 3.6849 5.093 3.6526 5.093C3.6336 5.093 3.5785 5.1348 3.531 5.1861Z" fill="white"/>
<path d="M6.16631 5.10626C6.14161 5.12906 6.15301 5.43496 6.18341 5.63636C6.21951 5.86246 6.22901 5.87006 6.35821 5.77696C6.45511 5.70856 6.47981 5.66296 6.47981 5.55846C6.47981 5.44256 6.41901 5.31906 6.30311 5.19746C6.20431 5.09296 6.18911 5.08156 6.16631 5.10626Z" fill="white"/>
<path d="M9.59771 5.29246C9.47801 5.45016 9.46661 5.47296 9.50271 5.47296C9.61861 5.47296 9.75161 5.30766 9.74021 5.17656L9.73451 5.11196L9.59771 5.29246Z" fill="white"/>
<path d="M6.0295 5.17088C6.0314 5.19558 6.0466 5.21458 6.0656 5.21838C6.0884 5.22218 6.096 5.21268 6.0922 5.18228C6.0846 5.12528 6.0257 5.11578 6.0295 5.17088Z" fill="white"/>
<path d="M8.82821 5.26209C8.67811 5.36469 8.43301 5.57939 8.43301 5.60789C8.43301 5.64209 8.59261 5.70099 8.68381 5.70099C8.76171 5.70099 8.78641 5.69149 8.84911 5.63449C8.93081 5.56039 9.01631 5.38749 9.03341 5.25639C9.04481 5.17659 9.04291 5.16899 9.00681 5.16899C8.98591 5.16899 8.90611 5.21079 8.82821 5.26209Z" fill="white"/>
<path d="M3.2517 5.2621C3.1377 5.3457 3.0864 5.4844 3.1301 5.5927C3.1396 5.6212 3.1662 5.5832 3.246 5.4312C3.303 5.3248 3.3543 5.2298 3.3562 5.2222C3.3695 5.1918 3.3258 5.2089 3.2517 5.2621Z" fill="white"/>
<path d="M8.585 5.22786C8.5242 5.25256 8.4558 5.31716 8.4216 5.38176C8.3931 5.43496 8.3855 5.53756 8.4102 5.52616C8.433 5.51666 8.699 5.23356 8.699 5.22026C8.699 5.20126 8.6401 5.20506 8.585 5.22786Z" fill="white"/>
<path d="M5.6913 5.27915C5.6248 5.35135 5.6609 5.36085 5.7445 5.29245C5.7958 5.25065 5.7977 5.24495 5.7616 5.24495C5.7407 5.24495 5.7084 5.26015 5.6913 5.27915Z" fill="white"/>
<path d="M5.7901 5.30579C5.7255 5.33999 5.6723 5.37609 5.6723 5.38749C5.6723 5.39699 5.6951 5.41979 5.7217 5.43499C5.7635 5.45779 5.7768 5.45779 5.8186 5.43499C5.8718 5.40839 5.9117 5.35519 5.9326 5.28679C5.9516 5.23169 5.9307 5.23359 5.7901 5.30579Z" fill="white"/>
<path d="M7.3557 5.25636C7.331 5.26206 7.312 5.27346 7.312 5.27916C7.312 5.33616 7.483 5.47296 7.7566 5.63446C7.8991 5.71806 7.9105 5.72186 7.9333 5.68956C7.9466 5.67056 7.958 5.61166 7.958 5.56036C7.958 5.35896 7.8307 5.26206 7.559 5.25256C7.4697 5.25066 7.3785 5.25256 7.3557 5.25636Z" fill="white"/>
<path d="M8.3247 5.28676C8.3209 5.32666 8.357 5.33236 8.3912 5.29816C8.4254 5.26396 8.4197 5.24876 8.3703 5.25256C8.3437 5.25256 8.3247 5.26776 8.3247 5.28676Z" fill="white"/>
<path d="M4.0383 5.29819C3.9718 5.37039 4.0079 5.37989 4.0915 5.31149C4.1428 5.26969 4.1447 5.26399 4.1086 5.26399C4.0877 5.26399 4.0554 5.27919 4.0383 5.29819Z" fill="white"/>
<path d="M4.13521 5.32477C4.01741 5.38747 3.99651 5.42737 4.07251 5.44637C4.17131 5.47107 4.24351 5.42167 4.27961 5.30577C4.29861 5.24877 4.26821 5.25257 4.13521 5.32477Z" fill="white"/>
<path d="M10.2361 5.37229C10.2209 5.42359 10.2095 5.52809 10.2095 5.60599C10.2114 5.82829 10.2912 5.93469 10.4755 5.95559C10.6199 5.97269 10.6332 5.95559 10.58 5.81119C10.5306 5.67439 10.4033 5.41409 10.3482 5.33429C10.295 5.26019 10.2665 5.26969 10.2361 5.37229Z" fill="white"/>
<path d="M4.367 5.36276C4.367 5.45776 4.6691 5.98596 4.7223 5.98596C4.7603 5.98596 4.8439 5.84346 4.8553 5.75986C4.8629 5.70096 4.8553 5.66676 4.8173 5.60216C4.7622 5.50716 4.6938 5.45396 4.5323 5.37606C4.3898 5.30956 4.367 5.30766 4.367 5.36276Z" fill="white"/>
<path d="M5.5279 5.44829C5.4994 5.55659 5.4956 5.66869 5.5184 5.67629C5.5545 5.68769 5.64 5.60599 5.64 5.55849C5.64 5.50719 5.583 5.37799 5.5621 5.37799C5.5526 5.37799 5.5374 5.41029 5.5279 5.44829Z" fill="white"/>
<path d="M6.0067 5.44639C5.9687 5.59079 6.0124 5.74659 6.1074 5.80739C6.1321 5.82449 6.1568 5.83589 6.1606 5.83209C6.1701 5.82069 6.0561 5.42739 6.039 5.40839C6.0295 5.39889 6.0162 5.41599 6.0067 5.44639Z" fill="white"/>
<path d="M9.1189 5.42925C9.079 5.50715 9.041 5.67815 9.041 5.78455C9.041 5.91945 9.0847 6.00495 9.1721 6.05245C9.2443 6.08855 9.3925 6.11135 9.4077 6.08665C9.421 6.06575 9.383 5.90805 9.3127 5.69145C9.2253 5.42355 9.1664 5.34185 9.1189 5.42925Z" fill="white"/>
<path d="M7.19801 5.47487C7.19801 5.52617 7.25311 5.71617 7.27211 5.72757C7.29111 5.74087 7.32151 5.71617 7.34811 5.66677C7.36521 5.63447 7.36521 5.61547 7.34811 5.58127C7.31961 5.52617 7.27211 5.47297 7.23221 5.45207C7.20371 5.43687 7.19801 5.44067 7.19801 5.47487Z" fill="white"/>
<path d="M9.6414 5.5319C9.6224 5.6269 9.6281 5.8321 9.6509 5.9119C9.6642 5.9518 9.6965 6.0126 9.725 6.0468C9.7725 6.1038 9.7858 6.1076 9.9131 6.1152C9.991 6.1209 10.0594 6.1152 10.0708 6.1038C10.1164 6.0582 9.7497 5.473 9.6737 5.473C9.6623 5.473 9.649 5.4996 9.6414 5.5319Z" fill="white"/>
<path d="M10.561 5.49959C10.561 5.51289 10.5686 5.54899 10.5781 5.57939C10.5895 5.60979 10.6161 5.69909 10.6389 5.77699L10.6807 5.91949L10.7054 5.86249C10.7548 5.74849 10.7282 5.62119 10.6313 5.51479C10.5876 5.46729 10.561 5.46159 10.561 5.49959Z" fill="white"/>
<path d="M5.44431 5.50525C5.42531 5.52425 5.42911 5.61165 5.45001 5.64395C5.46331 5.66485 5.46901 5.64775 5.46901 5.58125C5.46901 5.49005 5.46711 5.48245 5.44431 5.50525Z" fill="white"/>
<path d="M5.0833 5.62497C5.0776 5.64587 5.0567 5.66297 5.0358 5.66297C4.9883 5.66297 4.9522 5.70667 4.9674 5.74657C4.975 5.76557 4.9693 5.80167 4.9541 5.82637C4.9313 5.87007 4.9332 5.87767 4.9864 5.91947C5.0168 5.94417 5.0358 5.97077 5.0282 5.97837C4.9997 6.00497 5.0529 6.04107 5.108 6.03157C5.1365 6.02397 5.1669 6.02967 5.1726 6.04107C5.1916 6.07147 5.26 6.06577 5.26 6.03537C5.26 6.00117 5.2904 5.98217 5.3436 5.97837C5.3778 5.97647 5.3835 5.96507 5.3778 5.90427C5.374 5.85487 5.3816 5.83017 5.4025 5.82257C5.4424 5.80737 5.4386 5.78647 5.3854 5.73517C5.3607 5.71047 5.336 5.67437 5.3322 5.65347C5.3265 5.62307 5.3132 5.61737 5.2543 5.62117C5.2144 5.62497 5.184 5.61737 5.184 5.60597C5.184 5.56987 5.0947 5.58507 5.0833 5.62497ZM5.2505 5.75797C5.3151 5.82827 5.241 5.94037 5.1441 5.91567C5.127 5.90997 5.1023 5.88527 5.0909 5.86057C5.0434 5.75417 5.1726 5.67247 5.2505 5.75797Z" fill="white"/>
<path d="M7.16 5.62687C7.16 5.67817 7.2056 5.75607 7.2265 5.73517C7.2341 5.72947 7.2208 5.69147 7.1999 5.64967C7.1657 5.58317 7.1619 5.58127 7.16 5.62687Z" fill="white"/>
<path d="M7.464 5.6041C7.464 5.6345 7.5609 5.739 7.6179 5.7675C7.6749 5.7979 7.8193 5.8055 7.8592 5.7789C7.8763 5.7694 7.8193 5.7352 7.6863 5.6763C7.4735 5.5813 7.464 5.5775 7.464 5.6041Z" fill="white"/>
<path d="M3.72101 5.64775C3.70011 5.67055 3.68301 5.69525 3.68301 5.70475C3.68301 5.73515 3.71531 5.71995 3.76851 5.66295C3.81031 5.61925 3.81601 5.60595 3.79131 5.60595C3.77421 5.60595 3.74381 5.62495 3.72101 5.64775Z" fill="white"/>
<path d="M3.8103 5.6744C3.7514 5.7105 3.702 5.7485 3.702 5.758C3.702 5.7656 3.7267 5.7827 3.7571 5.796C3.8274 5.8245 3.8787 5.7998 3.93 5.7143C4.0079 5.587 3.968 5.5756 3.8103 5.6744Z" fill="white"/>
<path d="M9.4077 5.66295C9.4153 5.69905 9.4305 5.80545 9.4419 5.89855C9.4647 6.06575 9.4666 6.06765 9.4989 6.02585C9.5806 5.92705 9.554 5.74085 9.4457 5.64205L9.3963 5.59645L9.4077 5.66295Z" fill="white"/>
<path d="M6.7477 5.65537C6.7211 5.72567 6.8617 6.32417 6.9092 6.34127C6.9225 6.34697 6.9624 6.32797 6.9985 6.30137C7.1847 6.15887 7.1581 5.94227 6.9263 5.72757C6.8123 5.62117 6.7686 5.60407 6.7477 5.65537Z" fill="white"/>
<path d="M10.0385 5.8264C10.086 5.9385 10.124 6.0335 10.124 6.0392C10.124 6.0468 10.1335 6.0411 10.1449 6.0297C10.1753 5.9993 10.1715 5.8511 10.1373 5.7846C10.1069 5.7238 10.0024 5.625 9.972 5.625C9.9625 5.625 9.9929 5.7162 10.0385 5.8264Z" fill="white"/>
<path d="M5.697 5.67819C5.6723 5.69719 5.6571 5.72189 5.6609 5.73519C5.6647 5.74659 5.6951 5.73139 5.7312 5.69909C5.7977 5.64019 5.7673 5.62119 5.697 5.67819Z" fill="white"/>
<path d="M5.7787 5.71049C5.6533 5.79409 5.6457 5.81119 5.7103 5.83589C5.7901 5.86629 5.8433 5.84159 5.887 5.75799C5.9554 5.62309 5.9288 5.60979 5.7787 5.71049Z" fill="white"/>
<path d="M4.3613 5.73329C4.3765 5.83019 4.4354 5.93659 4.4962 5.97079C4.5589 6.00689 4.6577 6.03159 4.6482 6.00879C4.6368 5.98029 4.3765 5.66489 4.3632 5.66299C4.3556 5.66299 4.3556 5.69529 4.3613 5.73329Z" fill="white"/>
<path d="M6.609 5.68006C6.609 5.68956 6.6052 5.71046 6.5995 5.72376C6.5919 5.74086 6.6033 5.75036 6.628 5.75226C6.6679 5.75606 6.6736 5.74276 6.6546 5.69336C6.6413 5.66106 6.609 5.65156 6.609 5.68006Z" fill="white"/>
<path d="M8.53751 5.82827L8.48051 5.85867L8.68001 5.91377C8.93461 5.98217 8.94791 5.98027 8.87761 5.90807C8.77691 5.79977 8.64581 5.76937 8.53751 5.82827Z" fill="white"/>
<path d="M11.0531 5.8321C10.7662 5.9442 10.637 6.1418 10.7301 6.3223C10.7852 6.4306 10.8251 6.4686 10.8574 6.4401C10.9372 6.3736 11.188 5.9233 11.188 5.8435C11.188 5.7884 11.1709 5.7865 11.0531 5.8321Z" fill="white"/>
<path d="M4.063 5.86435C4.063 5.89855 4.1371 6.08095 4.1618 6.10945C4.1865 6.13605 4.234 6.06575 4.234 6.00305C4.234 5.96885 4.2131 5.93275 4.1675 5.89285C4.0915 5.82825 4.063 5.81875 4.063 5.86435Z" fill="white"/>
<path d="M7.31771 5.90809C7.25121 5.94989 7.19801 5.99359 7.19801 6.00499C7.19801 6.01639 7.21891 6.03539 7.24551 6.04679C7.31201 6.07719 7.37471 6.04489 7.41461 5.95939C7.47351 5.83589 7.44881 5.82259 7.31771 5.90809Z" fill="white"/>
<path d="M14.5282 5.85486C14.4009 5.88526 14.2356 5.98216 14.1558 6.07336C14.0589 6.18166 14.0057 6.32036 13.9886 6.50656L13.9753 6.65096H13.8651H13.753V6.90746V7.16396H13.867H13.981V7.92396V8.68396H14.2945H14.608V7.92396V7.16396H14.779H14.95V6.90746V6.65096H14.7771H14.6023L14.6137 6.56166C14.627 6.44196 14.6992 6.37546 14.8341 6.35646L14.931 6.34316V6.08856V5.83396L14.7657 5.83586C14.6726 5.83776 14.5662 5.84536 14.5282 5.85486Z" fill="white"/>
<path d="M3.322 5.89477C3.2707 5.92137 3.227 5.96317 3.2042 6.00307C3.1871 6.03917 3.1738 6.07147 3.1776 6.07527C3.1814 6.07907 3.2783 6.03537 3.3961 5.97837C3.6127 5.87387 3.626 5.85297 3.4759 5.85297C3.4379 5.85297 3.3676 5.87197 3.322 5.89477Z" fill="white"/>
<path d="M7.217 5.88716C7.1923 5.90616 7.1771 5.93086 7.1809 5.94226C7.1847 5.95366 7.217 5.93846 7.255 5.90806C7.3272 5.84726 7.2911 5.82826 7.217 5.88716Z" fill="white"/>
<path d="M6.47031 5.91376C6.45701 5.96316 6.46841 5.98596 6.50641 5.98596C6.54061 5.98596 6.54061 5.92136 6.50641 5.89286C6.48551 5.87576 6.47791 5.87956 6.47031 5.91376Z" fill="white"/>
<path d="M8.4387 5.9404C8.4254 5.9784 8.4444 6.119 8.4729 6.1836C8.5052 6.252 8.6021 6.309 8.7142 6.3223C8.8206 6.3337 9.041 6.2995 9.0923 6.2615C9.1208 6.2406 9.1208 6.233 9.098 6.2045C9.0638 6.1627 8.8491 6.0544 8.6382 5.9746C8.4463 5.9005 8.4539 5.9005 8.4387 5.9404Z" fill="white"/>
<path d="M5.9326 5.97841C5.8243 6.03541 5.7578 6.08481 5.5697 6.24061C5.4405 6.34701 5.4348 6.35651 5.4614 6.38881C5.507 6.43821 5.6666 6.48571 5.7369 6.47051C5.8262 6.44961 5.9326 6.34321 5.9915 6.21021C6.0466 6.08671 6.077 5.92901 6.0447 5.92901C6.0333 5.92901 5.9839 5.95181 5.9326 5.97841Z" fill="white"/>
<path d="M6.6356 6.01449C6.6261 6.08289 6.6318 6.12469 6.6584 6.19119C6.6945 6.27479 6.7781 6.35839 6.8142 6.34509C6.8313 6.33749 6.6907 5.96699 6.6622 5.93659C6.6546 5.93089 6.6432 5.96509 6.6356 6.01449Z" fill="white"/>
<path d="M3.7305 5.9594C3.5918 5.9898 3.189 6.1304 3.189 6.1494C3.189 6.1855 3.2821 6.2881 3.3429 6.3185C3.4132 6.3565 3.5196 6.3546 3.5994 6.3166C3.7172 6.2615 3.911 6.0449 3.911 5.9708C3.911 5.948 3.816 5.9423 3.7305 5.9594Z" fill="white"/>
<path d="M5.583 6.00877C5.4804 6.06197 5.412 6.15697 5.412 6.24817C5.412 6.28427 5.4139 6.31087 5.4177 6.30707C5.4196 6.30137 5.4937 6.22347 5.583 6.13227C5.754 5.95557 5.754 5.92327 5.583 6.00877Z" fill="white"/>
<path d="M4.04401 6.01637C4.04401 6.06197 4.09151 6.13417 4.11051 6.11517C4.11811 6.10757 4.10671 6.07337 4.08391 6.03917C4.05161 5.98787 4.04401 5.98407 4.04401 6.01637Z" fill="white"/>
<path d="M15.235 7.33496V8.68396H15.5485H15.862V7.33496V5.98596H15.5485H15.235V7.33496Z" fill="white"/>
<path d="M4.6387 6.06579C4.5437 6.17029 4.3423 6.67189 4.3822 6.71179C4.4088 6.73839 4.576 6.71369 4.6463 6.66999C4.7242 6.62249 4.766 6.52559 4.766 6.38689C4.766 6.25579 4.7356 6.09999 4.7033 6.05439C4.6824 6.02399 4.6767 6.02589 4.6387 6.06579Z" fill="white"/>
<path d="M6.26701 6.13227C6.26701 6.31467 6.38101 6.74597 6.42851 6.74597C6.44371 6.74597 6.49121 6.71557 6.53301 6.67757C6.70021 6.52747 6.66791 6.34507 6.43801 6.13227C6.28791 5.99167 6.26701 5.99167 6.26701 6.13227Z" fill="white"/>
<path d="M4.90661 6.10758C4.88191 6.17028 4.95791 6.45528 5.07951 6.76878C5.10041 6.82008 5.14411 6.81058 5.21251 6.73648C5.29801 6.64718 5.32461 6.56168 5.29801 6.46288C5.26001 6.31848 4.93701 6.02778 4.90661 6.10758Z" fill="white"/>
<path d="M9.4932 6.12659C9.2747 6.20449 9.1721 6.29949 9.1607 6.43629C9.155 6.50469 9.1626 6.54839 9.1968 6.61299C9.2215 6.66049 9.25 6.69849 9.2633 6.69849C9.2899 6.69849 9.516 6.43059 9.6129 6.28239C9.6927 6.16079 9.7098 6.08099 9.6547 6.08099C9.6357 6.08099 9.5635 6.10189 9.4932 6.12659Z" fill="white"/>
<path d="M10.3501 6.12466C10.3254 6.15126 10.2874 6.17596 10.2665 6.17976C10.238 6.18546 10.2304 6.20066 10.2323 6.24246C10.2342 6.27286 10.2247 6.31276 10.2076 6.32986C10.1734 6.36786 10.1886 6.41536 10.2399 6.42866C10.2646 6.43436 10.276 6.45526 10.276 6.48756C10.276 6.53696 10.2893 6.54456 10.3596 6.53696C10.3786 6.53506 10.4166 6.54456 10.4413 6.55786C10.4831 6.58066 10.4907 6.57686 10.5306 6.52746C10.5534 6.49896 10.5819 6.47996 10.5933 6.48566C10.6047 6.49326 10.6237 6.48566 10.637 6.47046C10.656 6.44766 10.656 6.43626 10.637 6.41346C10.618 6.38876 10.618 6.37736 10.6446 6.35076C10.6864 6.30326 10.6826 6.28046 10.6294 6.24436C10.6028 6.22916 10.58 6.19496 10.5762 6.17216C10.5724 6.13606 10.5591 6.12846 10.5135 6.13226C10.4831 6.13416 10.4432 6.12276 10.4261 6.10756C10.3976 6.08096 10.39 6.08286 10.3501 6.12466ZM10.4869 6.25196C10.542 6.28236 10.5344 6.37546 10.4755 6.41536C10.4318 6.44386 10.4242 6.44386 10.3805 6.41536C10.3254 6.37926 10.3197 6.31846 10.3653 6.26716C10.3995 6.22916 10.4337 6.22346 10.4869 6.25196Z" fill="white"/>
<path d="M11.0512 6.29566C10.9258 6.44386 10.9106 6.47046 10.9429 6.47616C10.9942 6.48566 11.0949 6.42296 11.1424 6.35266C11.1766 6.29946 11.2184 6.14366 11.2032 6.12656C11.1994 6.12466 11.131 6.20066 11.0512 6.29566Z" fill="white"/>
<path d="M9.9948 6.18547C9.9283 6.24247 9.9207 6.26527 9.9587 6.31847C9.9834 6.34887 9.9891 6.34507 10.0271 6.26527C10.0841 6.14937 10.0727 6.12087 9.9948 6.18547Z" fill="white"/>
<path d="M24.583 6.404V6.651H24.4595H24.336V6.9075V7.164H24.4576H24.5811L24.5868 7.6998C24.5925 8.2185 24.5944 8.2413 24.6381 8.3363C24.6951 8.4655 24.8129 8.5719 24.9554 8.627C25.0466 8.6631 25.1169 8.6726 25.3392 8.6802L25.609 8.6897V8.4199V8.152H25.4475C25.3126 8.152 25.2803 8.1463 25.2499 8.1159C25.1948 8.0608 25.1891 7.9943 25.1948 7.563L25.2005 7.1735L25.4057 7.1678L25.609 7.1621V6.9075V6.6529L25.4057 6.6472L25.2005 6.6415L25.1948 6.3983L25.1891 6.157H24.887H24.583V6.404Z" fill="white"/>
<path d="M4.35371 6.27668C4.27391 6.36028 4.25301 6.40778 4.25301 6.50278C4.25491 6.59398 4.30051 6.70038 4.31761 6.65098C4.33471 6.60538 4.42211 6.22348 4.41641 6.21968C4.41451 6.21588 4.38601 6.24248 4.35371 6.27668Z" fill="white"/>
<path d="M7.1505 6.26337C7.1334 6.28997 7.1087 6.30707 7.0935 6.30327C7.0555 6.28807 7.0289 6.32797 7.0403 6.38497C7.046 6.41347 7.0403 6.44387 7.0289 6.44957C6.9947 6.47047 7.0042 6.53317 7.0441 6.54647C7.0669 6.55217 7.084 6.57877 7.0878 6.60917C7.0935 6.65477 7.1011 6.66047 7.1676 6.66047C7.2094 6.66047 7.2455 6.67187 7.2512 6.68517C7.2626 6.71937 7.2873 6.71367 7.3348 6.66237C7.3595 6.63767 7.3956 6.61297 7.4165 6.60917C7.4469 6.60347 7.4526 6.59017 7.4488 6.53127C7.445 6.49137 7.4526 6.46097 7.464 6.46097C7.5001 6.46097 7.4849 6.37167 7.445 6.36027C7.4241 6.35457 7.407 6.33367 7.407 6.31467C7.407 6.25957 7.369 6.23107 7.3272 6.25387C7.2987 6.26907 7.2816 6.26717 7.2569 6.24437C7.2113 6.20257 7.1885 6.20637 7.1505 6.26337ZM7.3234 6.40587C7.3557 6.44197 7.3557 6.44957 7.3291 6.49517C7.2949 6.55787 7.2265 6.57117 7.1771 6.52557C7.1334 6.48567 7.1315 6.44577 7.1733 6.40017C7.2132 6.35457 7.2778 6.35647 7.3234 6.40587Z" fill="white"/>
<path d="M4.14281 6.2558C4.11051 6.2881 4.11431 6.3242 4.15421 6.3451C4.19221 6.366 4.23401 6.3394 4.23401 6.2957C4.23401 6.2596 4.16751 6.2311 4.14281 6.2558ZM4.19601 6.2995C4.19601 6.3147 4.18841 6.328 4.17701 6.328C4.16751 6.328 4.15801 6.3147 4.15801 6.2995C4.15801 6.2843 4.16751 6.271 4.17701 6.271C4.18841 6.271 4.19601 6.2843 4.19601 6.2995Z" fill="white"/>
<path d="M7.5495 6.29945C7.5742 6.44955 7.6825 6.57495 7.7908 6.57495H7.8478L7.7718 6.48375C7.73 6.43435 7.6597 6.35645 7.6179 6.30895L7.5381 6.22345L7.5495 6.29945Z" fill="white"/>
<path d="M10.0537 6.27476C10.0138 6.32796 10.0081 6.34696 10.0366 6.33556C10.0632 6.32606 10.0936 6.27286 10.0803 6.25766C10.0765 6.25386 10.0632 6.26146 10.0537 6.27476Z" fill="white"/>
<path d="M8.4311 6.27288C8.4178 6.33748 8.4216 6.34698 8.452 6.34698C8.471 6.34698 8.4957 6.33368 8.509 6.31848C8.5242 6.30138 8.5242 6.28998 8.5128 6.28998C8.5014 6.28998 8.4805 6.28428 8.4634 6.27858C8.4463 6.27288 8.433 6.26908 8.4311 6.27288Z" fill="white"/>
<path d="M9.72501 6.3318C9.72501 6.385 9.76681 6.499 9.79341 6.5275C9.82571 6.5579 9.92451 6.5674 9.94161 6.5389C9.96061 6.5104 9.78391 6.309 9.74021 6.309C9.73261 6.309 9.72501 6.3204 9.72501 6.3318Z" fill="white"/>
<path d="M4.03641 6.35646C4.02121 6.40016 3.99841 6.63196 4.01171 6.63196C4.01741 6.63196 4.04591 6.62246 4.07251 6.60916C4.13521 6.58066 4.15231 6.51036 4.11811 6.41536C4.08961 6.33366 4.05541 6.30896 4.03641 6.35646Z" fill="white"/>
<path d="M6.1511 6.40778C6.1473 6.52938 6.1568 6.58448 6.1929 6.64338C6.2271 6.70038 6.3145 6.76118 6.3335 6.74218C6.3468 6.72888 6.1872 6.34698 6.1682 6.34698C6.1606 6.34698 6.153 6.37548 6.1511 6.40778Z" fill="white"/>
<path d="M9.87701 6.35837C9.87701 6.36407 9.89791 6.40017 9.92451 6.43817C9.95681 6.48567 9.97201 6.49707 9.97201 6.47427C9.97201 6.42677 9.94161 6.37357 9.90551 6.35837C9.89031 6.35267 9.87701 6.35267 9.87701 6.35837Z" fill="white"/>
<path d="M4.82301 6.5047C4.82301 6.5693 4.83631 6.6434 4.85341 6.6814C4.88191 6.7422 4.99591 6.8334 5.02821 6.8182C5.03581 6.8144 4.99211 6.7175 4.93321 6.6035L4.82491 6.3945L4.82301 6.5047Z" fill="white"/>
<path d="M8.80921 6.43628C8.76551 6.44768 8.74461 6.52748 8.77121 6.58448C8.79211 6.62818 8.95361 6.70608 8.97831 6.68328C8.98401 6.67568 8.96691 6.63768 8.94031 6.59968C8.91181 6.55978 8.87381 6.50658 8.85671 6.47998C8.82251 6.43248 8.82251 6.43248 8.89471 6.48568C8.96881 6.54268 8.98401 6.53508 8.93461 6.46478C8.90611 6.42488 8.87761 6.41728 8.80921 6.43628Z" fill="white"/>
<path d="M9.48181 6.57879C9.39631 6.66239 9.32981 6.73649 9.33361 6.74029C9.33741 6.74409 9.37161 6.74219 9.41151 6.73459C9.48561 6.72129 9.57871 6.65289 9.61481 6.58829C9.64141 6.53509 9.66801 6.42299 9.65091 6.42299C9.64521 6.42299 9.56921 6.49329 9.48181 6.57879Z" fill="white"/>
<path d="M3.94141 6.48378C3.93191 6.51418 3.93571 6.55028 3.95091 6.57878C3.98131 6.63578 3.99271 6.60158 3.97181 6.50658C3.95471 6.43438 3.95471 6.43438 3.94141 6.48378Z" fill="white"/>
<path d="M8.433 6.46097C8.4178 6.47047 8.4102 6.48187 8.414 6.48567C8.4311 6.50087 8.566 6.47617 8.566 6.45907C8.566 6.43627 8.4691 6.43817 8.433 6.46097Z" fill="white"/>
<path d="M3.51961 6.5465C3.54241 6.67 3.79511 7.164 3.83311 7.164C3.85591 7.164 3.92241 7.0842 3.95661 7.0177C4.04211 6.8467 3.92431 6.6529 3.65451 6.5256C3.52151 6.4629 3.50441 6.4648 3.51961 6.5465Z" fill="white"/>
<path d="M5.412 6.54269C5.412 6.58639 5.4918 6.67379 5.6324 6.78589C5.7692 6.89419 5.7882 6.89229 5.8053 6.77069C5.8129 6.70989 5.8053 6.68519 5.7654 6.63769C5.7122 6.57309 5.6476 6.54649 5.5032 6.52559C5.4291 6.51609 5.412 6.51799 5.412 6.54269Z" fill="white"/>
<path d="M8.395 6.53697C8.395 6.54837 8.4159 6.57877 8.4425 6.60537C8.4786 6.64147 8.5014 6.64907 8.5413 6.63957C8.604 6.62437 8.699 6.56167 8.699 6.53507C8.699 6.52557 8.6306 6.51797 8.547 6.51797C8.4539 6.51797 8.395 6.52557 8.395 6.53697Z" fill="white"/>
<path d="M10.675 6.62438C10.675 6.74788 10.713 6.80298 10.8004 6.80298C10.8365 6.80298 10.865 6.79728 10.865 6.78968C10.865 6.76878 10.751 6.59968 10.713 6.56548C10.675 6.53128 10.675 6.53318 10.675 6.62438Z" fill="white"/>
<path d="M10.808 6.59777C10.808 6.62437 10.8726 6.74597 10.8878 6.74597C10.9182 6.74597 10.9011 6.69087 10.8555 6.63767C10.8308 6.60917 10.808 6.59017 10.808 6.59777Z" fill="white"/>
<path d="M7.62171 6.66619C7.64071 6.75929 7.82311 7.04999 7.86301 7.04999C7.89151 7.04999 7.93901 6.94359 7.93901 6.88089C7.93901 6.78399 7.81551 6.67189 7.65591 6.62249C7.61411 6.60919 7.61031 6.61299 7.62171 6.66619Z" fill="white"/>
<path d="M17.078 6.63009C16.6752 6.68519 16.3541 6.95119 16.2382 7.32359C16.204 7.42809 16.1964 7.50409 16.1964 7.66749C16.1964 8.00379 16.2762 8.20899 16.4871 8.41989C16.7037 8.63649 16.9279 8.71249 17.2965 8.69729C17.5758 8.68589 17.7069 8.64599 17.8988 8.50539C18.0508 8.39709 18.1686 8.24509 18.237 8.06269C18.2902 7.92589 18.3111 7.57439 18.275 7.40529C18.2028 7.05759 17.914 6.75359 17.5701 6.66239C17.4314 6.62819 17.2091 6.61299 17.078 6.63009ZM17.3896 7.18299C17.4162 7.19249 17.477 7.23619 17.5245 7.27989C17.6347 7.38249 17.6746 7.50599 17.6632 7.71309C17.6537 7.87269 17.6119 7.97529 17.5207 8.06079C17.3725 8.20329 17.1141 8.20709 16.9678 8.07029C16.8785 7.98669 16.8424 7.88979 16.8348 7.69219C16.8272 7.52689 16.831 7.49839 16.8747 7.40529C16.9203 7.30459 17.0039 7.22289 17.097 7.18489C17.1597 7.16019 17.3288 7.15829 17.3896 7.18299Z" fill="white"/>
<path d="M20.9236 6.6301C20.5037 6.6966 20.1997 6.9702 20.1066 7.3654C20.0838 7.4623 20.0781 7.5554 20.0857 7.7245C20.0952 7.9943 20.1446 8.152 20.2757 8.3268C20.4714 8.5871 20.7241 8.703 21.0965 8.703C21.4233 8.703 21.6171 8.6289 21.8223 8.4256C21.9325 8.3173 22.056 8.114 22.056 8.0418C22.056 8.0247 21.9781 8.019 21.733 8.019H21.41L21.3416 8.095C21.2276 8.2204 21.0661 8.2432 20.897 8.1558C20.8153 8.1159 20.7849 8.0874 20.7507 8.019C20.7279 7.9715 20.7032 7.905 20.6975 7.8708L20.6842 7.81H21.4024H22.1187L22.1092 7.5953C22.0959 7.3483 22.0465 7.1868 21.9287 7.0158C21.8109 6.8429 21.6057 6.7061 21.391 6.6548C21.2675 6.6244 21.0357 6.613 20.9236 6.6301ZM21.3264 7.1868C21.4138 7.2476 21.4423 7.2894 21.4651 7.392L21.4822 7.468H21.087H20.6899L20.707 7.4072C20.7374 7.3065 20.8134 7.2096 20.9008 7.1659C21.0205 7.1051 21.2219 7.1146 21.3264 7.1868Z" fill="white"/>
<path d="M23.025 6.6358C22.8711 6.6567 22.6773 6.746 22.5823 6.8372C22.3676 7.0424 22.341 7.3863 22.5215 7.5953C22.6127 7.7017 22.7685 7.7758 23.082 7.8575C23.4658 7.9601 23.5399 8.0095 23.4962 8.1368C23.4696 8.209 23.3917 8.247 23.2625 8.247C23.1124 8.247 22.9927 8.1748 22.9585 8.0608C22.9471 8.019 22.9414 8.019 22.6412 8.019H22.3353L22.3486 8.0988C22.3676 8.2147 22.4683 8.3914 22.5652 8.4769C22.7419 8.6308 22.9642 8.703 23.272 8.703C23.5931 8.703 23.8192 8.6213 23.9674 8.4484C24.0985 8.2964 24.1308 8.0323 24.0396 7.8518C23.9465 7.6637 23.7926 7.5744 23.3689 7.4604C23.0725 7.3787 23.0098 7.3502 22.9946 7.2875C22.9623 7.1621 23.0459 7.088 23.2207 7.088C23.3461 7.088 23.4373 7.1412 23.4867 7.2457L23.5228 7.316H23.8059H24.089L24.0776 7.2628C23.9959 6.8885 23.7755 6.6852 23.3993 6.6339C23.2321 6.6111 23.1998 6.6111 23.025 6.6358Z" fill="white"/>
<path d="M26.578 6.63388C26.2341 6.69088 25.9472 6.99108 25.8674 7.37678C25.7553 7.91828 25.9586 8.43128 26.3614 8.62888C26.4887 8.69158 26.4982 8.69348 26.73 8.69348C26.9523 8.69348 26.9751 8.68968 27.0758 8.64028C27.1366 8.60988 27.224 8.54908 27.2715 8.50348L27.357 8.41988V8.55098V8.68398H27.6705H27.984V7.66748V6.65098H27.6705H27.357V6.78398V6.91508L27.2696 6.82958C27.1689 6.72888 27.0245 6.65668 26.8687 6.63198C26.7433 6.61108 26.7224 6.61108 26.578 6.63388ZM27.1404 7.23238C27.2791 7.31788 27.3418 7.43188 27.3532 7.61808C27.3665 7.85178 27.2962 8.01328 27.1404 8.10448C26.9599 8.21088 26.7395 8.18048 26.6008 8.03038C26.5077 7.92968 26.4754 7.83848 26.4754 7.66748C26.4735 7.50028 26.5153 7.38628 26.6141 7.28938C26.7566 7.14878 26.9694 7.12598 27.1404 7.23238Z" fill="white"/>
<path d="M5.3322 6.6643C5.3417 6.6833 5.3455 6.7099 5.3417 6.7232C5.336 6.7365 5.3436 6.7441 5.3588 6.7422C5.4025 6.7327 5.412 6.7004 5.3797 6.6662C5.3398 6.6225 5.3113 6.6225 5.3322 6.6643Z" fill="white"/>
<path d="M7.9523 6.67377C7.939 6.72127 7.9618 6.75737 7.9941 6.73837C8.0226 6.71937 8.0207 6.67947 7.9884 6.65287C7.9675 6.63577 7.9599 6.63957 7.9523 6.67377Z" fill="white"/>
<path d="M9.68321 6.65858C9.51791 6.70418 9.42101 6.80488 9.42101 6.93788C9.42101 7.01958 9.45521 7.12598 9.48181 7.12598C9.51601 7.12598 9.84851 6.88848 9.95111 6.78968C10.0062 6.73648 10.048 6.68138 10.0442 6.66618C10.0328 6.63198 9.79911 6.62628 9.68321 6.65858Z" fill="white"/>
<path d="M19.6411 6.67756C19.5081 6.73076 19.4435 6.77636 19.3428 6.88656L19.263 6.97396V6.81246V6.65096H18.9495H18.636V7.66746V8.68396H18.9495H19.2611L19.2668 8.11776C19.2725 7.59336 19.2744 7.54776 19.3105 7.47746C19.3694 7.36536 19.51 7.29886 19.7247 7.28366L19.89 7.27226V6.95306V6.63196H19.8197C19.7798 6.63196 19.7 6.65286 19.6411 6.67756Z" fill="white"/>
<path d="M10.1696 6.6852C10.1278 6.7194 10.0917 6.822 10.1221 6.822C10.1316 6.822 10.143 6.8372 10.1468 6.8562C10.1525 6.879 10.1715 6.8885 10.2019 6.8866C10.276 6.8809 10.3349 6.8562 10.3273 6.8334C10.3235 6.822 10.3273 6.7992 10.3349 6.7802C10.3463 6.7593 10.3425 6.746 10.3235 6.7384C10.3083 6.7327 10.295 6.7137 10.295 6.6966C10.295 6.6776 10.2836 6.67 10.2684 6.6757C10.2551 6.6814 10.2361 6.6795 10.2266 6.67C10.2171 6.6605 10.1924 6.6681 10.1696 6.6852ZM10.257 6.7555C10.2855 6.7897 10.2665 6.822 10.2171 6.822C10.1943 6.822 10.181 6.8087 10.181 6.7878C10.181 6.7251 10.219 6.708 10.257 6.7555Z" fill="white"/>
<path d="M5.83 6.70796C5.83 6.80866 6.1378 7.30646 6.2005 7.30646C6.2499 7.30646 6.324 7.15826 6.324 7.06326C6.324 6.96256 6.2651 6.87516 6.1435 6.79536C6.0447 6.73076 5.906 6.66996 5.8585 6.66996C5.8433 6.66996 5.83 6.68706 5.83 6.70796Z" fill="white"/>
<path d="M6.96431 6.70605C6.95291 6.75355 6.96431 6.76495 7.02131 6.76495C7.05931 6.76495 7.06691 6.75545 7.06121 6.72125C7.05361 6.66615 6.97951 6.65285 6.96431 6.70605ZM7.02891 6.73265C7.00421 6.75735 6.97951 6.73835 6.99851 6.70985C7.00421 6.69845 7.01941 6.69465 7.03081 6.70035C7.04221 6.70795 7.04221 6.71935 7.02891 6.73265Z" fill="white"/>
<path d="M6.8294 6.73646C6.7534 6.81436 6.5273 7.35586 6.5596 7.38626C6.5824 7.41096 6.742 7.39386 6.8123 7.35966C6.8997 7.31976 6.9491 7.21146 6.951 7.06516C6.951 6.93786 6.9206 6.78396 6.8864 6.73646C6.8636 6.70606 6.8617 6.70606 6.8294 6.73646Z" fill="white"/>
<path d="M4.09151 6.77636C4.11241 6.81056 4.11621 6.82196 4.09911 6.81246C4.07821 6.80106 4.07821 6.80296 4.09531 6.82196C4.12001 6.84856 4.15801 6.83146 4.15801 6.79346C4.15801 6.76876 4.10291 6.72696 4.07251 6.72696C4.06491 6.72696 4.07251 6.74976 4.09151 6.77636Z" fill="white"/>
<path d="M8.6705 6.75545C8.5755 6.78965 8.471 6.89985 8.471 6.96445C8.471 6.99865 8.4786 7.01005 8.4957 6.99865C8.5413 6.97015 8.832 6.74215 8.832 6.73455C8.832 6.71745 8.7446 6.72885 8.6705 6.75545Z" fill="white"/>
<path d="M5.469 6.76499C5.469 6.77829 5.4975 6.81629 5.5336 6.85239C5.5849 6.90369 5.6134 6.91699 5.6704 6.91699H5.7445L5.678 6.87329C5.5298 6.77449 5.469 6.74409 5.469 6.76499Z" fill="white"/>
<path d="M9.00111 6.78965C8.81681 6.86565 8.49001 7.05565 8.49001 7.08415C8.49001 7.11265 8.57551 7.18105 8.64961 7.21145C8.76361 7.25895 8.85861 7.23425 8.96501 7.12785C9.01251 7.08035 9.07521 6.99295 9.10371 6.93595C9.19491 6.74215 9.17781 6.71745 9.00111 6.78965Z" fill="white"/>
<path d="M3.493 6.88846C3.493 6.98156 3.5576 7.10126 3.6317 7.14496C3.6868 7.17916 3.759 7.19626 3.759 7.17346C3.759 7.16016 3.5101 6.82196 3.5006 6.82196C3.4968 6.82196 3.493 6.85236 3.493 6.88846Z" fill="white"/>
<path d="M7.2284 6.85048C7.2227 6.86568 7.2056 6.87898 7.1904 6.87898C7.16 6.87898 7.16 6.96448 7.1885 7.01388C7.2151 7.05758 7.2968 7.07088 7.3386 7.04048C7.3766 7.01198 7.4013 6.89798 7.369 6.89798C7.3576 6.89798 7.35 6.88468 7.35 6.86758C7.35 6.84858 7.3386 6.84098 7.3215 6.84668C7.3063 6.85428 7.2892 6.85048 7.2835 6.84098C7.2664 6.81248 7.2417 6.81818 7.2284 6.85048ZM7.3063 6.91888C7.3367 6.94928 7.3158 6.99298 7.274 6.99298C7.2265 6.99298 7.2075 6.95878 7.236 6.92648C7.2645 6.89228 7.2778 6.89038 7.3063 6.91888Z" fill="white"/>
<path d="M4.14851 6.88467C4.12761 6.90557 4.12191 6.91697 4.13521 6.90937C4.14851 6.90177 4.15801 6.90747 4.15801 6.92457C4.15801 6.94357 4.16941 6.94927 4.18651 6.94357C4.21501 6.93217 4.22641 6.86947 4.20171 6.85427C4.19221 6.84857 4.16941 6.86377 4.14851 6.88467Z" fill="white"/>
<path d="M4.6653 6.85425C4.6558 6.86185 4.6387 6.86945 4.6292 6.86945C4.5931 6.86945 4.5893 6.91695 4.6235 6.92835C4.6615 6.94355 4.6957 6.91315 4.6862 6.86945C4.6843 6.85235 4.6729 6.84475 4.6653 6.85425Z" fill="white"/>
<path d="M4.9446 6.8695C4.9237 6.9227 4.956 7.0918 5.0358 7.335C5.0776 7.4661 5.1156 7.5763 5.1194 7.5801C5.1365 7.5991 5.2277 7.5307 5.2809 7.4604C5.3474 7.3673 5.3531 7.2723 5.2961 7.1602C5.2524 7.0747 5.108 6.9284 5.0149 6.8733C4.9617 6.8429 4.9541 6.841 4.9446 6.8695Z" fill="white"/>
<path d="M7.616 6.88277C7.616 6.94927 7.6844 7.04807 7.7395 7.06137C7.7661 7.06707 7.7927 7.07087 7.7965 7.06517C7.8003 7.06137 7.7623 7.00817 7.7091 6.94737C7.6312 6.85427 7.616 6.84477 7.616 6.88277Z" fill="white"/>
<path d="M10.3957 6.94927C10.4166 7.15637 10.5572 7.36537 10.6959 7.39957C10.7567 7.41287 10.9277 7.36537 10.96 7.32547C10.9809 7.30077 10.9771 7.28747 10.9391 7.24567C10.808 7.10317 10.4565 6.84097 10.3976 6.84097C10.39 6.84097 10.39 6.89037 10.3957 6.94927Z" fill="white"/>
<path d="M9.9739 6.8942C9.9511 6.9379 9.9758 6.9797 10.0214 6.9702C10.0708 6.9607 10.0765 6.9056 10.0309 6.8809C10.0005 6.8638 9.9891 6.8657 9.9739 6.8942ZM10.0309 6.9227C10.029 6.9455 10.0024 6.9398 9.9948 6.9151C9.9891 6.9037 9.9967 6.8961 10.01 6.8999C10.0214 6.9056 10.0309 6.9151 10.0309 6.9227Z" fill="white"/>
<path d="M6.5691 6.92266C6.5045 6.97016 6.438 7.09366 6.438 7.16586C6.438 7.24376 6.4665 7.33496 6.4893 7.33496C6.5026 7.33496 6.6128 6.91506 6.6033 6.90366C6.6014 6.90176 6.5862 6.91126 6.5691 6.92266Z" fill="white"/>
<path d="M10.8593 7.06706C10.9391 7.16016 11.0132 7.23236 11.0208 7.22856C11.0417 7.21526 11.017 7.10506 10.9752 7.03666C10.9562 7.00436 10.903 6.95876 10.8574 6.93786C10.7016 6.86186 10.7035 6.88846 10.8593 7.06706Z" fill="white"/>
<path d="M9.7174 7.06897C9.5255 7.17157 9.5141 7.18107 9.5616 7.19437C9.6281 7.20957 9.7364 7.19247 9.7934 7.15447C9.839 7.12407 9.9454 6.97967 9.9321 6.96637C9.9283 6.96257 9.8314 7.00817 9.7174 7.06897Z" fill="white"/>
<path d="M4.2853 7.01956C4.1979 7.05186 4.1637 7.08036 4.1276 7.14876C4.0668 7.26656 4.1048 7.26276 4.2967 7.13546C4.3974 7.06706 4.481 7.00816 4.481 7.00246C4.481 6.98346 4.3556 6.99486 4.2853 7.01956Z" fill="white"/>
<path d="M5.83 7.0576C5.83 7.1583 5.9003 7.2723 5.9896 7.3141C6.0333 7.3369 6.0846 7.354 6.1036 7.354C6.1378 7.354 6.1074 7.3103 5.9079 7.088L5.8319 7.0025L5.83 7.0576Z" fill="white"/>
<path d="M10.0651 7.04239C10.0442 7.06899 10.0442 7.07659 10.0746 7.09749C10.1202 7.13169 10.1658 7.11269 10.1582 7.06139C10.1506 7.01199 10.1012 7.00059 10.0651 7.04239ZM10.1164 7.08229C10.0974 7.10129 10.0803 7.07279 10.0974 7.04809C10.1088 7.02719 10.1126 7.02719 10.1202 7.04809C10.124 7.06139 10.1221 7.07659 10.1164 7.08229Z" fill="white"/>
<path d="M4.671 7.05376C4.5817 7.07846 4.1485 7.28746 4.1314 7.31216C4.1105 7.34826 4.1428 7.39196 4.2245 7.43946C4.4202 7.55536 4.6178 7.45656 4.7641 7.16776C4.8287 7.04046 4.8078 7.01386 4.671 7.05376Z" fill="white"/>
<path d="M7.50201 7.11268C7.50201 7.16208 7.55521 7.33498 7.57801 7.35968C7.60271 7.38628 7.67491 7.27608 7.66161 7.23238C7.64831 7.18868 7.54191 7.06898 7.51721 7.06898C7.50961 7.06898 7.50201 7.08798 7.50201 7.11268Z" fill="white"/>
<path d="M10.1183 7.15257C9.90931 7.23997 9.78201 7.36727 9.78201 7.49077C9.78201 7.54587 9.87891 7.74347 9.90551 7.74347C9.95491 7.73967 10.2779 7.26847 10.3045 7.15827C10.3159 7.11267 10.3121 7.10697 10.2741 7.10697C10.2494 7.10697 10.1791 7.12787 10.1183 7.15257Z" fill="white"/>
<path d="M7.81931 7.13739C7.81171 7.14499 7.80601 7.21339 7.80601 7.29129C7.80601 7.41669 7.80981 7.42999 7.84401 7.42999C7.89721 7.42999 7.94471 7.34829 7.93141 7.28369C7.91621 7.21909 7.84021 7.11839 7.81931 7.13739Z" fill="white"/>
<path d="M7.0707 7.16586C7.0289 7.18106 6.9776 7.25326 6.9947 7.27226C7.0004 7.27606 7.0327 7.25516 7.0688 7.22476C7.1372 7.16206 7.1372 7.13926 7.0707 7.16586Z" fill="white"/>
<path d="M7.1258 7.22099C7.0612 7.26279 7.008 7.30459 7.008 7.31599C7.008 7.33879 7.084 7.35969 7.1429 7.35019C7.2056 7.34259 7.3139 7.14499 7.2588 7.14499C7.2493 7.14499 7.1885 7.17919 7.1258 7.22099Z" fill="white"/>
<path d="M9.1056 7.17537C9.0258 7.21527 8.9954 7.27417 9.0201 7.34067C9.0315 7.36917 9.0486 7.39197 9.0581 7.39197C9.079 7.39197 9.231 7.18677 9.231 7.16017C9.231 7.13547 9.1702 7.14307 9.1056 7.17537Z" fill="white"/>
<path d="M4.8534 7.19439C4.8116 7.30459 4.8781 7.50409 4.975 7.55349C5.0092 7.57059 5.0396 7.58009 5.0453 7.57439C5.051 7.56869 5.013 7.47369 4.9598 7.36349C4.8971 7.23049 4.861 7.17349 4.8534 7.19439Z" fill="white"/>
<path d="M7.464 7.25139C7.464 7.28559 7.4792 7.32359 7.502 7.34449C7.5495 7.38819 7.5495 7.37869 7.502 7.27609C7.4659 7.19439 7.464 7.19439 7.464 7.25139Z" fill="white"/>
<path d="M5.69701 7.23999C5.69701 7.26279 5.77301 7.49269 5.78441 7.50409C5.78821 7.50789 5.80911 7.49649 5.83001 7.47749C5.88701 7.42619 5.87751 7.35209 5.80531 7.28179C5.74261 7.22099 5.69701 7.20389 5.69701 7.23999Z" fill="white"/>
<path d="M3.80461 7.2894C3.81031 7.3065 3.81601 7.3274 3.81601 7.3369C3.81601 7.3464 3.82551 7.354 3.83691 7.354C3.84641 7.354 3.85021 7.3464 3.84451 7.335C3.83881 7.3236 3.84641 7.3217 3.86161 7.3274C3.89771 7.3407 3.90151 7.3141 3.86921 7.2818C3.83501 7.2476 3.79131 7.2533 3.80461 7.2894Z" fill="white"/>
<path d="M7.74331 7.27036C7.72051 7.29316 7.72811 7.36346 7.75851 7.40336C7.78511 7.43756 7.78511 7.43756 7.78511 7.39196C7.78321 7.32166 7.76041 7.25326 7.74331 7.27036Z" fill="white"/>
<path d="M9.14551 7.35395C9.10751 7.39385 9.09991 7.41095 9.12081 7.41095C9.15691 7.41095 9.21771 7.34445 9.20821 7.31595C9.20441 7.30455 9.17781 7.32165 9.14551 7.35395Z" fill="white"/>
<path d="M8.5204 7.34067C8.4919 7.36157 8.5147 7.37297 8.7066 7.43377C8.8282 7.46987 8.927 7.49457 8.927 7.48887C8.927 7.46987 8.8092 7.36157 8.7617 7.33687C8.7066 7.30837 8.5622 7.31027 8.5204 7.34067Z" fill="white"/>
<path d="M5.659 7.38818C5.659 7.42808 5.7103 7.50598 5.7369 7.50598C5.7464 7.50598 5.7369 7.47178 5.716 7.42998C5.6742 7.34638 5.659 7.33688 5.659 7.38818Z" fill="white"/>
<path d="M4.0326 7.42046C4.0117 7.47556 4.0364 7.49076 4.0687 7.44136C4.0972 7.39766 4.0991 7.39196 4.0725 7.39196C4.0554 7.39196 4.0383 7.40526 4.0326 7.42046Z" fill="white"/>
<path d="M5.47091 7.48127C5.46141 7.52117 5.45001 7.58957 5.44431 7.63327C5.43671 7.70357 5.43861 7.71497 5.47091 7.71497C5.51651 7.71497 5.58301 7.65037 5.58301 7.60477C5.58301 7.56867 5.51461 7.41097 5.49941 7.41097C5.49371 7.41097 5.48231 7.44327 5.47091 7.48127Z" fill="white"/>
<path d="M8.44631 7.42425C8.43871 7.42995 8.43301 7.47935 8.43301 7.53065C8.43301 7.74345 8.54511 7.83655 8.80351 7.83655C8.94791 7.83655 9.09801 7.80425 9.09801 7.77385C9.09801 7.72255 8.88901 7.58955 8.62681 7.47935C8.44631 7.40145 8.46151 7.40715 8.44631 7.42425Z" fill="white"/>
<path d="M10.1259 7.60477C9.97581 7.76057 9.96821 7.77197 10.0176 7.77197C10.086 7.77197 10.1677 7.72827 10.2171 7.66557C10.2551 7.61617 10.3026 7.47937 10.2912 7.45277C10.2874 7.44517 10.2133 7.51357 10.1259 7.60477Z" fill="white"/>
<path d="M9.1322 7.46985C9.0961 7.49075 9.0847 7.54395 9.117 7.54395C9.1284 7.54395 9.1417 7.54395 9.1512 7.54395C9.1588 7.54395 9.1645 7.53635 9.1645 7.52685C9.1645 7.51735 9.1702 7.50215 9.1797 7.49455C9.2177 7.45465 9.1854 7.43755 9.1322 7.46985Z" fill="white"/>
<path d="M3.59941 7.50596C3.48161 7.55156 3.32201 7.65986 3.32201 7.69216C3.32201 7.73206 3.41131 7.75296 3.65261 7.77196C4.08771 7.80616 4.10291 7.80046 4.02121 7.64276C3.93381 7.47366 3.79511 7.42996 3.59941 7.50596Z" fill="white"/>
<path d="M9.345 7.52498C9.3336 7.54588 9.3089 7.56298 9.2899 7.56298C9.2348 7.56298 9.2025 7.61238 9.231 7.64848C9.25 7.67318 9.25 7.68458 9.2234 7.71118C9.1816 7.75868 9.1854 7.78148 9.2424 7.81948C9.2747 7.84038 9.2861 7.86128 9.2785 7.88028C9.2633 7.92018 9.3032 7.94298 9.3659 7.92968C9.3944 7.92398 9.4229 7.92968 9.4286 7.94108C9.4495 7.97528 9.5122 7.96578 9.5255 7.92588C9.5312 7.90308 9.5578 7.88598 9.5882 7.88218C9.6338 7.87648 9.6395 7.86888 9.6395 7.80428C9.6395 7.76438 9.6509 7.72638 9.6642 7.71688C9.6965 7.69788 9.6737 7.64468 9.6281 7.63328C9.6053 7.62758 9.592 7.60668 9.592 7.57628C9.592 7.52308 9.5635 7.50598 9.4932 7.51928C9.4666 7.52498 9.4381 7.51928 9.4324 7.50788C9.4115 7.47558 9.3678 7.48318 9.345 7.52498ZM9.4932 7.65038C9.5502 7.68838 9.5483 7.76248 9.4875 7.80238C9.402 7.85748 9.3032 7.77578 9.3507 7.68648C9.3868 7.61428 9.4286 7.60478 9.4932 7.65038Z" fill="white"/>
<path d="M4.65201 7.53069C4.65201 7.55919 4.71851 7.76059 4.73941 7.79289C4.76031 7.82709 4.82301 7.75109 4.82301 7.69029C4.82301 7.65229 4.80211 7.61429 4.75841 7.57059C4.69001 7.50219 4.65201 7.48889 4.65201 7.53069Z" fill="white"/>
<path d="M5.9136 7.57055C5.8414 7.60665 5.754 7.66555 5.7179 7.70355C5.659 7.76435 5.6571 7.77005 5.6894 7.78715C5.7103 7.79665 5.7673 7.81185 5.8167 7.81755C5.9231 7.83465 6.3658 7.81185 6.4019 7.79095C6.438 7.76815 6.3468 7.60095 6.267 7.54775C6.1739 7.48505 6.0713 7.49265 5.9136 7.57055Z" fill="white"/>
<path d="M6.989 7.52499C6.9415 7.55539 6.9814 7.56679 7.0631 7.54399C7.1068 7.53259 7.141 7.51929 7.141 7.51549C7.141 7.49839 7.0175 7.50599 6.989 7.52499Z" fill="white"/>
<path d="M7.7452 7.56297C7.6464 7.62757 7.312 7.93727 7.312 7.96387C7.312 7.99237 7.4241 8.03987 7.5191 8.05127C7.6787 8.07027 7.7813 7.97337 7.863 7.73587C7.939 7.50597 7.9067 7.45657 7.7452 7.56297Z" fill="white"/>
<path d="M5.3854 7.55536C5.3683 7.60096 5.3721 7.67316 5.393 7.68646C5.4044 7.69406 5.412 7.66366 5.412 7.61236C5.412 7.52116 5.4044 7.50596 5.3854 7.55536Z" fill="white"/>
<path d="M7.49251 7.56676C7.35001 7.61806 7.26641 7.72256 7.27781 7.84036L7.28351 7.90686L7.40701 7.75866C7.60271 7.52496 7.60271 7.52876 7.49251 7.56676Z" fill="white"/>
<path d="M10.5762 7.57056C10.4204 7.61236 10.3406 7.68836 10.3216 7.81376C10.3083 7.88786 10.3444 8.03796 10.3729 8.03796C10.4071 8.03796 10.7339 7.80616 10.8441 7.70356C10.9828 7.57626 10.9714 7.54396 10.7947 7.54586C10.7244 7.54586 10.6256 7.55726 10.5762 7.57056Z" fill="white"/>
<path d="M7.04601 7.57629C6.95481 7.59149 6.94721 7.59719 6.97001 7.63899C6.99851 7.69219 7.06311 7.71499 7.12201 7.69219C7.17331 7.67319 7.25501 7.60289 7.25501 7.57819C7.25501 7.56299 7.13531 7.56109 7.04601 7.57629Z" fill="white"/>
<path d="M4.61401 7.66555C4.61401 7.69785 4.65961 7.79095 4.68241 7.79855C4.69761 7.80425 4.70901 7.80425 4.70901 7.80045C4.70901 7.77765 4.64251 7.65795 4.62921 7.65795C4.62161 7.65795 4.61401 7.66175 4.61401 7.66555Z" fill="white"/>
<path d="M4.2986 7.76819C4.1789 7.84419 4.0763 8.01139 4.0345 8.20329C4.0231 8.26029 4.0269 8.26599 4.0687 8.26599C4.1542 8.26599 4.6577 7.90499 4.6482 7.85179C4.6406 7.81379 4.5171 7.75109 4.4297 7.74159C4.3784 7.73399 4.3404 7.74349 4.2986 7.76819Z" fill="white"/>
<path d="M4.9845 7.75295C4.9769 7.76435 4.9655 7.76815 4.956 7.76245C4.9313 7.74725 4.918 7.77955 4.937 7.80805C4.9579 7.84415 5.0054 7.82325 5.0187 7.77385C5.0282 7.73205 5.0054 7.71875 4.9845 7.75295Z" fill="white"/>
<path d="M9.7174 7.84609C9.5787 8.03419 9.535 8.22419 9.6034 8.34009C9.6395 8.40089 9.744 8.47309 9.8219 8.48829L9.8808 8.49969L9.8732 8.15959C9.8618 7.71119 9.8428 7.67319 9.7174 7.84609Z" fill="white"/>
<path d="M3.81221 7.85558C3.70011 7.86698 3.60511 7.88218 3.59751 7.88788C3.57471 7.91258 3.71911 7.96198 3.81031 7.96198C3.87681 7.96198 3.92051 7.94868 3.97371 7.91448C4.03641 7.87078 4.06871 7.82518 4.03071 7.83088C4.02121 7.83278 3.92431 7.84418 3.81221 7.85558Z" fill="white"/>
<path d="M6.153 7.89548L5.9345 7.93728L6.0048 7.96958C6.0865 8.00568 6.2138 8.00948 6.2727 7.97908C6.3525 7.93728 6.4361 7.84228 6.3867 7.84988C6.3772 7.85178 6.2727 7.87268 6.153 7.89548Z" fill="white"/>
<path d="M5.18401 7.9031C5.04531 7.9487 4.97501 7.9829 4.97501 8.0038C4.97501 8.0456 5.27521 8.1425 5.56781 8.1957C5.71031 8.2223 5.71601 8.2223 5.72741 8.1862C5.74641 8.1254 5.69701 7.9886 5.63621 7.9297C5.58681 7.8822 5.56591 7.8765 5.43481 7.8727C5.33221 7.8689 5.25811 7.8784 5.18401 7.9031Z" fill="white"/>
<path d="M8.42351 7.88595C8.40831 7.91065 8.45201 7.91065 8.49001 7.88595C8.51281 7.87075 8.51091 7.86695 8.47671 7.86695C8.45391 7.86695 8.42921 7.87455 8.42351 7.88595Z" fill="white"/>
<path d="M10.6123 7.97905C10.4052 8.08925 10.39 8.11395 10.523 8.11395C10.637 8.11395 10.7453 8.04365 10.8023 7.93725C10.8175 7.90685 10.827 7.88025 10.8232 7.87645C10.8194 7.87265 10.7244 7.92015 10.6123 7.97905Z" fill="white"/>
<path d="M8.4577 7.91826C8.4083 7.92776 8.3988 7.97146 8.4444 7.98856C8.4767 8.00186 8.585 7.95246 8.585 7.92396C8.585 7.90496 8.5375 7.90306 8.4577 7.91826Z" fill="white"/>
<path d="M10.086 7.99236C10.086 8.11586 10.124 8.17096 10.2114 8.17096C10.2475 8.17096 10.276 8.16526 10.276 8.15766C10.276 8.13676 10.162 7.96766 10.124 7.93346C10.086 7.89926 10.086 7.90116 10.086 7.99236Z" fill="white"/>
<path d="M4.519 8.08738C4.3613 8.24698 4.3594 8.25078 4.424 8.23748C4.557 8.21088 4.6577 8.12728 4.6824 8.02658C4.7109 7.91258 4.6786 7.92588 4.519 8.08738Z" fill="white"/>
<path d="M10.219 7.96575C10.219 7.99235 10.2836 8.11395 10.2988 8.11395C10.3292 8.11395 10.3121 8.05885 10.2665 8.00565C10.2418 7.97715 10.219 7.95815 10.219 7.96575Z" fill="white"/>
<path d="M8.6135 7.9981C8.5831 8.0057 8.5375 8.0247 8.5128 8.0399C8.4672 8.0684 8.3836 8.1862 8.3988 8.2014C8.4045 8.2052 8.5014 8.1672 8.6135 8.114C8.7256 8.0608 8.8149 8.0152 8.8111 8.0114C8.7921 7.9943 8.6648 7.9867 8.6135 7.9981Z" fill="white"/>
<path d="M6.5045 8.05315C6.3677 8.11965 6.2195 8.24505 6.2442 8.26975C6.2784 8.30395 6.514 8.32295 6.7401 8.30775C6.8674 8.29825 6.9757 8.28685 6.9814 8.27925C7.0023 8.25835 6.932 8.12155 6.8731 8.06455C6.7895 7.98475 6.6527 7.98095 6.5045 8.05315Z" fill="white"/>
<path d="M9.98341 8.07599C9.95871 8.21659 9.93401 8.39139 9.93401 8.43509C9.93401 8.48069 9.93401 8.48069 9.97391 8.44459C10.0708 8.35719 10.0936 8.22039 10.0309 8.08549L9.99671 8.00949L9.98341 8.07599Z" fill="white"/>
<path d="M4.8781 8.08926C4.8287 8.14246 4.747 8.26976 4.747 8.29256C4.747 8.29826 4.7774 8.30396 4.8135 8.30396C4.9009 8.30396 4.9408 8.24316 4.9332 8.12346L4.9275 8.03416L4.8781 8.08926Z" fill="white"/>
<path d="M4.7489 8.14439C4.7128 8.18999 4.6938 8.26599 4.7185 8.26599C4.7318 8.26599 4.8078 8.11209 4.7983 8.10259C4.7926 8.09689 4.7717 8.11589 4.7489 8.14439Z" fill="white"/>
<path d="M8.7465 8.15195C8.5033 8.22225 8.414 8.26025 8.414 8.29445C8.414 8.33815 8.547 8.45405 8.6211 8.47495C8.7142 8.49965 8.8092 8.47115 8.9232 8.38185C9.0068 8.31535 9.136 8.15005 9.136 8.11015C9.136 8.07785 8.9289 8.09875 8.7465 8.15195Z" fill="white"/>
<path d="M9.41531 8.10827C9.40771 8.11397 9.40201 8.13677 9.40201 8.15577C9.40201 8.20897 9.46471 8.19187 9.46851 8.13677C9.47231 8.09687 9.44191 8.07977 9.41531 8.10827Z" fill="white"/>
<path d="M5.925 8.18618C5.925 8.20708 5.9953 8.41228 6.0124 8.43888C6.0333 8.47308 6.096 8.39708 6.096 8.33628C6.096 8.29828 6.077 8.26408 6.0371 8.22608C5.9801 8.17288 5.925 8.15388 5.925 8.18618Z" fill="white"/>
<path d="M10.4109 8.29635C10.2684 8.42935 10.067 8.66685 10.067 8.69915C10.067 8.72765 10.1753 8.75995 10.2741 8.75995C10.4603 8.75995 10.5743 8.60415 10.5933 8.32485C10.6066 8.12915 10.5895 8.12725 10.4109 8.29635Z" fill="white"/>
<path d="M5.2467 8.27358C5.3474 8.36668 5.5279 8.38188 5.6381 8.30968L5.6875 8.27738L5.602 8.26408C5.5545 8.25838 5.4443 8.24698 5.355 8.23938L5.1935 8.22608L5.2467 8.27358Z" fill="white"/>
<path d="M9.19301 8.31346C9.19301 8.35146 9.20631 8.40656 9.22151 8.43696C9.24621 8.48446 9.26331 8.49396 9.31651 8.49396C9.35261 8.49396 9.38301 8.48446 9.38301 8.47496C9.38301 8.43886 9.24431 8.24696 9.21961 8.24696C9.20251 8.24696 9.19301 8.26976 9.19301 8.31346Z" fill="white"/>
<path d="M10.1715 8.3021C10.0632 8.3686 10.0233 8.4294 10.0138 8.5415C10.01 8.5985 10.01 8.646 10.0176 8.646C10.0252 8.646 10.2114 8.3781 10.2646 8.2888C10.2855 8.2546 10.238 8.2603 10.1715 8.3021Z" fill="white"/>
<path d="M9.3678 8.37045C9.3925 8.41985 9.4134 8.44835 9.4172 8.43695C9.4305 8.39705 9.402 8.32485 9.364 8.30395C9.3279 8.28495 9.3279 8.28685 9.3678 8.37045Z" fill="white"/>
<path d="M5.90601 8.34385C5.90601 8.39515 5.95161 8.47305 5.97251 8.45215C5.98011 8.44645 5.96681 8.40845 5.94591 8.36665C5.91171 8.30015 5.90791 8.29825 5.90601 8.34385Z" fill="white"/>
<path d="M5.1175 8.38185C5.1099 8.40275 5.1099 8.42555 5.1137 8.43125C5.1308 8.44645 5.165 8.41795 5.165 8.38945C5.165 8.34575 5.1308 8.33815 5.1175 8.38185Z" fill="white"/>
<path d="M6.7515 8.38186C6.647 8.40086 6.5482 8.41986 6.533 8.42366C6.4836 8.43506 6.647 8.49396 6.7268 8.49396C6.8085 8.49396 6.8617 8.47306 6.9282 8.41226C6.97 8.37426 6.9833 8.34006 6.9567 8.34386C6.9472 8.34576 6.856 8.36096 6.7515 8.38186Z" fill="white"/>
<path d="M4.6501 8.38187C4.614 8.39327 4.5418 8.43317 4.4905 8.47117C4.4012 8.53957 4.272 8.68777 4.272 8.72387C4.272 8.75997 4.4962 8.73907 4.728 8.68397C5.032 8.60987 5.0301 8.60987 4.9769 8.52627C4.9028 8.40657 4.7736 8.34957 4.6501 8.38187Z" fill="white"/>
<path d="M9.5673 8.37428C9.5464 8.40658 9.4951 8.64978 9.5046 8.65928C9.5103 8.66498 9.5369 8.66308 9.5635 8.65738C9.6243 8.64218 9.6566 8.57188 9.6414 8.49018C9.6281 8.41228 9.5844 8.34578 9.5673 8.37428Z" fill="white"/>
<path d="M8.3589 8.4256C8.3228 8.4693 8.3817 8.5035 8.4368 8.4712L8.4805 8.4465L8.4273 8.4408C8.3988 8.437 8.3798 8.4256 8.3855 8.4161C8.4026 8.3895 8.3836 8.3952 8.3589 8.4256Z" fill="white"/>
<path d="M6.21951 8.44839C6.09221 8.51869 5.89271 8.75429 5.91361 8.80939C5.92311 8.83219 5.94401 8.83599 6.01431 8.82459C6.10361 8.81319 6.41711 8.71439 6.55771 8.65549C6.62421 8.62889 6.62801 8.62319 6.60521 8.58139C6.53301 8.44649 6.34301 8.38189 6.21951 8.44839Z" fill="white"/>
<path d="M9.041 8.48825C9.0429 8.55095 9.0866 8.68015 9.1949 8.94425C9.2272 9.02405 9.2519 9.02215 9.3241 8.94045C9.421 8.83025 9.4001 8.68395 9.2747 8.56805C9.212 8.50725 9.0809 8.41795 9.0581 8.41795C9.0486 8.41795 9.041 8.45025 9.041 8.48825Z" fill="white"/>
<path d="M5.65331 8.56235C5.57161 8.68585 5.56971 8.69535 5.62101 8.71245C5.70461 8.73905 5.77301 8.65165 5.77301 8.52055C5.77301 8.42555 5.73501 8.43885 5.65331 8.56235Z" fill="white"/>
<path d="M7.008 8.47496C7.008 8.49396 7.084 8.64786 7.1201 8.70106C7.1467 8.74096 7.198 8.69346 7.198 8.62886C7.198 8.56996 7.1866 8.55286 7.1144 8.49776C7.0574 8.45406 7.008 8.44266 7.008 8.47496Z" fill="white"/>
<path d="M9.4628 8.4978C9.4362 8.5244 9.4343 8.5871 9.4571 8.6251C9.4685 8.6422 9.4761 8.6232 9.4799 8.5624C9.4837 8.5149 9.4875 8.475 9.4875 8.475C9.4856 8.475 9.4761 8.4845 9.4628 8.4978Z" fill="white"/>
<path d="M5.5773 8.54716C5.5583 8.56616 5.545 8.60796 5.5469 8.63836C5.5488 8.69156 5.5507 8.68966 5.5868 8.61176C5.6286 8.51866 5.6248 8.49396 5.5773 8.54716Z" fill="white"/>
<path d="M5.1726 8.62125C5.1612 8.69915 5.1821 8.98985 5.2163 9.20075C5.2296 9.29385 5.2657 9.29385 5.3797 9.20645C5.526 9.09435 5.5412 8.94995 5.4253 8.75995C5.3683 8.66875 5.241 8.53195 5.2106 8.53195C5.1954 8.53195 5.1802 8.56615 5.1726 8.62125Z" fill="white"/>
<path d="M8.414 8.60417C8.414 8.63457 8.4311 8.70867 8.452 8.77137C8.5014 8.91197 8.6629 9.25397 8.6819 9.25397C8.6895 9.25397 8.7256 9.21787 8.7636 9.17417C8.8814 9.03737 8.8776 8.90437 8.7484 8.76377C8.6648 8.67067 8.4919 8.55097 8.4425 8.55097C8.4235 8.55097 8.414 8.56807 8.414 8.60417Z" fill="white"/>
<path d="M7.00231 8.64408C7.01371 8.68778 7.07831 8.75238 7.09541 8.73528C7.10871 8.72388 7.02701 8.60798 7.00611 8.60798C6.99851 8.60798 6.99661 8.62508 7.00231 8.64408Z" fill="white"/>
<path d="M9.7972 8.70679C9.7478 8.76189 9.706 8.81699 9.706 8.83029C9.706 8.86829 9.8276 8.86069 9.8637 8.82079C9.8979 8.78279 9.9302 8.60799 9.9036 8.60799C9.896 8.60799 9.8485 8.65169 9.7972 8.70679Z" fill="white"/>
<path d="M9.71551 8.69349C9.68891 8.71819 9.66801 8.75809 9.66801 8.78279C9.66801 8.83029 9.68131 8.81889 9.74211 8.71629C9.79151 8.63459 9.78201 8.62509 9.71551 8.69349Z" fill="white"/>
<path d="M4.7907 8.74667C4.6824 8.78847 4.595 8.82837 4.595 8.83597C4.595 8.85877 4.7413 8.87207 4.8173 8.85497C4.8857 8.83787 5.013 8.72767 5.013 8.68397C5.013 8.65737 5.0111 8.65927 4.7907 8.74667Z" fill="white"/>
<path d="M6.4228 8.78657C6.3145 8.83977 6.2328 8.89107 6.2404 8.89867C6.267 8.92527 6.4095 8.91197 6.4855 8.87397C6.5577 8.83977 6.6527 8.72007 6.628 8.69537C6.6223 8.69157 6.5311 8.73147 6.4228 8.78657Z" fill="white"/>
<path d="M8.984 8.76567C8.984 8.81507 8.9973 8.88157 9.0125 8.91197C9.0391 8.96517 9.1474 9.03927 9.1683 9.02027C9.1721 9.01457 9.1341 8.93477 9.0809 8.84167L8.984 8.67447V8.76567Z" fill="white"/>
<path d="M6.6888 8.79796C6.5881 8.82076 6.5767 8.84546 6.6394 8.90246C6.7021 8.95946 7.1676 9.19696 7.2189 9.19696C7.2645 9.19696 7.2797 9.13996 7.2626 9.03356C7.2474 8.93286 7.179 8.84166 7.0897 8.80556C7.0232 8.77706 6.7933 8.77326 6.6888 8.79796Z" fill="white"/>
<path d="M5.78441 8.84168C5.77871 8.86638 5.76921 8.93478 5.76161 8.99558C5.74831 9.10578 5.74831 9.10578 5.79391 9.09248C5.86611 9.06968 5.88701 9.04498 5.88701 8.97468C5.88701 8.90818 5.84141 8.79798 5.81291 8.79798C5.80341 8.79798 5.79201 8.81698 5.78441 8.84168Z" fill="white"/>
<path d="M5.032 8.86446C5.0206 8.89676 5.013 8.97086 5.0168 9.03166C5.0244 9.12476 5.0339 9.15136 5.0852 9.20076C5.1175 9.23496 5.1498 9.25586 5.1574 9.24826C5.165 9.24066 5.1441 9.13996 5.1137 9.02216C5.0567 8.81506 5.0548 8.80936 5.032 8.86446Z" fill="white"/>
<path d="M8.357 8.95375C8.3589 9.08485 8.4178 9.19125 8.5128 9.23495C8.5565 9.25395 8.5964 9.26725 8.6002 9.26345C8.6078 9.25585 8.3779 8.87395 8.3646 8.87395C8.3608 8.87395 8.357 8.91005 8.357 8.95375Z" fill="white"/>
<path d="M5.6894 8.9424C5.6723 8.988 5.6761 9.0165 5.7065 9.0564C5.7312 9.0906 5.7331 9.0849 5.735 9.0013C5.735 8.9139 5.7122 8.8835 5.6894 8.9424Z" fill="white"/>
<path d="M6.495 8.95377C6.495 8.97087 6.5976 9.17037 6.6204 9.19507C6.6375 9.21407 6.685 9.14947 6.685 9.10767C6.685 9.04117 6.6546 8.99177 6.59 8.95947C6.5235 8.92527 6.495 8.92337 6.495 8.95377Z" fill="white"/>
<path d="M8.27151 9.03356C8.27151 9.07536 8.30191 9.08866 8.33041 9.05826C8.34371 9.04496 8.30571 8.98796 8.28291 8.98796C8.27721 8.98796 8.27151 9.00886 8.27151 9.03356Z" fill="white"/>
<path d="M9.9739 9.04685C9.934 9.08485 9.896 9.15895 9.896 9.19885C9.896 9.23685 10.3368 9.20075 10.3786 9.15705C10.4014 9.13615 10.3558 9.10005 10.2437 9.04495C10.1373 8.99555 10.029 8.99555 9.9739 9.04685Z" fill="white"/>
<path d="M6.476 9.06775C6.4741 9.10575 6.5178 9.17795 6.552 9.19695C6.5729 9.20835 6.59 9.21025 6.59 9.20265C6.5881 9.18365 6.4779 9.05065 6.476 9.06775Z" fill="white"/>
<path d="M5.96301 9.13994C5.90601 9.16844 5.82431 9.22354 5.78251 9.25964C5.71981 9.31474 5.71031 9.33184 5.73121 9.35274C5.75971 9.38124 6.10551 9.39834 6.31641 9.37744C6.44561 9.36604 6.45701 9.36224 6.45701 9.32234C6.45701 9.27104 6.36201 9.13234 6.30691 9.10384C6.23471 9.06394 6.07511 9.08104 5.96301 9.13994Z" fill="white"/>
<path d="M6.79711 9.17607C6.84271 9.23877 6.97761 9.31097 7.05171 9.31097C7.12011 9.31097 7.20751 9.27487 7.18661 9.25587C7.17141 9.24067 6.80091 9.12097 6.77051 9.12097C6.76481 9.12097 6.77621 9.14567 6.79711 9.17607Z" fill="white"/>
<path d="M24.165 9.349L23.7375 9.5561L23.7318 9.7746L23.7261 9.995L23.8838 9.9266C23.9712 9.8886 24.1669 9.8069 24.3227 9.7423L24.602 9.6264V9.3832C24.602 9.2502 24.6001 9.14 24.5982 9.1419C24.5944 9.1419 24.4006 9.235 24.165 9.349Z" fill="white"/>
<path d="M8.2335 9.21789C8.2202 9.27489 8.2373 9.48199 8.2544 9.48199C8.2601 9.48199 8.2848 9.46869 8.3095 9.45159C8.3836 9.40409 8.3627 9.25399 8.2753 9.17989C8.2506 9.16089 8.2449 9.16659 8.2335 9.21789Z" fill="white"/>
<path d="M9.4685 9.18555C9.4362 9.19885 9.3811 9.23875 9.3469 9.27295C9.269 9.35085 9.2671 9.34895 9.5502 9.47245C9.7611 9.56555 9.9587 9.62445 9.991 9.60545C10.0195 9.58835 9.9226 9.41355 9.8276 9.31095C9.6946 9.16845 9.5901 9.13235 9.4685 9.18555Z" fill="white"/>
<path d="M9.91501 9.26347C9.91501 9.32427 10.1202 9.35277 10.1886 9.30147C10.2247 9.27487 10.2228 9.27297 10.1582 9.27297C10.1221 9.27297 10.0518 9.26727 10.0024 9.26157C9.95491 9.25397 9.91501 9.25587 9.91501 9.26347Z" fill="white"/>
<path d="M8.1575 9.33565C8.1442 9.38315 8.1727 9.46295 8.2031 9.46295C8.2183 9.46295 8.1936 9.31285 8.1765 9.29575C8.1727 9.29005 8.1632 9.30905 8.1575 9.33565Z" fill="white"/>
<path d="M6.7686 9.425C6.647 9.4858 6.4646 9.6549 6.4836 9.6891C6.5026 9.7195 6.78 9.7157 6.9795 9.6815C7.1961 9.6435 7.217 9.6378 7.217 9.6074C7.217 9.5599 7.0992 9.4212 7.0365 9.3946C6.9415 9.3566 6.894 9.3604 6.7686 9.425Z" fill="white"/>
<path d="M9.288 9.4345C9.288 9.4934 9.3621 9.5903 9.4305 9.6226C9.4723 9.6435 9.5312 9.653 9.5863 9.6492L9.6756 9.6435L9.5255 9.5523C9.4438 9.501 9.3564 9.4459 9.3317 9.4307C9.2918 9.4041 9.288 9.4041 9.288 9.4345Z" fill="white"/>
<path d="M6.191 9.46486C6.0922 9.48386 6.0067 9.49906 6.001 9.50096C5.9744 9.50476 6.096 9.55796 6.1568 9.56746C6.2499 9.58456 6.343 9.55226 6.4095 9.48196L6.4646 9.42496L6.4171 9.42686C6.3924 9.42876 6.2898 9.44396 6.191 9.46486Z" fill="white"/>
<path d="M8.9042 9.59404C8.8548 9.62444 8.8054 9.66814 8.794 9.69094C8.775 9.72894 8.7845 9.73654 8.9688 9.82204C9.2576 9.95694 9.4533 10.0139 9.4704 9.96834C9.497 9.89804 9.3032 9.64344 9.1702 9.57504C9.0714 9.52564 9.0068 9.52944 8.9042 9.59404Z" fill="white"/>
<path d="M7.0118 9.74796C6.7648 9.82396 6.761 9.82396 6.8085 9.84296C6.8294 9.85246 6.8959 9.86006 6.9548 9.86006C7.0555 9.86196 7.0707 9.85626 7.141 9.79356C7.2113 9.72896 7.236 9.68906 7.2037 9.69286C7.1942 9.69286 7.1087 9.71756 7.0118 9.74796Z" fill="white"/>
<path d="M9.53501 9.7442C9.51031 9.7632 9.49701 9.7879 9.50271 9.7993C9.51791 9.824 9.66611 9.862 9.74781 9.862L9.81051 9.8601L9.73071 9.786C9.64141 9.7024 9.59771 9.6929 9.53501 9.7442Z" fill="white"/>
<path d="M8.7845 9.8563C8.8358 9.9836 8.9479 10.0444 9.0942 10.0292C9.1531 10.0235 9.1474 10.0178 8.965 9.9038C8.8605 9.8392 8.7712 9.786 8.7655 9.786C8.7598 9.786 8.7693 9.8183 8.7845 9.8563Z" fill="white"/>
<path d="M9.5274 9.88288C9.5521 9.90758 9.5863 9.91898 9.6129 9.91518C9.6566 9.90948 9.6566 9.90758 9.5977 9.87528C9.5141 9.82968 9.4799 9.83348 9.5274 9.88288Z" fill="white"/>
<path d="M8.52801 9.89618C8.47291 9.92278 8.46151 9.93988 8.45581 9.99878C8.45201 10.0501 8.45771 10.071 8.47481 10.071C8.50521 10.071 8.69901 9.90568 8.69901 9.87908C8.69901 9.85058 8.59831 9.86008 8.52801 9.89618Z" fill="white"/>
<path d="M8.5565 10.0614C8.4843 10.1051 8.4843 10.107 8.5299 10.1089C8.5565 10.1089 8.5945 10.0918 8.6135 10.0709C8.6648 10.0139 8.6401 10.0101 8.5565 10.0614Z" fill="white"/>
<path d="M14.703 10.1204C14.2185 10.2021 13.9449 10.4339 13.8347 10.8538C13.7948 11.0115 13.7948 11.3155 13.8366 11.4751C13.9259 11.8228 14.1824 12.0812 14.5225 12.1705C14.6688 12.2085 14.9842 12.2085 15.1305 12.1705C15.3794 12.104 15.6188 11.9102 15.7252 11.6841C15.7594 11.6138 15.786 11.5473 15.786 11.5359C15.786 11.5207 15.6853 11.515 15.4573 11.515H15.1286L15.0849 11.5739C15.0032 11.6841 14.8265 11.7316 14.6821 11.6822C14.5396 11.6347 14.456 11.534 14.4275 11.3763L14.4142 11.306H15.1172C15.9152 11.306 15.843 11.3231 15.843 11.1293C15.8411 10.8557 15.7328 10.5726 15.5599 10.4016C15.4535 10.2952 15.2578 10.1831 15.121 10.1508C15.0203 10.1261 14.7714 10.109 14.703 10.1204ZM15.0526 10.6866C15.14 10.7531 15.197 10.8424 15.197 10.9108V10.964H14.8056H14.4161L14.4294 10.9203C14.4959 10.7037 14.6175 10.6182 14.8474 10.6258C14.9614 10.6315 14.9937 10.641 15.0526 10.6866Z" fill="white"/>
<path d="M21.9021 10.128C21.7634 10.1508 21.6475 10.2116 21.5335 10.3199L21.429 10.4187V10.2819V10.147H21.1155H20.802V11.648V13.149H21.1155H21.429V12.5296V11.9102L21.5145 11.9976C21.562 12.0432 21.6494 12.1059 21.7102 12.1363C21.8109 12.1857 21.8337 12.1895 22.056 12.1895C22.284 12.1895 22.2992 12.1876 22.4227 12.1287C22.7476 11.9748 22.949 11.6043 22.949 11.1654C22.949 10.9412 22.911 10.774 22.8255 10.603C22.6963 10.3465 22.4645 10.1717 22.1966 10.128C22.0712 10.1071 22.0275 10.1071 21.9021 10.128ZM22.0332 10.6904C22.2593 10.7835 22.3733 11.0628 22.2935 11.3364C22.2688 11.4238 22.2422 11.4675 22.17 11.5378C22.0275 11.6746 21.8603 11.7031 21.6836 11.6214C21.5145 11.5416 21.4309 11.3915 21.4309 11.1635C21.4309 11.0115 21.4594 10.9184 21.5335 10.8196C21.638 10.6828 21.8717 10.622 22.0332 10.6904Z" fill="white"/>
<path d="M24.013 10.1261C23.4962 10.1964 23.158 10.603 23.158 11.154C23.158 11.6651 23.4335 12.0527 23.8819 12.1705C24.0225 12.2085 24.3588 12.2066 24.4899 12.1686C24.7901 12.0812 25.0276 11.8646 25.1226 11.5948L25.1511 11.515H24.8262H24.5032L24.4291 11.5891C24.2467 11.7772 23.9275 11.724 23.8211 11.4865C23.8021 11.4447 23.785 11.3877 23.785 11.3573V11.306H24.488H25.191V11.1198C25.191 10.9146 25.1625 10.7816 25.0827 10.6277C24.9763 10.4149 24.7673 10.2382 24.5374 10.1679C24.4006 10.1261 24.1593 10.1071 24.013 10.1261ZM24.3493 10.6505C24.4443 10.6904 24.4861 10.7303 24.5279 10.8215C24.5963 10.9697 24.6134 10.964 24.1745 10.964C23.8762 10.964 23.785 10.9583 23.785 10.9393C23.7869 10.8956 23.8553 10.7645 23.9009 10.7246C24.0168 10.622 24.2049 10.5897 24.3493 10.6505Z" fill="white"/>
<path d="M17.1635 10.1527C17.04 10.1945 16.9412 10.2515 16.8652 10.3256L16.793 10.3959V10.2705V10.147H16.4795H16.166V11.1635V12.18H16.4795H16.793V11.5853C16.793 11.211 16.8006 10.964 16.8139 10.9165C16.8823 10.6714 17.2357 10.5783 17.4409 10.7493C17.5663 10.8557 17.572 10.8861 17.572 11.5663V12.18H17.8855H18.199V11.5663C18.199 11.0134 18.2028 10.9469 18.2351 10.8785C18.3605 10.6011 18.788 10.5897 18.9286 10.8595C18.9666 10.9317 18.9685 10.9697 18.9742 11.5568L18.9799 12.18H19.2839H19.5879L19.5822 11.4428L19.5765 10.7075L19.5119 10.5688C19.4302 10.3959 19.2782 10.2458 19.1167 10.1831C19.0255 10.147 18.9685 10.1394 18.788 10.1394C18.5714 10.1375 18.5657 10.1394 18.4251 10.2078C18.3282 10.2553 18.2484 10.3123 18.18 10.3864L18.0793 10.4928L18.0394 10.4396C17.971 10.3427 17.8703 10.261 17.7468 10.2002C17.6404 10.147 17.6043 10.1394 17.4333 10.1337C17.306 10.1299 17.2129 10.1375 17.1635 10.1527Z" fill="white"/>
<path d="M8.3608 10.1964C8.2886 10.2344 8.205 10.3636 8.205 10.4415V10.4947L8.4387 10.4833C8.6724 10.4719 8.8491 10.4434 8.9137 10.4092C8.9479 10.3921 8.9479 10.3883 8.908 10.3465C8.8434 10.2781 8.642 10.1869 8.5261 10.1755C8.4501 10.1679 8.4064 10.1736 8.3608 10.1964Z" fill="white"/>
<path d="M8.22781 10.5707C8.23161 10.5821 8.27341 10.6125 8.31901 10.6372C8.38361 10.6695 8.42351 10.679 8.47861 10.6695C8.56791 10.6562 8.67051 10.6049 8.64961 10.584C8.64011 10.5764 8.53941 10.565 8.42731 10.5574C8.26771 10.5479 8.22211 10.5517 8.22781 10.5707Z" fill="white"/>
</svg>
